<svg xmlns="http://www.w3.org/2000/svg">
<defs>
<font id="GTAmerica-Bold" horiz-adv-x="583" >
  <font-face 
    font-family="GT America Bold"
    font-weight="700"
    font-stretch="normal"
    units-per-em="2048"
    panose-1="0 0 8 0 0 0 0 0 0 0"
    ascent="1638"
    descent="-410"
    x-height="1024"
    cap-height="1454"
    bbox="-70 -424 2044 1778"
    underline-thickness="102"
    underline-position="-306"
    unicode-range="U+000D-21C5"
  />
<missing-glyph horiz-adv-x="2084" 
d="M2044 1358h-1131v-96h1131v-99h-1131v-96h1131v-98h-1131v-97h1131v-96h-1131v-98h1131v-96h-2003v872h2003v-96zM137 1366l27 18h-33l-10 31l-8 -31h-33l26 -18l-10 -31l25 19l26 -19zM291 1384h-33l27 -18l-11 -31l25 21l27 -21l-11 31l25 18h-31l-10 31zM469 1384h-33
l27 -18l-10 -31l24 21l27 -21l-10 31l24 18h-31l-10 31zM645 1384h-31l27 -18l-10 -31l24 21l27 -21l-10 31l24 18h-30l-11 31zM850 1366l24 18h-30l-10 31l-11 -31h-30l24 -18l-8 -31l25 21l26 -21zM201 1294h-31l25 -18l-9 -29l25 19l25 -19l-9 29l25 18h-31l-10 31z
M760 1276l26 18h-32l-9 31l-10 -31h-30l24 -18l-10 -29l26 19l25 -19zM559 745v191h193v164h-193v192h-164v-192h-190v-164h190v-191h164zM137 1188l27 18h-33l-10 29l-8 -29h-33l26 -18l-10 -31l25 19l26 -19zM291 1206h-33l27 -18l-11 -31l25 19l27 -19l-11 31l25 18h-31
l-10 29zM645 1206h-31l27 -18l-10 -31l24 19l27 -19l-10 31l24 18h-30l-11 29zM850 1188l24 18h-30l-10 29l-11 -29h-30l24 -18l-8 -31l25 19l26 -19zM137 1008l27 20h-33l-10 29l-8 -29h-33l26 -20l-10 -29l25 18l26 -18zM850 1008l24 20h-30l-10 29l-11 -29h-30l24 -20
l-8 -29l25 18l26 -18zM137 829l27 19h-33l-10 31l-8 -31h-33l26 -19l-10 -28l25 18l26 -18zM315 829l25 19h-31l-10 31l-8 -31h-33l27 -19l-11 -28l25 18l27 -18zM672 829l24 19h-30l-11 31l-10 -31h-31l27 -19l-10 -28l24 18l27 -18zM850 829l24 19h-30l-10 31l-11 -31h-30
l24 -19l-8 -28l25 18l26 -18zM236 711l-9 30l25 19h-31l-10 28l-10 -28h-31l25 -19l-9 -30l25 18zM770 711l-10 30l26 19h-32l-9 28l-10 -28h-30l24 -19l-10 -30l26 18zM147 621l-10 30l27 19h-33l-10 30l-8 -30h-33l26 -19l-10 -30l25 18zM326 621l-11 30l25 19h-31l-10 30

<glyph glyph-name=".notdef" horiz-adv-x="2084" 
d="M2044 1358h-1131v-96h1131v-99h-1131v-96h1131v-98h-1131v-97h1131v-96h-1131v-98h1131v-96h-2003v872h2003v-96zM137 1366l27 18h-33l-10 31l-8 -31h-33l26 -18l-10 -31l25 19l26 -19zM291 1384h-33l27 -18l-11 -31l25 21l27 -21l-11 31l25 18h-31l-10 31zM469 1384h-33
l27 -18l-10 -31l24 21l27 -21l-10 31l24 18h-31l-10 31zM645 1384h-31l27 -18l-10 -31l24 21l27 -21l-10 31l24 18h-30l-11 31zM850 1366l24 18h-30l-10 31l-11 -31h-30l24 -18l-8 -31l25 21l26 -21zM201 1294h-31l25 -18l-9 -29l25 19l25 -19l-9 29l25 18h-31l-10 31z
M760 1276l26 18h-32l-9 31l-10 -31h-30l24 -18l-10 -29l26 19l25 -19zM559 745v191h193v164h-193v192h-164v-192h-190v-164h190v-191h164zM137 1188l27 18h-33l-10 29l-8 -29h-33l26 -18l-10 -31l25 19l26 -19zM291 1206h-33l27 -18l-11 -31l25 19l27 -19l-11 31l25 18h-31
l-10 29zM645 1206h-31l27 -18l-10 -31l24 19l27 -19l-10 31l24 18h-30l-11 29zM850 1188l24 18h-30l-10 29l-11 -29h-30l24 -18l-8 -31l25 19l26 -19zM137 1008l27 20h-33l-10 29l-8 -29h-33l26 -20l-10 -29l25 18l26 -18zM850 1008l24 20h-30l-10 29l-11 -29h-30l24 -20
l-8 -29l25 18l26 -18zM137 829l27 19h-33l-10 31l-8 -31h-33l26 -19l-10 -28l25 18l26 -18zM315 829l25 19h-31l-10 31l-8 -31h-33l27 -19l-11 -28l25 18l27 -18zM672 829l24 19h-30l-11 31l-10 -31h-31l27 -19l-10 -28l24 18l27 -18zM850 829l24 19h-30l-10 31l-11 -31h-30
l24 -19l-8 -28l25 18l26 -18zM236 711l-9 30l25 19h-31l-10 28l-10 -28h-31l25 -19l-9 -30l25 18zM770 711l-10 30l26 19h-32l-9 28l-10 -28h-30l24 -19l-10 -30l26 18zM147 621l-10 30l27 19h-33l-10 30l-8 -30h-33l26 -19l-10 -30l25 18zM326 621l-11 30l25 19h-31l-10 30
l-8 -30h-33l27 -19l-11 -30l25 18zM504 621l-10 30l24 19h-31l-10 30l-8 -30h-33l27 -19l-10 -30l24 18zM682 621l-10 30l24 19h-30l-11 30l-10 -30h-31l27 -19l-10 -30l24 18zM860 621l-10 30l24 19h-30l-10 30l-11 -30h-30l24 -19l-8 -30l25 18zM41 387v98h2001v-98h-2001
zM41 195v96h2003v-96h-2003zM41 0v96h2003v-96h-2003z" />
    <glyph glyph-name=".null" horiz-adv-x="0" 
 />
    <glyph glyph-name=".null" horiz-adv-x="0" 
 />
    <glyph glyph-name="nonmarkingreturn" horiz-adv-x="681" 
 />
    <glyph glyph-name="CR" unicode="&#xd;" horiz-adv-x="0" 
 />
    <glyph glyph-name="space" unicode=" " horiz-adv-x="505" 
 />
    <glyph glyph-name="exclam" unicode="!" horiz-adv-x="675" 
d="M207 475l-55 1010h372l-55 -1010h-262zM516 313v-313h-356v313h356z" />
    <glyph glyph-name="parenleft" unicode="(" horiz-adv-x="727" 
d="M473 -287q-362 410 -362 957q0 528 362 932l246 -95q-301 -380 -301 -839q0 -475 301 -861z" />
    <glyph glyph-name="parenright" unicode=")" horiz-adv-x="727" 
d="M254 -287l-246 94q301 386 301 861q0 459 -301 839l246 95q362 -404 362 -932q0 -547 -362 -957z" />
    <glyph glyph-name="comma" unicode="," 
d="M201 -317l-68 135q88 29 117 67q31 40 31 111v4h-164v336h350v-318q0 -131 -63 -212q-62 -79 -203 -123z" />
    <glyph glyph-name="period" unicode="." 
d="M467 336v-336h-350v336h350z" />
    <glyph glyph-name="zero" unicode="0" horiz-adv-x="1366" 
d="M682 -31q-288 0 -451 196q-161 194 -161 546q0 353 161 547q163 196 451 196q290 0 453 -196q161 -194 161 -547q0 -352 -161 -546q-163 -196 -453 -196zM682 225q134 0 204 124t70 362t-70 362q-71 125 -204 125q-131 0 -202 -125q-70 -124 -70 -362t70 -362t202 -124z
" />
    <glyph glyph-name="one" unicode="1" horiz-adv-x="878" 
d="M350 0v977q-84 -78 -248 -78h-57v297h39q129 4 207 57q77 52 121 170h268v-1423h-330z" />
    <glyph glyph-name="two" unicode="2" horiz-adv-x="1202" 
d="M59 0v242q342 208 514 368q104 95 150 184q45 87 45 191q0 100 -47 155q-46 54 -137 54t-142 -54t-51 -151q0 -41 15 -117l-336 33q-13 60 -13 111q0 200 147 319q148 119 396 119q246 0 383 -117t137 -327q0 -277 -256 -506q-143 -124 -354 -242h623v-262h-1074z" />
    <glyph glyph-name="three" unicode="3" horiz-adv-x="1228" 
d="M606 -31q-255 0 -406 125q-150 125 -155 338l334 31q2 -113 63 -176q62 -64 166 -64q100 0 153 51q52 51 52 146q0 190 -246 190h-75v226h73q217 0 217 188q0 87 -49 133q-50 47 -139 47q-102 0 -155 -65q-54 -66 -54 -185l-326 43q0 208 149 333q148 124 402 124
q246 0 379 -102t133 -289q0 -119 -78 -208q-79 -90 -206 -118q323 -46 323 -340q0 -197 -150 -312q-151 -116 -405 -116z" />
    <glyph glyph-name="four" unicode="4" horiz-adv-x="1230" 
d="M1214 313h-213v-313h-325v313h-656v224l617 886h364v-868h213v-242zM688 965q0 112 4 157h-4q-21 -52 -82 -145l-203 -299q-58 -86 -94 -123h379v410z" />
    <glyph glyph-name="five" unicode="5" horiz-adv-x="1218" 
d="M602 -31q-219 0 -364 106t-175 290l322 51q17 -89 73 -138q59 -51 142 -51q106 0 165 66q58 65 58 182q0 119 -57 191q-56 71 -160 71q-170 0 -217 -170l-295 29l88 827h895v-262h-653l-39 -325q99 141 313 141q210 0 332 -131q121 -130 121 -361q0 -240 -146 -377
q-148 -139 -403 -139z" />
    <glyph glyph-name="six" unicode="6" horiz-adv-x="1239" 
d="M737 961q204 0 323 -128q118 -127 118 -350q0 -225 -148 -370q-147 -144 -379 -144q-277 0 -431 189q-154 188 -154 528q0 358 157 563t432 205q438 0 500 -373l-311 -49q-38 174 -195 174q-121 0 -190 -108q-70 -110 -76 -305q108 168 354 168zM643 219q102 0 161 67
q58 65 58 183q0 115 -61 183q-61 69 -162 69q-90 0 -155 -52q-67 -53 -97 -145q15 -144 82 -224q67 -81 174 -81z" />
    <glyph glyph-name="seven" unicode="7" horiz-adv-x="1079" 
d="M233 0v25q0 295 132 586q130 286 368 538h-694v274h1022v-254q-467 -487 -467 -1118v-51h-361z" />
    <glyph glyph-name="eight" unicode="8" horiz-adv-x="1263" 
d="M928 786q286 -108 286 -391q0 -192 -159 -309t-426 -117q-261 0 -421 110q-159 109 -159 292q0 259 273 342q-232 107 -232 346q0 179 146 287q145 108 382 108q246 0 389 -98q144 -99 144 -264q0 -224 -223 -306zM618 1231q-97 0 -154 -45q-56 -44 -56 -127
q0 -135 225 -191l80 -20q123 63 123 196q0 88 -58 138q-56 49 -160 49zM635 211q113 0 178 52q66 53 66 140q0 78 -55 128t-173 83l-110 29q-156 -72 -156 -227q0 -92 69 -149q68 -56 181 -56z" />
    <glyph glyph-name="nine" unicode="9" horiz-adv-x="1241" 
d="M602 1454q281 0 427 -182q147 -183 147 -537q0 -363 -145 -565q-144 -201 -437 -201q-212 0 -346 99q-134 100 -164 282l311 56q41 -181 215 -181q123 0 186 113q62 112 64 319q-99 -151 -319 -151q-219 0 -350 125q-130 124 -130 336q0 217 147 352t394 135zM602 745
q83 0 155 52q71 51 101 135q-6 122 -69 202q-62 78 -183 78q-104 0 -167 -64q-62 -63 -62 -171q0 -104 62 -167q63 -65 163 -65z" />
    <glyph glyph-name="colon" unicode=":" 
d="M467 1024v-336h-350v336h350zM467 336v-336h-350v336h350z" />
    <glyph glyph-name="semicolon" unicode=";" 
d="M467 1024v-336h-350v336h350zM201 -317l-68 135q88 29 117 67q31 40 31 111v4h-164v336h350v-318q0 -131 -63 -212q-62 -79 -203 -123z" />
    <glyph glyph-name="question" unicode="?" horiz-adv-x="1085" 
d="M360 438v99q0 132 132 235l104 80q123 94 123 223q0 85 -50 137t-130 52q-93 0 -147 -57t-54 -158q0 -62 12 -103l-315 27q-15 66 -15 119q0 189 139 304q137 113 380 113t379 -105q137 -105 137 -294q0 -210 -193 -367l-94 -77q-49 -40 -69 -77q-19 -35 -19 -91v-60
h-320zM346 0v313h352v-313h-352z" />
    <glyph glyph-name="A" unicode="A" horiz-adv-x="1507" 
d="M1133 0l-111 340h-537l-110 -340h-346l528 1454h395l529 -1454h-348zM565 584h377l-133 405q-37 116 -53 205h-4q-15 -81 -54 -205z" />
    <glyph glyph-name="B" unicode="B" horiz-adv-x="1394" 
d="M1028 758q140 -22 220 -114q79 -91 79 -234q0 -181 -127 -295q-129 -115 -366 -115h-682v1454h655q240 0 361 -103q122 -104 122 -272q0 -118 -68 -202q-69 -86 -194 -119zM715 1210h-217v-354h217q111 0 163 49t52 129t-53 128t-162 48zM737 244q112 0 171 53t59 141
q0 85 -58 137t-164 52h-247v-383h239z" />
    <glyph glyph-name="C" unicode="C" horiz-adv-x="1468" 
d="M768 -35q-340 0 -524 205q-185 206 -185 555q0 347 192 555q192 209 521 209q277 0 445 -140q170 -141 198 -382l-350 -62q-17 146 -94 225q-78 80 -207 80q-164 0 -257 -130t-93 -353q0 -219 95 -350t265 -131q121 0 199 79q77 79 100 220l350 -76q-53 -237 -222 -370
q-170 -134 -433 -134z" />
    <glyph glyph-name="D" unicode="D" horiz-adv-x="1509" 
d="M152 0v1454h579q325 0 522 -199t197 -520q0 -329 -198 -532t-525 -203h-575zM498 254h215q177 0 279 138t102 343q0 207 -99 336t-278 129h-219v-946z" />
    <glyph glyph-name="E" unicode="E" horiz-adv-x="1261" 
d="M498 256h663v-256h-1009v1454h995v-256h-649v-328h614v-254h-614v-360z" />
    <glyph glyph-name="F" unicode="F" horiz-adv-x="1202" 
d="M1147 1192h-649v-336h612v-258h-612v-598h-346v1454h995v-262z" />
    <glyph glyph-name="G" unicode="G" horiz-adv-x="1523" 
d="M705 -35q-300 0 -473 206t-173 554q0 347 195 555q195 209 526 209q272 0 434 -126q161 -126 199 -321l-342 -63q-21 111 -93 180q-73 70 -200 70q-172 0 -268 -134q-96 -133 -96 -366q0 -234 94 -365q95 -133 274 -133q151 0 237 95q85 94 85 204v31h-359v248h674v-809
h-245l-15 213q-55 -116 -173 -182q-119 -66 -281 -66z" />
    <glyph glyph-name="H" unicode="H" horiz-adv-x="1554" 
d="M1403 1454v-1454h-346v604h-559v-604h-346v1454h346v-584h559v584h346z" />
    <glyph glyph-name="I" unicode="I" horiz-adv-x="649" 
d="M498 0h-346v1454h346v-1454z" />
    <glyph glyph-name="J" unicode="J" horiz-adv-x="858" 
d="M731 428q0 -232 -127 -344q-128 -113 -354 -113q-131 0 -215 19v282q69 -10 139 -10q211 0 211 232v960h346v-1026z" />
    <glyph glyph-name="K" unicode="K" horiz-adv-x="1462" 
d="M1042 0l-378 621l-166 -193v-428h-346v1454h346v-625l514 625h395l-508 -590l537 -864h-394z" />
    <glyph glyph-name="L" unicode="L" horiz-adv-x="1122" 
d="M152 0v1454h346v-1173h589v-281h-935z" />
    <glyph glyph-name="M" unicode="M" horiz-adv-x="1859" 
d="M152 0v1454h475l268 -891q24 -82 35 -176h4q11 91 37 180l256 887h481v-1454h-315v991q0 86 8 164h-6q-6 -58 -31 -141l-293 -1014h-291l-305 1014q-24 65 -31 139h-6q8 -106 8 -162v-991h-294z" />
    <glyph glyph-name="N" unicode="N" horiz-adv-x="1560" 
d="M152 0v1454h383l466 -829q67 -126 89 -189h4q0 47 -1 88t-1 99v831h317v-1454h-369l-483 838q-69 131 -86 178h-4q0 -50 1 -92t1 -101v-823h-317z" />
    <glyph glyph-name="O" unicode="O" horiz-adv-x="1552" 
d="M776 -35q-327 0 -522 206q-195 205 -195 556t195 556q195 206 522 206t522 -206q195 -205 195 -556t-195 -556q-195 -206 -522 -206zM776 236q171 0 265 130q96 133 96 361q0 229 -96 362q-94 130 -265 130q-170 0 -266 -130q-96 -131 -96 -362q0 -229 96 -360t266 -131z
" />
    <glyph glyph-name="P" unicode="P" horiz-adv-x="1345" 
d="M797 1454q237 0 380 -125q142 -124 142 -332q0 -217 -142 -343q-143 -126 -389 -126h-290v-528h-346v1454h645zM713 770q115 0 179 57t64 160t-63 160t-180 57h-215v-434h215z" />
    <glyph glyph-name="Q" unicode="Q" horiz-adv-x="1552" 
d="M1090 25q82 -76 229 -76q55 0 115 16v-268q-82 -12 -154 -12q-364 0 -475 280h-29q-327 0 -522 206q-195 205 -195 556t195 556q195 206 522 206t522 -206q195 -205 195 -556q0 -254 -107 -438q-106 -182 -296 -264zM414 727q0 -229 96 -360t266 -131q171 0 265 130
q96 133 96 361q0 229 -96 362q-94 130 -265 130q-170 0 -266 -130q-96 -131 -96 -362z" />
    <glyph glyph-name="R" unicode="R" horiz-adv-x="1419" 
d="M985 0l-278 557h-209v-557h-346v1454h639q267 0 400 -119q132 -119 132 -327q0 -139 -74 -246t-211 -154l322 -608h-375zM498 1210v-415h223q242 0 242 213q0 202 -242 202h-223z" />
    <glyph glyph-name="S" unicode="S" horiz-adv-x="1282" 
d="M635 -35q-229 0 -395 90q-165 89 -244 248l256 180q127 -250 395 -250q111 0 180 42q70 43 70 124t-48 118q-50 39 -163 63l-194 41q-402 89 -402 436q0 201 153 316q154 116 414 116q197 0 351 -73q150 -71 227 -216l-225 -190q-56 106 -153 165q-97 58 -222 58
q-103 0 -164 -40t-61 -110q0 -69 48 -109q47 -39 163 -67l210 -45q201 -45 299 -146q99 -102 99 -284q0 -211 -157 -339t-437 -128z" />
    <glyph glyph-name="T" unicode="T" horiz-adv-x="1216" 
d="M1204 1454v-274h-424v-1180h-344v1180h-422v274h1190z" />
    <glyph glyph-name="U" unicode="U" horiz-adv-x="1486" 
d="M127 1454h346v-932q0 -130 72 -203t198 -73q127 0 199 73t72 203v932h346v-946q0 -249 -164 -396t-453 -147t-452 147q-164 147 -164 396v946z" />
    <glyph glyph-name="V" unicode="V" horiz-adv-x="1386" 
d="M494 0l-490 1454h369l270 -938q37 -130 45 -201h8q12 87 47 201l271 938h368l-489 -1454h-399z" />
    <glyph glyph-name="W" unicode="W" horiz-adv-x="1972" 
d="M385 0l-346 1454h348l186 -944q9 -55 13 -121h6q5 68 16 121l205 944h346l207 -944q11 -53 16 -121h7q4 76 12 121l186 944h348l-346 -1454h-387l-201 987q-5 30 -10 107h-8q-2 -58 -12 -107l-201 -987h-385z" />
    <glyph glyph-name="X" unicode="X" horiz-adv-x="1431" 
d="M18 0l482 756l-453 698h383l240 -407q27 -47 43 -93h4q12 40 43 93l246 407h374l-450 -719l485 -735h-389l-264 430q-45 67 -57 107h-5q-11 -42 -53 -105l-254 -432h-375z" />
    <glyph glyph-name="Y" unicode="Y" horiz-adv-x="1302" 
d="M477 0v526l-483 928h364l256 -536q28 -58 35 -107h4q7 49 35 107l254 536h367l-484 -928v-526h-348z" />
    <glyph glyph-name="Z" unicode="Z" horiz-adv-x="1245" 
d="M72 250l700 936h-672v268h1067v-250l-696 -938h727v-266h-1126v250z" />
    <glyph glyph-name="underscore" unicode="_" horiz-adv-x="960" 
d="M0 -182h961v-183h-961v183z" />
    <glyph glyph-name="a" unicode="a" horiz-adv-x="1173" 
d="M406 -25q-157 0 -255 83t-98 221q0 147 105 221q101 71 321 100l248 35v35q0 168 -152 168t-163 -152h-326q12 170 142 266q132 97 350 97q248 0 362 -102q115 -103 115 -322v-340q0 -188 28 -285h-319q-11 58 -16 162q-39 -86 -132 -136q-94 -51 -210 -51zM528 184
q94 0 152 58q57 57 57 149v82l-176 -29q-176 -33 -176 -141q0 -53 39 -86t104 -33z" />
    <glyph glyph-name="b" unicode="b" horiz-adv-x="1259" 
d="M770 -25q-104 0 -187 49q-82 48 -122 132l-21 -156h-293v1485h330v-600q41 77 120 120q80 44 183 44q189 0 300 -147q112 -148 112 -390t-115 -390q-114 -147 -307 -147zM659 203q95 0 145 80t50 229q0 146 -50 228q-49 81 -147 79q-89 0 -138 -70q-50 -71 -50 -194v-86
q0 -125 50 -196q49 -70 140 -70z" />
    <glyph glyph-name="c" unicode="c" horiz-adv-x="1140" 
d="M598 -25q-244 0 -391 147q-148 148 -148 390q0 249 146 393t397 144q201 0 329 -95t156 -268l-309 -63q-28 184 -184 184q-96 0 -148 -76q-53 -77 -53 -209q0 -144 53 -224q52 -79 150 -79q155 0 184 191l307 -68q-27 -169 -159 -267q-135 -100 -330 -100z" />
    <glyph glyph-name="d" unicode="d" horiz-adv-x="1259" 
d="M475 -25q-185 0 -297 147q-112 146 -112 386q0 245 117 392q119 149 311 149q210 0 288 -162v598h328v-1485h-311v176q-39 -92 -125 -146q-87 -55 -199 -55zM604 203q84 0 133 69q49 68 49 191v88q0 130 -49 200t-137 70q-94 0 -145 -80q-52 -81 -52 -227q0 -143 54 -228
q53 -83 147 -83z" />
    <glyph glyph-name="e" unicode="e" horiz-adv-x="1150" 
d="M1081 537v-99h-710q1 -104 66 -166q64 -61 169 -61q152 0 223 143l242 -110q-62 -128 -185 -198q-125 -71 -284 -71q-253 0 -398 140t-145 387q0 252 141 399q142 148 380 148q239 0 371 -135q130 -133 130 -377zM764 623v8q0 110 -49 166q-49 57 -142 57t-146 -60
q-51 -59 -56 -171h393z" />
    <glyph glyph-name="f" unicode="f" horiz-adv-x="800" 
d="M764 1024v-219h-238v-805h-327v805h-164v219h164v96q0 183 103 280t298 97q88 0 164 -18v-236q-54 10 -100 10q-138 0 -138 -141v-88h238z" />
    <glyph glyph-name="g" unicode="g" horiz-adv-x="1169" 
d="M1147 977q-54 10 -94 10q-84 0 -133 -37q118 -91 118 -243q0 -159 -126 -253q-128 -96 -341 -96q-116 0 -211 31q-30 -21 -30 -55q0 -84 141 -84h287q377 0 377 -299q0 -178 -153 -277q-151 -98 -437 -98q-247 0 -376 67q-128 66 -128 179q0 128 176 184
q-139 55 -139 193q0 166 184 233q-160 97 -160 275q0 155 127 248q129 94 342 94q135 0 236 -37q57 186 297 186q21 0 43 -2v-219zM571 526q69 0 114 51q44 50 44 130q0 79 -43 126q-44 48 -115 48t-115 -48q-44 -49 -44 -126q0 -80 44 -130q45 -51 115 -51zM723 -25l-324 2
q-23 0 -73 5q-41 -39 -41 -97q0 -129 274 -129q301 0 301 121q0 98 -137 98z" />
    <glyph glyph-name="h" unicode="h" horiz-adv-x="1257" 
d="M147 0v1485h330v-643q94 211 326 211q334 0 334 -416v-637h-328v604q0 197 -152 197q-180 0 -180 -250v-551h-330z" />
    <glyph glyph-name="i" unicode="i" horiz-adv-x="604" 
d="M131 1171v299h342v-299h-342zM137 0v1024h330v-1024h-330z" />
    <glyph glyph-name="j" unicode="j" horiz-adv-x="614" 
d="M141 1171v299h342v-299h-342zM84 -414q-87 0 -154 13v235q31 -4 88 -4q74 0 103 36q29 37 29 136v1022h327v-1044q0 -194 -89 -294t-304 -100z" />
    <glyph glyph-name="k" unicode="k" horiz-adv-x="1216" 
d="M834 0l-244 414l-113 -121v-293h-330v1485h330v-862l332 401h381l-373 -408l383 -616h-366z" />
    <glyph glyph-name="l" unicode="l" horiz-adv-x="624" 
d="M477 1485v-1485h-330v1485h330z" />
    <glyph glyph-name="m" unicode="m" horiz-adv-x="1822" 
d="M137 1024h316v-184q99 211 315 211q214 0 291 -213q108 213 327 213q150 0 233 -101t83 -280v-670h-328v600q0 199 -137 199q-154 0 -154 -211v-588h-327v602q0 197 -135 197q-73 0 -114 -56q-40 -55 -40 -157v-586h-330v1024z" />
    <glyph glyph-name="n" unicode="n" horiz-adv-x="1247" 
d="M137 0v1024h316v-197q107 224 340 224q333 0 333 -416v-635h-327v590q0 209 -154 209q-85 0 -132 -64q-46 -62 -46 -182v-553h-330z" />
    <glyph glyph-name="o" unicode="o" horiz-adv-x="1181" 
d="M590 -25q-232 0 -382 142q-149 141 -149 397q0 255 148 395t383 140t384 -140q148 -139 148 -395t-148 -397q-150 -142 -384 -142zM590 203q205 0 205 311q0 307 -205 307q-203 0 -203 -307q0 -152 53 -232q52 -79 150 -79z" />
    <glyph glyph-name="p" unicode="p" horiz-adv-x="1249" 
d="M137 -399v1423h316v-164q99 189 319 189q187 0 298 -146q112 -147 112 -389q0 -244 -116 -392q-116 -147 -306 -147q-184 0 -293 154v-528h-330zM651 203q91 0 142 84t51 227q0 147 -50 227t-145 80q-91 0 -140 -73q-50 -74 -50 -211v-58q0 -127 52 -201q53 -75 140 -75z
" />
    <glyph glyph-name="q" unicode="q" horiz-adv-x="1249" 
d="M782 -399v559q-92 -185 -309 -185q-182 0 -295 147q-112 146 -112 386q0 248 118 394q118 147 314 147q221 0 301 -177l26 152h285v-1423h-328zM598 203q86 0 137 70q51 71 51 192v94q0 123 -50 193q-50 69 -140 69q-92 0 -142 -80q-51 -82 -51 -227q0 -144 52 -228
q51 -83 143 -83z" />
    <glyph glyph-name="r" unicode="r" horiz-adv-x="843" 
d="M446 760q84 289 342 289h21v-314q-28 2 -61 2q-128 0 -199 -61q-82 -78 -82 -258v-418h-330v1024h309v-264z" />
    <glyph glyph-name="s" unicode="s" horiz-adv-x="1038" 
d="M537 -25q-358 0 -508 246l190 144q108 -166 324 -166q159 0 159 90q0 45 -30 66q-32 22 -115 34l-147 21q-326 50 -326 315q0 150 120 237t331 87q153 0 278 -55q123 -54 186 -148l-170 -154q-122 137 -305 137q-143 0 -143 -84q0 -36 28 -58q29 -23 93 -30l182 -28
q160 -23 232 -102q73 -81 73 -214q0 -157 -120 -247q-121 -91 -332 -91z" />
    <glyph glyph-name="t" unicode="t" horiz-adv-x="811" 
d="M10 805v219h178v246l328 127v-373h244v-219h-244v-399q0 -156 150 -156q45 0 94 10v-260q-103 -20 -187 -20q-385 0 -385 348v477h-178z" />
    <glyph glyph-name="u" unicode="u" horiz-adv-x="1234" 
d="M465 -25q-344 0 -344 385v664h328v-606q0 -193 147 -193q79 0 126 59q46 58 46 154v586h330v-1024h-314v186q-37 -97 -122 -154q-86 -57 -197 -57z" />
    <glyph glyph-name="v" unicode="v" horiz-adv-x="1089" 
d="M365 0l-357 1024h338l166 -604q14 -45 31 -146h4q17 101 31 146l165 604h338l-358 -1024h-358z" />
    <glyph glyph-name="w" unicode="w" horiz-adv-x="1593" 
d="M305 0l-274 1024h313l129 -627q0 -3 6 -41q7 -44 8 -57h5q7 63 16 98l149 627h279l149 -627q12 -56 17 -98h4q7 65 14 98l127 627h314l-273 -1024h-319l-156 604q-9 29 -14 86h-4q-4 -35 -15 -86l-155 -604h-320z" />
    <glyph glyph-name="x" unicode="x" horiz-adv-x="1155" 
d="M18 0l371 532l-348 492h365l124 -205q40 -64 50 -104h4q16 52 51 104l121 205h346l-342 -487l377 -537h-367l-149 233q-47 70 -54 107h-4q-13 -40 -55 -107l-152 -233h-338z" />
    <glyph glyph-name="y" unicode="y" horiz-adv-x="1101" 
d="M209 -414q-20 0 -135 13v241q74 -10 114 -10q82 0 129 32t68 101l14 43l-391 1018h357l180 -623q16 -58 22 -118h6q1 34 25 118l166 623h330l-367 -1069q-68 -198 -189 -283q-122 -86 -329 -86z" />
    <glyph glyph-name="z" unicode="z" horiz-adv-x="987" 
d="M45 193l487 600h-462v231h845v-186l-473 -602h504v-236h-901v193z" />
    <glyph glyph-name="guillemotleft" unicode="&#xab;" horiz-adv-x="1165" 
d="M369 137l-334 428l340 422h282l-333 -420l329 -430h-284zM842 137l-334 428l340 422h282l-333 -420l329 -430h-284z" />
    <glyph glyph-name="guillemotright" unicode="&#xbb;" horiz-adv-x="1165" 
d="M324 137h-285l330 430l-334 420h282l340 -422zM797 137h-285l330 430l-334 420h283l339 -422z" />
    <glyph glyph-name="Adieresis" unicode="&#xc4;" horiz-adv-x="1507" 
d="M657 1778v-236h-272v236h272zM1122 1778v-236h-272v236h272zM1133 0l-111 340h-537l-110 -340h-346l528 1454h395l529 -1454h-348zM565 584h377l-133 405q-37 116 -53 205h-4q-15 -81 -54 -205z" />
    <glyph glyph-name="Odieresis" unicode="&#xd6;" horiz-adv-x="1552" 
d="M408 1542v236h272v-236h-272zM872 1542v236h273v-236h-273zM776 -35q-327 0 -522 206q-195 205 -195 556t195 556q195 206 522 206t522 -206q195 -205 195 -556t-195 -556q-195 -206 -522 -206zM776 236q171 0 265 130q96 133 96 361q0 229 -96 362q-94 130 -265 130
q-170 0 -266 -130q-96 -131 -96 -362q0 -229 96 -360t266 -131z" />
    <glyph glyph-name="Udieresis" unicode="&#xdc;" horiz-adv-x="1486" 
d="M375 1542v236h272v-236h-272zM840 1542v236h272v-236h-272zM127 1454h346v-932q0 -130 72 -203t198 -73q127 0 199 73t72 203v932h346v-946q0 -249 -164 -396t-453 -147t-452 147q-164 147 -164 396v946z" />
    <glyph glyph-name="adieresis" unicode="&#xe4;" horiz-adv-x="1173" 
d="M219 1174v272h285v-272h-285zM670 1174v272h284v-272h-284zM406 -25q-157 0 -255 83t-98 221q0 147 105 221q101 71 321 100l248 35v35q0 168 -152 168t-163 -152h-326q12 170 142 266q132 97 350 97q248 0 362 -102q115 -103 115 -322v-340q0 -188 28 -285h-319
q-11 58 -16 162q-39 -86 -132 -136q-94 -51 -210 -51zM528 184q94 0 152 58q57 57 57 149v82l-176 -29q-176 -33 -176 -141q0 -53 39 -86t104 -33z" />
    <glyph glyph-name="odieresis" unicode="&#xf6;" horiz-adv-x="1181" 
d="M223 1174v272h285v-272h-285zM674 1174v272h284v-272h-284zM590 -25q-232 0 -382 142q-149 141 -149 397q0 255 148 395t383 140t384 -140q148 -139 148 -395t-148 -397q-150 -142 -384 -142zM590 203q205 0 205 311q0 307 -205 307q-203 0 -203 -307q0 -152 53 -232
q52 -79 150 -79z" />
    <glyph glyph-name="udieresis" unicode="&#xfc;" horiz-adv-x="1234" 
d="M242 1174v272h284v-272h-284zM692 1174v272h285v-272h-285zM465 -25q-344 0 -344 385v664h328v-606q0 -193 147 -193q79 0 126 59q46 58 46 154v586h330v-1024h-314v186q-37 -97 -122 -154q-86 -57 -197 -57z" />
    <glyph glyph-name="quoteleft" unicode="&#x2018;" 
d="M383 1509l68 -135q-88 -29 -117 -67q-31 -40 -31 -111v-4h164v-336h-350v318q0 131 62 211t204 124z" />
    <glyph glyph-name="quoteright" unicode="&#x2019;" 
d="M201 801l-68 135q87 29 117 68q31 40 31 110v4h-164v336h350v-317q0 -131 -63 -212t-203 -124z" />
    <glyph glyph-name="quotesinglbase" unicode="&#x201a;" 
d="M201 -317l-68 135q88 29 117 67q31 40 31 111v4h-164v336h350v-318q0 -131 -63 -212q-62 -79 -203 -123z" />
    <glyph glyph-name="quotedblleft" unicode="&#x201c;" horiz-adv-x="1026" 
d="M383 1509l68 -135q-88 -29 -117 -67q-31 -40 -31 -111v-4h164v-336h-350v318q0 131 62 211t204 124zM825 1509l68 -135q-88 -29 -117 -67q-31 -40 -31 -111v-4h164v-336h-350v318q0 130 63 211t203 124z" />
    <glyph glyph-name="quotedblright" unicode="&#x201d;" horiz-adv-x="1026" 
d="M201 803l-68 135q87 29 117 68q31 40 31 110v4h-164v336h350v-317q0 -131 -63 -212t-203 -124zM643 803l-68 135q87 29 117 68q31 40 31 110v4h-164v336h350v-317q0 -132 -62 -212t-204 -124z" />
    <glyph glyph-name="quotedblbase" unicode="&#x201e;" horiz-adv-x="1026" 
d="M201 -315l-68 135q88 29 117 67q31 40 31 111v4h-164v336h350v-318q0 -130 -63 -211t-203 -124zM643 -315l-68 135q88 29 117 67q31 40 31 111v4h-164v336h350v-318q0 -131 -62 -211t-204 -124z" />
    <glyph glyph-name="ellipsis" unicode="&#x2026;" horiz-adv-x="1738" 
d="M467 328v-328h-350v328h350zM1044 328v-328h-350v328h350zM1622 328v-328h-350v328h350z" />
    <glyph glyph-name="arrowleft" unicode="&#x2190;" horiz-adv-x="2099" 
d="M1946 592h-1393v-217l-401 301l401 301v-217h1393v-168z" />
    <glyph glyph-name="arrowup" unicode="&#x2191;" horiz-adv-x="907" 
d="M365 -72v1207h-213l303 401l301 -401h-211v-1207h-180z" />
    <glyph glyph-name="arrowright" unicode="&#x2192;" horiz-adv-x="2099" 
d="M154 760h1392v217l402 -301l-402 -301v217h-1392v168z" />
    <glyph glyph-name="arrowdown" unicode="&#x2193;" horiz-adv-x="907" 
d="M543 1526v-1207h213l-303 -401l-301 401h210v1207h181z" />
    <glyph glyph-name="arrowboth" unicode="&#x2194;" horiz-adv-x="2099" 
d="M1544 592h-991v-217l-401 301l401 301v-217h991v217l402 -301l-402 -301v217z" />
    <glyph glyph-name="arrowupdn" unicode="&#x2195;" horiz-adv-x="907" 
d="M152 319h213v816h-213l303 401l301 -401h-211v-816h211l-301 -401z" />
    <glyph glyph-name="uni2196" unicode="&#x2196;" horiz-adv-x="1796" 
d="M344 1137l-192 -201v518h491l-176 -190l1178 -1178l-121 -129z" />
    <glyph glyph-name="uni2197" unicode="&#x2197;" horiz-adv-x="1796" 
d="M1452 1139l-1180 -1180l-120 129l1177 1178l-176 190h492v-518z" />
    <glyph glyph-name="uni2198" unicode="&#x2198;" horiz-adv-x="1796" 
d="M1452 340l193 201v-518h-492l176 190l-1177 1178l120 129z" />
    <glyph glyph-name="uni2199" unicode="&#x2199;" horiz-adv-x="1796" 
d="M344 340l1180 1180l121 -129l-1178 -1178l176 -190h-491v518z" />
    <glyph glyph-name="uni21A9" unicode="&#x21a9;" horiz-adv-x="1964" 
d="M553 375l-401 301l401 301v-217h782q134 0 210 64q77 65 77 186q0 123 -77 186q-78 64 -210 64h-456v167h479q213 0 333 -107q121 -108 121 -308q0 -199 -121 -310q-120 -110 -333 -110h-805v-217z" />
    <glyph glyph-name="uni21AA" unicode="&#x21aa;" horiz-adv-x="1964" 
d="M1411 375v217h-805q-213 0 -333 110q-121 111 -121 310q0 200 121 308q120 107 333 107h479v-167h-456q-132 0 -210 -64q-77 -63 -77 -186q0 -121 77 -186q76 -64 210 -64h782v217l401 -301z" />
    <glyph glyph-name="uni21B0" unicode="&#x21b0;" horiz-adv-x="1660" 
d="M1329 0v1145h-776v-217l-401 301l401 301v-217h956v-1313h-180z" />
    <glyph glyph-name="uni21B1" unicode="&#x21b1;" horiz-adv-x="1660" 
d="M332 0h-180v1313h956v217l401 -301l-401 -301v217h-776v-1145z" />
    <glyph glyph-name="uni21B2" unicode="&#x21b2;" horiz-adv-x="1660" 
d="M1329 1454h180v-1313h-956v-217l-401 301l401 301v-217h776v1145z" />
    <glyph glyph-name="uni21B3" unicode="&#x21b3;" horiz-adv-x="1660" 
d="M332 1454v-1145h776v217l401 -301l-401 -301v217h-956v1313h180z" />
    <glyph glyph-name="uni21B4" unicode="&#x21b4;" horiz-adv-x="1832" 
d="M1473 1481v-1141h208l-301 -401l-301 401h213v973h-1140v168h1321z" />
    <glyph glyph-name="uni21BB" unicode="&#x21bb;" horiz-adv-x="2060" 
d="M1608 385l-303 401h215q-22 239 -189 386q-166 147 -401 147q-251 0 -418 -163q-168 -164 -168 -429t168 -432q167 -166 418 -166q267 0 456 201l117 -137q-237 -242 -573 -242q-323 0 -551 216q-227 215 -227 556q0 342 226 558t552 216q308 0 528 -197t242 -514h209z
" />
    <glyph glyph-name="uni21C4" unicode="&#x21c4;" horiz-adv-x="2164" 
d="M1845 829h-1292v-217l-401 301l401 301v-217h1292v-168zM1612 520v219l401 -303l-401 -301v217h-1288v168h1288z" />
    <glyph glyph-name="uni21C5" unicode="&#x21c5;" horiz-adv-x="1404" 
d="M860 33v1102h-211l301 401l301 -401h-211v-1102h-180zM455 -82l-303 401h213v1117h180v-1117h211z" />
    <glyph glyph-name="g.ss01" horiz-adv-x="1249" 
d="M590 -424q-236 0 -358 87t-140 274h320q27 -152 184 -152q190 1 190 227v176q-76 -186 -288 -186q-192 0 -313 148q-119 146 -119 380q0 238 120 377q122 142 320 142q101 0 180 -47q78 -46 115 -130l28 152h281v-993q0 -455 -520 -455zM598 215q86 0 137 72t51 190v92
q0 114 -51 183t-133 69q-93 0 -146 -77t-53 -222q0 -134 54 -222q52 -85 141 -85z" />
    <glyph glyph-name="gbreve.ss01" horiz-adv-x="1249" 
d="M489 1481q5 -79 42 -123q37 -43 108 -43q141 0 147 166h207q-7 -168 -102 -249t-252 -81q-159 0 -253 81q-96 82 -103 249h206zM590 -424q-236 0 -358 87t-140 274h320q27 -152 184 -152q190 1 190 227v176q-76 -186 -288 -186q-192 0 -313 148q-119 146 -119 380
q0 238 120 377q122 142 320 142q101 0 180 -47q78 -46 115 -130l28 152h281v-993q0 -455 -520 -455zM598 215q86 0 137 72t51 190v92q0 114 -51 183t-133 69q-93 0 -146 -77t-53 -222q0 -134 54 -222q52 -85 141 -85z" />
    <glyph glyph-name="gcircumflex.ss01" horiz-adv-x="1249" 
d="M1018 1161h-238l-143 215l-141 -215h-240l217 320h328zM590 -424q-236 0 -358 87t-140 274h320q27 -152 184 -152q190 1 190 227v176q-76 -186 -288 -186q-192 0 -313 148q-119 146 -119 380q0 238 120 377q122 142 320 142q101 0 180 -47q78 -46 115 -130l28 152h281
v-993q0 -455 -520 -455zM598 215q86 0 137 72t51 190v92q0 114 -51 183t-133 69q-93 0 -146 -77t-53 -222q0 -134 54 -222q52 -85 141 -85z" />
    <glyph glyph-name="g.sups.ss01" horiz-adv-x="997" 
d="M469 326q-189 0 -283 64q-93 64 -104 204h254q6 -52 44 -79t95 -26q131 2 131 148v129q-56 -123 -217 -123q-142 0 -234 106t-92 273q0 173 91 276t243 103q169 0 224 -129l14 110h248v-718q0 -338 -414 -338zM481 813q59 0 93 43t34 119v78q0 72 -35 119t-88 47
q-133 0 -133 -203q0 -92 35 -148q34 -55 94 -55z" />
    <glyph glyph-name="uni21BB.alt" horiz-adv-x="2052" 
d="M1784 786h209l-303 -401l-301 401h213q-12 244 -166 389q-153 144 -396 144q-254 0 -471 -195l-112 133q253 240 600 240q302 0 508 -197q204 -195 219 -514zM1006 129q256 0 473 195l112 -134q-252 -239 -602 -239q-301 0 -506 193q-204 192 -219 509h-205l301 402
l304 -402h-218q15 -237 169 -381q153 -143 391 -143z" />
    <glyph glyph-name="arrowup.ss03" horiz-adv-x="1638" 
d="M680 1042l-350 -387l-178 213l669 668l666 -668l-172 -213l-359 387v-1114h-276v1114z" />
    <glyph glyph-name="uni2197.ss03" horiz-adv-x="1826" 
d="M1415 1001l-1061 -1083l-200 209l1075 1077l-510 -8v258h956v-958h-266z" />
    <glyph glyph-name="arrowright.ss03" horiz-adv-x="2109" 
d="M1468 543h-1314v262h1314l-391 364l211 174l670 -667l-670 -670l-213 180z" />
    <glyph glyph-name="uni2198.ss03" horiz-adv-x="1826" 
d="M1415 428l-6 506h266v-959h-956v258l510 -8l-1075 1078l200 208z" />
    <glyph glyph-name="arrowdown.ss03" horiz-adv-x="1638" 
d="M680 412v1114h276v-1114l359 387l172 -213l-666 -668l-669 668l178 213z" />
    <glyph glyph-name="uni2199.ss03" horiz-adv-x="1826" 
d="M412 428l1061 1083l200 -208l-1075 -1078l510 8v-258h-956v959h266z" />
    <glyph glyph-name="arrowleft.ss03" horiz-adv-x="2109" 
d="M641 543l393 -357l-213 -180l-669 670l669 667l211 -174l-391 -364h1315v-262h-1315z" />
    <glyph glyph-name="uni2196.ss03" horiz-adv-x="1826" 
d="M412 1001l6 -505h-266v958h956v-258l-510 8l1075 -1077l-200 -209z" />
    </font>
</defs>
</svg>
