<svg xmlns="http://www.w3.org/2000/svg" width="150.308" height="155.717" viewBox="0 0 150.308 155.717">
  <g id="Group_120" data-name="Group 120" transform="translate(-249.652 -3083.19)">
    <path id="Path_136" data-name="Path 136" d="M317.363,3174.625H285.315c-19.7,0-35.663,21.086-35.663,47.1v1.986c0,8.394,5.471,15.2,12.221,15.2H340.8c6.75,0,12.221-6.8,12.221-15.2v-1.986C353.026,3195.711,337.06,3174.625,317.363,3174.625Z" fill="#fff"/>
    <circle id="Ellipse_20" data-name="Ellipse 20" cx="29.819" cy="29.819" r="29.819" transform="translate(272.189 3122.268)" fill="#fff" stroke="orange" stroke-miterlimit="10" stroke-width="3"/>
    <g id="Group_113" data-name="Group 113">
      <g id="Group_112" data-name="Group 112">
        <path id="Path_137" data-name="Path 137" d="M399.947,3111.783a29.569,29.569,0,0,0-59.083-.539c-.013.428-.027.858-.027,1.286a29.107,29.107,0,0,0,4.235,15.155l-5.329,15.736,16.373-5.2a29.6,29.6,0,0,0,43.844-25.687C399.96,3112.281,399.96,3112.032,399.947,3111.783Zm-29.548,25.41a24.756,24.756,0,0,1-13.674-4.083l-9.55,3.045,3.1-9.162a24.42,24.42,0,0,1-4.733-14.463,23.212,23.212,0,0,1,.124-2.394,24.866,24.866,0,0,1,49.505.47c.056.638.084,1.274.084,1.924A24.787,24.787,0,0,1,370.4,3137.193Z" fill="#fff" fill-rule="evenodd"/>
        <path id="Path_138" data-name="Path 138" d="M383.948,3118.453c-.733-.359-4.291-2.1-4.955-2.338s-1.149-.36-1.633.36-1.882,2.338-2.3,2.809-.843.54-1.577.18a19.6,19.6,0,0,1-5.827-3.571,21.472,21.472,0,0,1-4.027-4.968c-.415-.72-.042-1.107.318-1.467.332-.332.72-.844,1.093-1.259.1-.125.18-.236.263-.347a8.028,8.028,0,0,0,.457-.858,1.3,1.3,0,0,0-.055-1.259c-.18-.36-1.633-3.9-2.243-5.343-.594-1.438-1.2-1.19-1.632-1.19s-.9-.069-1.384-.069a2.681,2.681,0,0,0-1.938.9,8.057,8.057,0,0,0-2.532,6.007,9.148,9.148,0,0,0,.373,2.45,16.359,16.359,0,0,0,2.588,4.983c.36.47,5.01,7.971,12.373,10.864,7.376,2.865,7.376,1.909,8.7,1.785s4.291-1.73,4.885-3.418a5.948,5.948,0,0,0,.43-3.419C385.152,3118.994,384.667,3118.813,383.948,3118.453Z" fill="#fff" fill-rule="evenodd"/>
      </g>
    </g>
    <g id="Group_119" data-name="Group 119">
      <g id="Group_115" data-name="Group 115">
        <g id="Group_114" data-name="Group 114">
          <path id="Path_139" data-name="Path 139" d="M342.212,3182.741l4.963-12.429a8.834,8.834,0,0,1-.248-2.022v-10.029a9.418,9.418,0,0,1,9.408-9.408h25a9.419,9.419,0,0,1,9.41,9.408v10.029a9.42,9.42,0,0,1-9.41,9.411H357.349Z" fill="#fff"/>
        </g>
      </g>
      <g id="Group_116" data-name="Group 116">
        <circle id="Ellipse_21" data-name="Ellipse 21" cx="3.522" cy="3.522" r="3.522" transform="translate(354.965 3158.653)" fill="orange"/>
      </g>
      <g id="Group_117" data-name="Group 117">
        <circle id="Ellipse_22" data-name="Ellipse 22" cx="3.522" cy="3.522" r="3.522" transform="translate(365.092 3158.653)" fill="orange"/>
      </g>
      <g id="Group_118" data-name="Group 118">
        <circle id="Ellipse_23" data-name="Ellipse 23" cx="3.522" cy="3.522" r="3.522" transform="translate(375.22 3158.653)" fill="orange"/>
      </g>
    </g>
  </g>
</svg>
