<svg xmlns="http://www.w3.org/2000/svg" width="125.366" height="126.601" viewBox="0 0 125.366 126.601">
  <g id="Group_157" data-name="Group 157" transform="translate(-220.726 -3112.28)">
    <path id="Path_167" data-name="Path 167" d="M286.47,3125.7l-1.643,104.382c0,10.756-2.834,12.668-2.834,0l-1.64-104.382a7.06,7.06,0,1,1,6.117,0" fill="#fff" fill-rule="evenodd"/>
    <path id="Path_168" data-name="Path 168" d="M288.6,3128.229v16.427l2.23.585c2.318.672,5.719,1.946,8.016.739a2.906,2.906,0,0,0,1.35-1.09,5.859,5.859,0,0,0,5.463.444c1.606-.822,2.1-2.656,2.5-4.238a9.458,9.458,0,0,0,2.945,1.542,9.291,9.291,0,0,0,2.768.439,8.485,8.485,0,0,0,2.137-.184,5.934,5.934,0,0,0,4.823-5.24,8.427,8.427,0,0,0,6.888-.672,4.381,4.381,0,0,0,1.986-4.116c5.758,1.393,13.452-.848,16.387-6.3H319.5a44.382,44.382,0,0,1-12.136-1.6c-2.244-.63-4.155-1.632-6.433-2.281a10.159,10.159,0,0,0-3.348-.449,5.183,5.183,0,0,0-2.483.707c-1.746,1.034-1.281,2.151-2.2,3.438-1.369,1.922-1.741,2.193-4.29,1.85" fill="#fff" fill-rule="evenodd"/>
    <path id="Path_169" data-name="Path 169" d="M278.214,3128.229v16.427c-.736.194-1.484.391-2.228.585-2.316.672-5.718,1.946-8.013.739a2.914,2.914,0,0,1-1.353-1.09,5.853,5.853,0,0,1-5.461.444c-1.605-.822-2.1-2.656-2.5-4.238a9.478,9.478,0,0,1-2.951,1.542,9.26,9.26,0,0,1-2.759.439,8.531,8.531,0,0,1-2.143-.184,5.925,5.925,0,0,1-4.817-5.24,8.442,8.442,0,0,1-6.894-.672,4.393,4.393,0,0,1-1.986-4.116c-5.756,1.393-13.455-.848-16.387-6.3h26.6a44.356,44.356,0,0,0,12.136-1.6c2.246-.63,4.161-1.632,6.436-2.281a10.171,10.171,0,0,1,3.353-.449,5.182,5.182,0,0,1,2.477.707c1.75,1.034,1.279,2.151,2.2,3.438,1.372,1.922,1.741,2.193,4.288,1.85" fill="#fff" fill-rule="evenodd"/>
    <path id="Path_170" data-name="Path 170" d="M271.744,3148.578c-2.9-.543-7.9.159-10.4,1.917-2.223,1.555-2.879,3.772-2.776,6.369a8.547,8.547,0,0,0,2.5,5.485c7.292,8.332,16.089,6.527,25.022,8.587,8,1.845,4.36,5.947-.463,8.457-1.762.922-3.623,1.675-5.4,2.584-.648.332-1.289.675-1.927,1.023-1.537.835-3.352,1.545-4.91,2.539-4.028,2.568-4.36,6.846-2.2,10.8,1.09,2,2.757,2.985,5.075,3.818,2.183.789,4.487,1.26,6.665,2.2a8.056,8.056,0,0,1,2.993,2.01,2.925,2.925,0,0,1,.505,1.114,8.556,8.556,0,0,1-1.127,5.357c-2.384,4.57-12.189,14.029-12.551,15.053,1.471.327,3.379-.753,3.627-.894,3.509-1.991,8.031-6.412,9.158-7.451,2.457-2.26,7.048-7.184,7.468-10.674.864-7.2-5.463-8.146-10.525-10.167a8.461,8.461,0,0,1-4.4-3.4,3.536,3.536,0,0,1-.1-3.594c1.75-3.185,5.333-3.467,8.643-4.456,4.145-1.242,8.422-2.007,10.783-5.495,6.482-9.571-6.407-16.59-15.486-16.983-4.62-.2-11.766-.619-15.762-3.794-1.2-.954-2.13-2.432-1.066-3.857a1.547,1.547,0,0,1,1.731-.548c.624.157,2.81,2.029,3.961,2.531a7.617,7.617,0,0,0,6.152.112c1.571-.694,1.286-2.677.521-4.358a7.326,7.326,0,0,0-3.005-3.294,8.456,8.456,0,0,0-2.7-.991" fill="#fff" fill-rule="evenodd"/>
    <path id="Path_171" data-name="Path 171" d="M274.185,3151.935c-.71-.346-1.471-.388-1.7-.1s.149.806.854,1.152,1.467.388,1.7.1-.152-.806-.853-1.151" fill="#fff" fill-rule="evenodd"/>
    <path id="Path_172" data-name="Path 172" d="M277.113,3157.129c-.978-.407-2.571-.894-3.182-1.774.306.811,1.388,1.484,1.694,2.292a6.031,6.031,0,0,0,1.488-.518" fill="#fff" fill-rule="evenodd"/>
    <path id="Path_173" data-name="Path 173" d="M295.074,3148.577c2.9-.543,7.9.162,10.4,1.917,2.219,1.555,2.876,3.772,2.772,6.372a8.556,8.556,0,0,1-2.5,5.482c-7.29,8.334-16.087,6.527-25.022,8.59-8,1.842-4.363,5.947.46,8.454,1.765.922,3.626,1.675,5.4,2.586.648.33,1.292.676,1.927,1.024,1.539.832,3.353,1.545,4.916,2.539,4.022,2.571,4.354,6.843,2.2,10.8-1.087,2-2.754,2.985-5.069,3.823-2.183.787-4.5,1.255-6.673,2.19a8.073,8.073,0,0,0-2.988,2.013,3,3,0,0,0-.508,1.114,8.572,8.572,0,0,0,1.127,5.354c2.39,4.57,12.189,14.029,12.553,15.055-1.47.33-3.378-.757-3.628-.893-3.507-1.991-8.026-6.412-9.156-7.452-2.457-2.262-7.045-7.183-7.465-10.676-.867-7.2,5.463-8.143,10.519-10.167a8.488,8.488,0,0,0,4.4-3.392,3.557,3.557,0,0,0,.1-3.6c-1.749-3.182-5.333-3.466-8.648-4.455-4.142-1.239-8.417-2-10.775-5.493-6.481-9.57,6.407-16.589,15.481-16.982,4.62-.2,11.767-.623,15.762-3.794,1.207-.955,2.13-2.435,1.072-3.86a1.553,1.553,0,0,0-1.736-.545c-.622.154-2.813,2.025-3.959,2.531a7.634,7.634,0,0,1-6.154.109c-1.566-.692-1.29-2.675-.521-4.358a7.361,7.361,0,0,1,3.006-3.291,8.439,8.439,0,0,1,2.7-.994" fill="#fff" fill-rule="evenodd"/>
    <path id="Path_174" data-name="Path 174" d="M292.639,3151.935c.707-.346,1.464-.388,1.7-.1s-.149.806-.858,1.152-1.463.388-1.7.1.148-.806.856-1.151" fill="#fff" fill-rule="evenodd"/>
    <path id="Path_175" data-name="Path 175" d="M289.708,3157.129c.981-.407,2.568-.894,3.182-1.774-.3.811-1.391,1.484-1.694,2.292a5.974,5.974,0,0,1-1.488-.518" fill="#fff" fill-rule="evenodd"/>
    <path id="Path_176" data-name="Path 176" d="M276.929,3153.334a.6.6,0,0,0-.072.032c.022-.011.048-.021.072-.032" fill="#fff" fill-rule="evenodd"/>
  </g>
</svg>
