
<svg id="logo_horiz_tagline" data-name="Layer 4" xmlns="http://www.w3.org/2000/svg" width="250px" height="100%" viewBox="0 0 275.53 113.25" >
  <defs/>
  <style>
    .st0{fill:#00adbc}
	.st1{fill:#ffa500}
  </style>
  <path d="M113.24 82.84c.61.53.91 1.24.91 2.14s-.3 1.61-.91 2.14c-.61.53-1.43.8-2.45.8h-2.19v4.05h-1.33v-9.91h3.52c1.02-.01 1.84.25 2.45.78zm-1.06 3.46c.38-.33.57-.77.57-1.32s-.19-.99-.57-1.32-.89-.5-1.54-.5h-2.05v3.63h2.05c.65 0 1.16-.16 1.54-.49zM115.76 91.57c-.43-.37-.64-.87-.64-1.49 0-.74.33-1.28.98-1.65.5-.25 1.28-.44 2.35-.57l1.3-.15v-.11c0-.64-.12-1.1-.36-1.38-.24-.28-.63-.42-1.17-.42-.47 0-.85.12-1.13.36s-.43.58-.46 1.02h-1.27c.05-.72.33-1.29.84-1.72s1.18-.64 2-.64c.96 0 1.66.23 2.09.69.44.46.66 1.2.66 2.21v1.88c0 1.06.08 1.85.24 2.36h-1.24c-.06-.39-.09-.81-.11-1.27-.16.45-.45.8-.87 1.05s-.91.38-1.48.38c-.72.01-1.3-.18-1.73-.55zm3.45-1.03c.37-.41.55-.95.55-1.63v-.35l-1.9.28c-.51.07-.89.21-1.12.4-.24.19-.36.46-.36.8s.12.61.36.81.58.29 1 .29c.61.01 1.1-.19 1.47-.6zM122.36 84.98h1.3v-1.83l1.19-.5v2.33h1.75v.98h-1.75v3.87c0 .4.08.69.25.87.16.18.42.27.77.27.21 0 .45-.03.73-.1v1.09c-.31.08-.65.13-1.03.13-.71 0-1.2-.19-1.48-.57s-.42-.93-.42-1.65v-3.91h-1.3v-.98zM128.53 82.18h1.35v1.49h-1.35v-1.49zm.09 2.8h1.19v6.98h-1.19v-6.98zM138.11 88.82h-4.96c.01.68.2 1.23.58 1.64s.88.62 1.5.62c.92 0 1.54-.44 1.86-1.33l.98.43c-.49 1.29-1.47 1.94-2.92 1.94-1 0-1.79-.31-2.35-.93-.56-.62-.84-1.5-.84-2.65 0-1.17.28-2.09.84-2.75.56-.66 1.34-.99 2.33-.99.95 0 1.68.27 2.2.81.52.54.77 1.33.77 2.36v.85zm-1.2-1.12c0-.63-.16-1.12-.47-1.45-.31-.33-.76-.5-1.33-.5-.6 0-1.08.19-1.42.56-.34.37-.52.89-.54 1.55h3.75v-.16zM140.34 84.98h1.12v1.38c.46-1.05 1.23-1.58 2.33-1.58 1.55 0 2.33.94 2.33 2.83v4.34h-1.19v-4.27c0-1.24-.51-1.86-1.54-1.86-.58 0-1.03.22-1.37.66-.33.44-.5 1.05-.5 1.82v3.64h-1.19v-6.96zM147.51 84.98h1.3v-1.83l1.19-.5v2.33h1.75v.98H150v3.87c0 .4.08.69.25.87.16.18.42.27.77.27.21 0 .45-.03.73-.1v1.09c-.31.08-.65.13-1.03.13-.71 0-1.2-.19-1.48-.57s-.42-.93-.42-1.65v-3.91h-1.3v-.98zM158.18 90.73c-.76-.98-1.14-2.23-1.14-3.76 0-1.56.39-2.82 1.17-3.76.78-.94 1.89-1.41 3.34-1.41 1.16 0 2.08.31 2.74.94.66.62 1.06 1.47 1.19 2.54l-1.35.14c-.1-.76-.38-1.37-.83-1.81s-1.05-.67-1.81-.67c-.96 0-1.71.37-2.24 1.1s-.8 1.71-.8 2.92c0 1.2.27 2.18.8 2.94.54.76 1.29 1.14 2.27 1.14.7 0 1.29-.22 1.76-.65.47-.43.78-1.02.92-1.77l1.29.22c-.21 1-.64 1.81-1.29 2.43s-1.55.92-2.67.92c-1.48.01-2.59-.48-3.35-1.46zM167.65 91.57c-.43-.37-.64-.87-.64-1.49 0-.74.33-1.28.98-1.65.5-.25 1.28-.44 2.35-.57l1.3-.15v-.11c0-.64-.12-1.1-.36-1.38-.24-.28-.63-.42-1.17-.42-.47 0-.85.12-1.13.36s-.43.58-.46 1.02h-1.27c.05-.72.33-1.29.84-1.72s1.18-.64 2-.64c.96 0 1.66.23 2.09.69.44.46.66 1.2.66 2.21v1.88c0 1.06.08 1.85.24 2.36h-1.24c-.06-.39-.09-.81-.11-1.27-.16.45-.45.8-.87 1.05s-.91.38-1.48.38c-.73.01-1.3-.18-1.73-.55zm3.44-1.03c.37-.41.55-.95.55-1.63v-.35l-1.9.28c-.51.07-.89.21-1.12.4-.24.19-.36.46-.36.8s.12.61.36.81.58.29 1 .29c.62.01 1.1-.19 1.47-.6zM177.35 85.3c.37-.33.8-.49 1.3-.49.11 0 .2 0 .25.01v1.16h-.06c-.66 0-1.17.18-1.54.54-.21.2-.36.46-.47.77-.11.31-.18.57-.2.8-.02.22-.03.52-.03.88v2.99h-1.19v-6.98h1.1v1.59c.2-.52.48-.95.84-1.27zM186.1 88.82h-4.96c.01.68.2 1.23.58 1.64s.88.62 1.5.62c.92 0 1.54-.44 1.86-1.33l.98.43c-.49 1.29-1.47 1.94-2.92 1.94-1 0-1.79-.31-2.35-.93-.56-.62-.84-1.5-.84-2.65 0-1.17.28-2.09.84-2.75.56-.66 1.34-.99 2.33-.99.95 0 1.68.27 2.2.81.52.54.77 1.33.77 2.36v.85zm-1.2-1.12c0-.63-.16-1.12-.47-1.45-.31-.33-.76-.5-1.33-.5-.6 0-1.08.19-1.42.56-.34.37-.52.89-.54 1.55h3.75v-.16zM198.34 82.84c.61.53.91 1.24.91 2.14s-.3 1.61-.91 2.14c-.61.53-1.43.8-2.45.8h-2.19v4.05h-1.33v-9.91h3.52c1.03-.01 1.84.25 2.45.78zm-1.05 3.46c.38-.33.57-.77.57-1.32s-.19-.99-.57-1.32-.89-.5-1.54-.5h-2.05v3.63h2.05c.65 0 1.16-.16 1.54-.49zM200.87 91.57c-.43-.37-.64-.87-.64-1.49 0-.74.33-1.28.98-1.65.5-.25 1.28-.44 2.35-.57l1.3-.15v-.11c0-.64-.12-1.1-.36-1.38-.24-.28-.63-.42-1.17-.42-.47 0-.85.12-1.13.36s-.43.58-.46 1.02h-1.27c.05-.72.33-1.29.84-1.72s1.18-.64 2-.64c.96 0 1.66.23 2.09.69.44.46.66 1.2.66 2.21v1.88c0 1.06.08 1.85.24 2.36h-1.24c-.06-.39-.09-.81-.11-1.27-.16.45-.45.8-.87 1.05s-.91.38-1.48.38c-.73.01-1.3-.18-1.73-.55zm3.44-1.03c.37-.41.55-.95.55-1.63v-.35l-1.9.28c-.51.07-.89.21-1.12.4-.24.19-.36.46-.36.8s.12.61.36.81.58.29 1 .29c.62.01 1.11-.19 1.47-.6zM210.58 85.3c.37-.33.8-.49 1.3-.49.11 0 .2 0 .25.01v1.16h-.06c-.66 0-1.17.18-1.54.54-.21.2-.36.46-.47.77-.11.31-.18.57-.2.8-.02.22-.03.52-.03.88v2.99h-1.19v-6.98h1.1v1.59c.2-.52.47-.95.84-1.27zM213.25 84.98h1.3v-1.83l1.19-.5v2.33h1.75v.98h-1.75v3.87c0 .4.08.69.24.87.16.18.42.27.78.27.21 0 .45-.03.73-.1v1.09c-.31.08-.65.13-1.03.13-.71 0-1.2-.19-1.48-.57s-.42-.93-.42-1.65v-3.91h-1.3v-.98zM219.5 84.98h1.12v1.38c.46-1.05 1.23-1.58 2.33-1.58 1.55 0 2.33.94 2.33 2.83v4.34h-1.19v-4.27c0-1.24-.51-1.86-1.54-1.86-.58 0-1.03.22-1.37.66-.33.44-.5 1.05-.5 1.82v3.64h-1.19v-6.96zM233.38 88.82h-4.96c.01.68.2 1.23.58 1.64s.88.62 1.5.62c.92 0 1.54-.44 1.86-1.33l.98.43c-.49 1.29-1.47 1.94-2.92 1.94-1 0-1.79-.31-2.35-.93-.56-.62-.84-1.5-.84-2.65 0-1.17.28-2.09.84-2.75.56-.66 1.34-.99 2.33-.99.95 0 1.68.27 2.2.81.52.54.77 1.33.77 2.36v.85zm-1.21-1.12c0-.63-.16-1.12-.47-1.45-.31-.33-.76-.5-1.33-.5-.6 0-1.08.19-1.42.56-.34.37-.52.89-.54 1.55h3.75v-.16zM237.53 85.3c.37-.33.8-.49 1.3-.49.11 0 .2 0 .25.01v1.16h-.06c-.66 0-1.17.18-1.54.54-.21.2-.36.46-.47.77-.11.31-.18.57-.2.8-.02.22-.03.52-.03.88v2.99h-1.19v-6.98h1.1v1.59c.2-.52.47-.95.84-1.27zM241.04 91.57c-.53-.37-.85-.9-.97-1.59l1.2-.21c.08.44.28.78.6 1.02.32.24.73.36 1.24.36.46 0 .81-.1 1.07-.3.26-.2.38-.45.38-.76 0-.3-.08-.52-.25-.67-.17-.15-.42-.25-.75-.31l-1.37-.25c-1.24-.23-1.86-.88-1.86-1.95 0-.61.24-1.12.72-1.51s1.12-.59 1.93-.59c.78 0 1.42.17 1.92.5.5.34.78.8.84 1.38l-1.17.27c-.08-.36-.27-.65-.54-.87-.28-.21-.65-.32-1.1-.32-.45 0-.8.09-1.05.28s-.38.45-.38.8c0 .53.36.86 1.08.99l1.35.25c1.21.23 1.82.87 1.82 1.9 0 .64-.24 1.16-.71 1.55-.47.39-1.12.59-1.96.59-.83 0-1.51-.19-2.04-.56z" class="st0"/>
  <g>
    <path d="M112.71 69.37c-2.16 0-4.18-.34-6-1.02-1.78-.66-3.33-1.62-4.6-2.87-1.28-1.25-2.3-2.82-3.04-4.67-.75-1.88-1.13-4.07-1.13-6.53 0-2.49.39-4.7 1.15-6.57.76-1.85 1.79-3.41 3.08-4.64 1.3-1.23 2.85-2.19 4.61-2.83 1.81-.66 3.8-.99 5.93-.99s4.12.33 5.92.99c1.77.65 3.33 1.6 4.65 2.84 1.3 1.23 2.35 2.79 3.1 4.63.76 1.87 1.15 4.08 1.15 6.57 0 2.5-.38 4.72-1.13 6.62-.74 1.86-1.76 3.42-3.05 4.65-1.29 1.23-2.85 2.18-4.63 2.83-1.82.66-3.84.99-6.01.99zm.06-26.77c-2.84 0-5.16 1.05-6.9 3.11-1.65 1.96-2.49 4.85-2.49 8.57 0 3.72.82 6.6 2.45 8.58 1.72 2.1 4.04 3.16 6.89 3.16 2.88 0 5.22-1.06 6.94-3.16 1.62-1.98 2.45-4.86 2.45-8.58 0-3.67-.81-6.54-2.41-8.51-1.72-2.1-4.05-3.17-6.93-3.17zM138.26 69.32c-1.37 0-2.66-.1-3.82-.29-1.08-.18-1.99-.45-2.7-.8-.61-.3-1.08-.66-1.39-1.07-.24-.31-.35-.67-.35-1.14 0-.45.07-.81.22-1.06.75.33 1.55.65 2.4.93 1.54.51 3.31.77 5.27.77 1.47 0 2.62-.24 3.53-.73 1.25-.68 1.97-1.82 1.97-3.11 0-1.2-.56-2.23-1.57-2.91-.69-.46-1.61-.78-2.92-1.01l-1.56-.31c-2.73-.53-4.73-1.34-5.96-2.39-1.04-.89-1.54-2.2-1.54-3.99 0-.98.2-1.83.61-2.59.41-.77.98-1.41 1.75-1.93.83-.57 1.86-1.03 3.07-1.36 1.25-.34 2.68-.51 4.23-.51 1.19 0 2.32.09 3.36.26.97.16 1.81.41 2.49.72.55.25.98.57 1.27.93.2.25.29.53.29.91 0 .41-.06.75-.16 1.03-.61-.21-1.29-.4-2.02-.57-.72-.17-1.47-.32-2.22-.43-.8-.12-1.54-.18-2.21-.18-1.46 0-2.62.18-3.52.56-1.42.59-2.24 1.75-2.24 3.18 0 1.08.51 2.03 1.43 2.67.6.42 1.46.74 2.78 1.02l1.63.37c3.77.86 5.51 1.95 6.3 2.7 1.02.97 1.51 2.21 1.51 3.8 0 2.06-.7 3.55-2.21 4.68-1.66 1.22-4.25 1.85-7.72 1.85zM155.03 68.84c-.66 0-1.25-.04-1.76-.13-.29-.05-.52-.14-.67-.25-.08-.06-.2-.17-.32-.44-.07-.17-.19-.56-.19-1.36V46.71c.65-.1 1.31-.16 1.97-.16.66 0 1.25.04 1.75.13.29.05.52.14.68.25.05.03.19.14.32.45.07.16.18.56.18 1.35v19.95c-.64.11-1.3.16-1.96.16zm-.48-28.75c-1.22 0-1.79-.43-2.11-.76-.52-.53-.76-1.15-.76-1.95s.24-1.42.77-1.96c.32-.33.89-.76 2.11-.76 1.22 0 1.79.43 2.11.76.52.53.76 1.15.76 1.95s-.24 1.42-.76 1.95c-.33.34-.89.77-2.12.77z" class="st0"/>
    <g>
      <path d="M164.88 68.02c-.8-.8-1.2-1.88-1.2-3.23V36.68c.39-.07.95-.16 1.68-.27.73-.11 1.45-.16 2.16-.16 1.6 0 2.75.27 3.47.8.71.53 1.07 1.58 1.07 3.15v22.24h12.8c.21.36.42.82.61 1.39.2.57.29 1.19.29 1.87 0 1.17-.26 2.05-.77 2.64-.52.59-1.22.88-2.11.88H168.1c-1.35 0-2.42-.4-3.22-1.2zM193.27 69.48c-1.67 0-2.83-.29-3.49-.85s-.99-1.6-.99-3.09V36.68c.39-.07.95-.16 1.68-.27.73-.11 1.47-.16 2.21-.16 1.6 0 2.75.27 3.44.8s1.04 1.58 1.04 3.15v28.85c-.39.11-.94.2-1.65.29-.71.1-1.45.14-2.24.14zM224.69 36.79c.21.36.41.82.59 1.39s.27 1.19.27 1.87c0 1.17-.26 2.04-.77 2.61-.52.57-1.24.85-2.16.85h-11.84v6.99h12.11c.21.39.42.85.61 1.39s.29 1.16.29 1.87c0 1.17-.27 2.04-.8 2.59-.53.55-1.25.83-2.13.83h-9.97v11.89c-.39.11-.94.2-1.65.29-.71.09-1.46.13-2.24.13-1.67 0-2.83-.29-3.49-.85s-.99-1.6-.99-3.09V41.22c0-1.35.4-2.43 1.2-3.23.8-.8 1.88-1.2 3.23-1.2h17.74zM229.73 68.02c-.8-.8-1.2-1.88-1.2-3.23V41.22c0-1.35.4-2.43 1.2-3.23.8-.8 1.88-1.2 3.23-1.2h17.65c.21.36.41.8.59 1.33s.27 1.14.27 1.81c0 1.17-.26 2.04-.77 2.61-.52.57-1.24.85-2.16.85H236.7v5.97h12.37c.21.36.41.8.59 1.33s.27 1.14.27 1.81c0 1.17-.25 2.04-.75 2.59-.5.55-1.21.83-2.13.83H236.7v6.67h14.13c.21.36.41.82.59 1.39s.27 1.19.27 1.87c0 1.17-.26 2.03-.77 2.56-.52.53-1.22.8-2.11.8h-15.84c-1.37.01-2.44-.39-3.24-1.19z" class="st1"/>
    </g>
    <g>
      <path d="M36.48 46.37c-.31-1.42.55-2.05 1.87-1.47 2.1.92 3.28 2.74 3.49 4.89.29 3.02-.63 6.08-.01 9.12.25 1.13 1.24 1.72 2.35 1.54 1.81-.28 3.24-1.33 4.31-2.67 1.95-2.43 3.81-4.96 5.46-7.62 2.02-3.26 2.73-7.11 3.39-10.94.25-1.43.42-2.89.77-4.28.16-.61.58-1.24 1.08-1.61.85-.63 1.63-.3 1.83.83.96 6.58.22 14.43-2.29 20.3-.94 2.16-2.3 4.12-3.62 6.05-.14.2-.28.39-.42.59 4.14-3.55 8-9.42 9.79-19.13V18.53H48.63v.02c-4.81.28-8.63 4.26-8.63 9.14v14.29H18.69v15.85h.02c.28 4.81 4.26 8.63 9.14 8.63H33.3c.76-4.55 1.61-8.6 2.2-10.44 1-3.11 1.73-6.22.98-9.65zm17.15-10.94c.4-.69 1.08-.49 1.47.27 1.35 2.67 1.21 5.27.26 7.84-.33.91-.61 1.84-.98 2.95-.59-3.13-1.34-5.74-1.45-8.76.01-.79.31-1.63.7-2.3zm-1.42 6.23c.45 1.17 1.28 4.3 1.42 4.64.55 1.34-.25 2.24-.76 3.22-.35.67-1.4 1.9-1.48 1.9-.46-2.79-.96-5.57-1.34-8.36-.17-1.22 1.27-3.52 2.16-1.4zm-4.22 5.26c1.03-1.86 2.48 2.77 2.82 3.95.24.85.18 1.46-.41 2.28-.44.6-.93 1.16-1.5 1.89-.56-2.43-1.94-6.26-.91-8.12z" class="st0"/>
      <path d="M86.3 50.8c-.17-4.91-4.21-8.83-9.15-8.83H64.47c-1.79 9.71-5.65 15.58-9.79 19.13-1.13 1.59-2.16 3.11-3.04 4.61-3.56 6.05-4.79 11.74-1.06 20.22.07.11.08.23.17.23h4.89v-.01c4.91-.17 8.83-4.21 8.83-9.15v-7.3-2.81-.44h21.84v-9.16-6.16c0-.11 0-.22-.01-.33.01 0 .01 0 0 0z" class="st1"/>
    </g>
  </g>
</svg>