<svg xmlns="http://www.w3.org/2000/svg" width="136.138" height="112.767" viewBox="0 0 136.138 112.767">
  <g id="Group_151" data-name="Group 151" transform="translate(0.5 0.25)">
    <path id="Path_155" data-name="Path 155" d="M543.048,387.846a5.847,5.847,0,0,0-7.854,0l-17.262,15.711c.084.909.132,1.83.132,2.759a29.457,29.457,0,0,1-7.5,19.66l28.558-26.011L573.9,431.857v-15.7Z" transform="translate(-438.259 -377.988)" fill="#fff"/>
    <path id="Path_156" data-name="Path 156" d="M559.734,413.323,537.509,393.1l-26.048,23.7v.386c8.5,3.2,15.695,10.485,20.267,20.141V422.775h11.934v28.882l12.217.092c3.934.109,4.7-2.574,4.5-8.7C560.061,432.784,559.734,413.323,559.734,413.323Z" transform="translate(-436.648 -365.808)" fill="#fff"/>
    <path id="Path_157" data-name="Path 157" d="M559.537,403.29a26.722,26.722,0,0,0-5.784-1.567,29.522,29.522,0,0,1-37.789-.146c-17.463,1.875-31.241,21.31-31.241,44.949v1.931c0,7.793,5.042,14.13,11.24,14.13h76.657c6.2,0,11.237-6.338,11.237-14.13v-1.931a56.8,56.8,0,0,0-4.055-21.341C575.551,414.726,568.276,406.741,559.537,403.29Z" transform="translate(-484.724 -350.571)" fill="#fff" stroke="orange" stroke-miterlimit="10" stroke-width="1"/>
    <path id="Path_158" data-name="Path 158" d="M502.314,433.052c.221.193.442.383.669.571.252.2.509.406.767.6a28.258,28.258,0,0,0,34.171.067c.241-.182.476-.369.711-.56s.453-.372.674-.562a28.916,28.916,0,0,0,2.65-2.585,28.221,28.221,0,0,0,7.253-18.907c0-.565-.022-1.128-.056-1.687a28.327,28.327,0,1,0-46.838,23.062Z" transform="translate(-470.659 -383.349)" fill="#fff" stroke="orange" stroke-miterlimit="10" stroke-width="0.5"/>
  </g>
</svg>
