<svg xmlns="http://www.w3.org/2000/svg" width="148.208" height="127.029" viewBox="0 0 148.208 127.029">
  <g id="Group_122" data-name="Group 122" transform="translate(-836.74 -3109.174)">
    <path id="Path_140" data-name="Path 140" d="M891.745,3181.861l9.837-27.714a2.7,2.7,0,0,1,5.078-.026l7.535,19.211,9.84-16.452a2.687,2.687,0,0,1,4.46-.243l0,0,11.175,14.8a2.6,2.6,0,0,1,.372.676c7.234-11.391,11.756-22.782,11.756-34.173a28.776,28.776,0,0,0-28.766-28.766c-14.381,0-21.575,7.194-28.765,21.575a60.178,60.178,0,0,0-7.864-12.437Z" fill="#fff" fill-rule="evenodd"/>
    <path id="Path_141" data-name="Path 141" d="M853.9,3154.438a2.685,2.685,0,0,1,3.8-.124,2.646,2.646,0,0,1,.726,1.152l.014-.005,2.849,9.031,17.146-52.571a28.137,28.137,0,0,0-12.929-2.747,28.774,28.774,0,0,0-28.762,28.765c0,8.947,2.782,17.891,7.482,26.839Z" fill="#fff" fill-rule="evenodd"/>
    <path id="Path_142" data-name="Path 142" d="M935.366,3174.683l-8.763-11.605-10.539,17.629a2.727,2.727,0,0,1-1.4,1.236,2.7,2.7,0,0,1-3.493-1.537l-6.925-17.646-11.567,32.585a2.7,2.7,0,0,1-5.275-.566l-6.212-73.943-17.345,53.183a2.7,2.7,0,0,1-5.191.124l-3.993-12.662-7.043,7.531a2.575,2.575,0,0,1-.711.54c10.912,18.227,29.127,36.456,47.353,54.683,16.164-16.158,32.322-32.319,43.384-48.48a2.688,2.688,0,0,1-2.285-1.072" fill="#fff" fill-rule="evenodd"/>
    <path id="Path_143" data-name="Path 143" d="M959.067,3173.625a24.157,24.157,0,0,1,8.26,47.342,23.68,23.68,0,0,1-18.2-2.1.853.853,0,0,0-1.277.234q-6.717,7.827-13.474,15.615c-1.612,1.864-2.918,1.965-4.772.37-.535-.462-1.075-.913-1.6-1.384a2.707,2.707,0,0,1-.3-4.088c1.17-1.386,2.372-2.741,3.559-4.114q5.1-5.9,10.2-11.787c.439-.5.531-.823.078-1.421a24.14,24.14,0,0,1,13.607-38.013c1.282-.309,2.611-.442,3.917-.653m.529,7.355a16.818,16.818,0,1,0,17.958,15.546A16.736,16.736,0,0,0,959.6,3180.98" fill="#fff"/>
  </g>
</svg>
