<?xml version="1.0" standalone="no"?>
<!DOCTYPE svg PUBLIC "-//W3C//DTD SVG 1.1//EN" "http://www.w3.org/Graphics/SVG/1.1/DTD/svg11.dtd" >
<svg xmlns="http://www.w3.org/2000/svg">
<metadata>Generated by IcoMoon</metadata>
<defs>
<font id="icomoon" horiz-adv-x="1024">
<font-face units-per-em="1024" ascent="960" descent="-64" />
<missing-glyph horiz-adv-x="1024" />
<glyph unicode="&#x20;" horiz-adv-x="512" d="" />
<glyph unicode="&#xe900;" glyph-name="pause-bold" d="M362.667 917.333c35.346 0 64-28.654 64-64v-810.667c0-35.346-28.654-64-64-64h-170.667c-35.346 0-64 28.654-64 64v810.667c0 35.346 28.654 64 64 64h170.667zM832 917.333c35.346 0 64-28.654 64-64v-810.667c0-35.346-28.654-64-64-64h-170.667c-35.346 0-64 28.654-64 64v810.667c0 35.346 28.654 64 64 64h170.667z" />
<glyph unicode="&#xe901;" glyph-name="pause" d="M352 832c53.019 0 96-42.981 96-96v0-576c0-53.019-42.981-96-96-96v0h-64c-53.019 0-96 42.981-96 96v0 576c0 53.019 42.981 96 96 96v0zM736 832c53.019 0 96-42.981 96-96v0-576c0-53.019-42.981-96-96-96v0h-64c-53.019 0-96 42.981-96 96v0 576c0 53.019 42.981 96 96 96v0zM352 768h-64c-17.673 0-32-14.327-32-32v0-576c0-17.673 14.327-32 32-32v0h64c17.673 0 32 14.327 32 32v0 576c0 17.673-14.327 32-32 32v0zM736 768h-64c-17.673 0-32-14.327-32-32v0-576c0-17.673 14.327-32 32-32v0h64c17.673 0 32 14.327 32 32v0 576c0 17.673-14.327 32-32 32v0z" />
<glyph unicode="&#xe902;" glyph-name="moneyholder" d="M883.508 830.382c15.687 0.18 30.66-6.551 40.935-18.408 8.991-10.376 13.586-23.756 12.993-37.203l-0.574-5.759-48.312-321.972c6.639-1.665 12.605-5.428 16.974-10.763l2.748-3.921 19.225-32.409c15.113-22.691 16.276-51.712 3.438-75.45l-3.501-5.818-12.743-18.986c-1.369-2.055-1.834-4.542-1.358-6.903l0.792-2.298 21.333-42.667c9.161-18.322 10.179-39.527 3.050-58.497l-3.055-6.999-24.34-48.638c-0.729-1.462-1.052-3.078-0.958-4.674l0.452-2.358 7.113-21.298c8.091-24.131 3.009-50.555-14.222-71l-4.999-5.421-60.672-53.035c-4.665-4.078-10.387-6.692-16.455-7.574l-4.605-0.333h-288.862c-9.309 0.002-18.549-1.418-28.99-4.742l-8.075-2.858-81.067-23.168c-16.993-4.856-34.705 4.982-39.561 21.975-4.452 15.577 3.444 31.758 17.88 38.087l4.095 1.474 77.969 22.109c15.309 6.127 31.477 9.77 47.887 10.812l9.871 0.312h276.821l50.107 43.692c1.833 1.829 2.771 4.318 2.657 6.844l-0.47 2.516-7.133 21.358c-5.363 16.099-4.948 33.484 1.050 49.237l2.912 6.643 24.358 48.672c0.865 1.73 1.153 3.664 0.865 5.529l-0.865 2.713-21.329 42.658c-10.684 21.352-10.22 46.42 0.939 67.285l3.668 6.125 12.737 18.979c1.649 2.475 1.978 5.549 0.543 8.972l-1.414 2.628-10.811 18.148h-269.781c-16.2 0-29.589 12.039-31.708 27.658l-0.292 4.342c0 8.673 3.45 16.54 9.053 22.303l-33.491 333.088c-1.609 15.096 3.291 30.162 13.472 41.423 8.908 9.852 21.119 15.974 34.085 17.296l5.596 0.271h294.026zM746.283 960l-328.18-0.316c-13.792-1.485-26.633-8.147-35.824-18.772-10.505-12.142-15.204-28.256-12.872-44.141l45.049-315.652-14.226-9.53-7.814-5.565c-15.26-11.596-28.281-25.948-38.361-42.339l-2.114-4.064-87.833-203.079-2.225-3.251c-5.696-7.339-13.329-12.998-22.088-16.304l-138.264-51.859-3.963-1.798c-13.88-7.469-20.45-24.233-14.761-39.401 6.207-16.547 24.652-24.93 41.2-18.724l138.325 51.883 7.817 3.284c20.453 9.494 37.681 24.805 49.496 44.103l2.080 4.008 87.876 203.25 3.399 4.975c3.461 4.67 7.357 8.995 11.632 12.92l10.719-74.896 0.903-4.257c4.305-15.163 19.26-25.189 35.298-22.9l4.257 0.903c15.163 4.305 25.189 19.26 22.9 35.298l-64.575 452.268 316.491 0.249c15.619 2.119 27.658 15.508 27.658 31.708 0 17.673-14.327 32-32 32zM871.723 766.421h-270.592l32.034-318.421h190.805l47.753 318.421zM729.090 624.171l-4.342-0.292-5.957-0.986c-21.561-4.713-37.703-23.918-37.703-46.893 0.284-26.783 21.897-48.016 48.34-47.828s47.752 21.725 47.66 48.168c-0.093 26.443-21.555 47.83-47.997 47.831z" />
<glyph unicode="&#xe903;" glyph-name="moneyholder-bold" d="M479.403 587.633c2.987 1.923 6.784 2.265 10.091 0.909s5.675-4.226 6.293-7.627v0l27.051-144.957c0.909-4.881 5.331-8.436 10.496-8.438v0h330.027c3.579 0.017 6.928-1.691 8.917-4.547v0l23.723-34.161c9.566-13.764 9.566-31.702 0-45.466v0l-13.184-19.005c-8.457-12.214-9.466-27.837-2.645-40.96v0l22.059-42.353c6-11.527 6-25.092 0-36.618v0l-25.259-48.415c-5.064-9.724-5.892-20.982-2.304-31.293v0l7.424-21.34c5.1-14.718 1.103-30.938-10.325-41.902v0l-42.24-40.55c-1.986-1.921-4.69-2.998-7.509-2.99v0h-312.277c-16.286-0.011-32.42-3.015-47.531-8.847v0l-81.877-31.416c-1.261-0.488-2.608-0.737-3.968-0.737v0h-289.323c-2.855-0.011-5.594 1.081-7.601 3.030s-3.112 4.592-3.067 7.333v0l3.201 228.393c0.053 4.22 2.797 7.977 6.912 9.462v0l136.533 49.152c17.736 6.404 32.747 18.293 42.667 33.792v0l140.8 219.382c9.666 15.111 22.638 28.024 38.016 37.847v0zM883.541 837.12c19.275 0 37.492-8.466 49.451-22.979 11.391-13.764 16.389-31.418 13.824-48.824v0l-38.997-261.693c-3.346-22.407-24.98-37.967-48.32-34.755s-39.549 23.981-36.203 46.387v0l34.133 228.27c0.447 2.936-0.46 5.912-2.484 8.154s-4.964 3.527-8.055 3.519v0h-239.744c-3.255-0.008-6.33-1.438-8.355-3.884s-2.782-5.644-2.056-8.691v0l54.741-223.846c3.783-14.354-0.799-29.551-11.983-39.747s-27.229-13.803-41.967-9.436c-14.737 4.368-25.872 16.031-29.122 30.505v0l-64 262.636c-0.437 1.753-0.751 3.532-0.939 5.325-1.793 17.058 3.635 34.092 15.061 47.268 12.011 13.779 29.753 21.756 48.469 21.791v0zM730.411 673.28c29.455 0 53.333-22.923 53.333-51.2s-23.878-51.2-53.333-51.2c-29.455 0-53.333 22.923-53.333 51.2s23.878 51.2 53.333 51.2zM684.331 960c23.564 0 42.667-18.338 42.667-40.96s-19.103-40.96-42.667-40.96v0h-254.165c-3.313 0.004-6.44-1.47-8.463-3.989s-2.711-5.798-1.863-8.872v0l49.707-181.535c5.986-21.849-7.587-44.226-30.336-50.012-3.563-0.909-7.236-1.364-10.923-1.352-19.371 0.023-36.296 12.57-41.216 30.556v0l-60.331 220.078c-0.462 1.602-0.818 3.23-1.067 4.874-2.456 17.431 2.546 35.075 13.867 48.906 11.914 14.668 30.203 23.25 49.579 23.265v0z" />
<glyph unicode="&#xe904;" glyph-name="downloadfile-bold" d="M277.333 490.667c153.089-0.188 277.145-124.244 277.333-277.333 0-153.167-124.166-277.333-277.333-277.333s-277.333 124.166-277.333 277.333c0 153.167 124.166 277.333 277.333 277.333zM277.333 384c-21.881 0-39.915-16.471-42.38-37.691l-0.287-4.976v-122.709c-0.037-2.335-1.56-4.306-3.662-5.012l-1.671-0.279h-37.333c-8.199 0.005-15.676-4.69-19.233-12.078-2.964-6.156-2.77-13.274 0.338-19.184l2.213-3.383 85.333-106.667c4.048-5.079 10.188-8.037 16.683-8.037 5.195 0 10.165 1.893 14.017 5.251l2.666 2.786 85.333 106.667c5.116 6.407 6.108 15.18 2.551 22.567-3.049 6.332-8.978 10.686-15.773 11.798l-3.46 0.28h-37.376c-2.343 0.019-4.323 1.546-5.022 3.656l-0.269 1.677v122.667c0 23.564-19.103 42.667-42.667 42.667zM835.627 960c20.129 0 39.526-7.102 54.832-19.927l5.541-5.075 102.998-102.997c14.226-14.222 22.916-32.949 24.672-52.828l0.331-7.502v-600.96c0-44.986-34.81-81.842-78.965-85.099l-6.369-0.234h-330.026c-3.425 0-6.632 1.684-8.575 4.505s-2.374 6.417-1.153 9.618c7.128 20.2 12.328 41.028 15.531 62.208 0.616 4.266 3.754 7.622 7.776 8.641l2.506 0.319h292.608c10.473 0 19.183 7.547 20.99 17.499l0.344 3.835v570.837c-0.001 4.518-1.434 8.888-4.050 12.502l-2.179 2.56-90.539 90.539c-3.198 3.19-7.305 5.262-11.71 5.964l-3.351 0.265h-464.171c-10.473 0-19.183-7.547-20.99-17.499l-0.344-3.835v-292.693c0.043-3.010-1.209-5.894-3.437-7.918s-5.218-2.994-8.211-2.663c-19.072 2.133-47.744 3.285-63.36 3.541-4.814 0.116-8.809 3.433-9.979 7.88l-0.347 2.787v310.4c0 44.986 34.811 81.842 78.965 85.099l6.368 0.234h494.294z" />
<glyph unicode="&#xe905;" glyph-name="downloadfile" d="M736 512c159.058 0 288-128.942 288-288s-128.942-288-288-288c-159.058 0-288 128.942-288 288s128.942 288 288 288zM736 448c-123.712 0-224-100.288-224-224s100.288-224 224-224c123.712 0 224 100.288 224 224s-100.288 224-224 224zM736 384c-17.673 0-32-14.327-32-32v-178.731l-41.373 41.358-3.589 3.098c-12.527 9.295-30.305 8.262-41.666-3.098-12.497-12.497-12.497-32.758 0-45.255l96-96 3.366-2.931 3.516-2.309 3.29-1.618 5.144-1.673 5.118-0.767h4.391l3.619 0.455 3.619 0.886 5.7 2.38 3.485 2.173 2.381 1.885 1.628 1.519 96 96 3.098 3.589c9.295 12.527 8.262 30.305-3.098 41.666-12.497 12.497-32.758 12.497-45.255 0l-41.373-41.315v178.688l-0.292 4.342c-2.119 15.619-15.508 27.658-31.708 27.658zM549.504 960l-460.077-0.221c-49.954-3.378-89.427-44.968-89.427-95.779v-704l0.221-6.573c3.378-49.954 44.968-89.427 95.779-89.427h256l4.342 0.292c15.619 2.119 27.658 15.508 27.658 31.708 0 17.673-14.327 32-32 32h-256l-4.342 0.292c-15.619 2.119-27.658 15.508-27.658 31.708v704l0.292 4.342c2.119 15.619 15.508 27.658 31.708 27.658l458.533-0.398c6.612-1.054 12.777-4.169 17.578-8.967l122.531-122.531 3.273-3.838c3.929-5.422 6.085-11.982 6.085-18.761v-133.504l0.292-4.342c2.119-15.619 15.508-27.658 31.708-27.658 17.673 0 32 14.327 32 32v133.504l-0.371 8.435c-1.972 22.352-11.735 43.412-27.725 59.411l-122.546 122.546-6.232 5.703c-17.211 14.413-39.005 22.4-61.622 22.4z" />
<glyph unicode="&#xe906;" glyph-name="offer" d="M482.919 842.058l-167.926-26.325-4.243-0.968c-15.095-4.537-24.891-19.644-22.356-35.645 2.765-17.455 19.157-29.364 36.613-26.599l163.755 25.941 3.179-0.477c4.728-1.144 11.151-4.305 16.116-9.272l410.581-410.709 3.097-3.589c9.292-12.526 8.259-30.299-3.097-41.659l-271.481-271.396-3.849-3.287c-5.435-3.944-12.004-6.104-18.797-6.104-8.49 0-16.633 3.374-22.635 9.38l-405.341 405.341-3.293 3.866c-2.962 4.097-4.913 8.843-5.688 13.843l-0.291 3.695 22.9 162.974 0.315 4.341c0.074 15.762-11.51 29.546-27.553 31.799-17.501 2.458-33.682-9.737-36.139-27.239l-23.297-165.888-0.311-4.288 0.333-8.495c1.884-22.513 11.665-43.747 27.764-59.855l405.34-405.34 6.23-5.708c17.209-14.426 39.025-22.424 61.667-22.424 25.471 0 49.899 10.123 67.904 28.14l271.477 271.392 5.1 5.51c32.299 37.72 30.599 94.538-5.093 130.241l-410.581 410.709-5.785 5.331c-17.934 15.217-40.921 23.384-64.615 22.765zM592.398 503.353c-12.497 12.497-32.758 12.497-45.255 0l-22.628-22.613-3.589 3.098c-12.527 9.295-30.305 8.262-41.666-3.098-12.497-12.497-12.497-32.758 0-45.255l0.317-0.379c-24.542-30.246-26.796-73.428-4.556-106.262 23.992-35.419 69.74-48.836 109.061-31.984l87.136 37.381 3.748 1.263c10.121 2.542 21.006-1.453 27.033-10.357 6.78-10.017 5.508-23.434-3.034-31.997l-61.315-61.486-3.093-3.593c-9.278-12.54-8.22-30.317 3.156-41.661 12.514-12.479 32.775-12.451 45.255 0.063l22.653 22.724 3.557-3.088c12.536-9.283 30.313-8.234 41.663 3.138 12.485 12.509 12.466 32.77-0.043 45.255l-0.32 0.343c24.49 30.227 26.733 73.367 4.522 106.179-23.96 35.396-69.65 48.839-108.961 32.057l-87.178-37.398-3.762-1.274c-10.155-2.569-21.054 1.42-27.089 10.33-6.789 10.023-5.512 23.454 3.044 32.018l61.344 61.344 3.098 3.589c9.295 12.527 8.262 30.305-3.098 41.666zM83.038 921.726l3.589-3.098 232.187-232.17c12.529 5.994 26.562 9.35 41.378 9.35 53.019 0 96-42.981 96-96s-42.981-96-96-96c-53.019 0-96 42.981-96 96 0 14.816 3.356 28.848 9.35 41.378l-232.17 232.187c-12.497 12.497-12.497 32.758 0 45.255 11.361 11.361 29.138 12.393 41.666 3.098zM360.192 631.808c-6.955 0-13.391-2.219-18.64-5.987l-3.959-3.414c-5.934-6.022-9.401-13.906-9.401-22.599 0-17.673 14.327-32 32-32s32 14.327 32 32c0 17.673-14.327 32-32 32z" />
<glyph unicode="&#xe907;" glyph-name="offer-bold" d="M989.269 274.534c46.246 44.522 46.246 116.573 0 161.096l-511.061 491.028c-22.312 21.288-52.469 33.268-83.925 33.342h-275.584c-31.499 0.033-61.716-11.968-83.985-33.354s-34.759-50.399-34.713-80.638l0.299-264.684c-0.052-30.175 12.451-59.12 34.731-80.404l511.104-490.701c46.387-44.374 121.421-44.374 167.808 0l275.328 264.315zM631.467 187.617c-17.254 0-32.808 9.983-39.41 25.286s-2.954 32.918 9.245 44.632l72.533 69.632c11.2 10.749 13.747 27.27 6.27 40.672s-23.213 20.524-38.74 17.532l-130.816-25.108c-45.495-8.78-92.221 8.127-120.361 43.551s-32.762 83.156-11.905 122.952c2.064 3.954 1.275 8.732-1.963 11.878l-9.643 9.257c-12.426 9.92-17.947 25.728-14.261 40.833s15.944 26.916 31.666 30.507c15.722 3.591 32.208-1.653 42.585-13.546l4.949-4.751c4.163-3.984 10.898-3.984 15.061 0l26.325 25.231c10.713 10.648 26.576 14.918 41.494 11.17s26.567-14.932 30.472-29.253c3.905-14.321-0.544-29.55-11.635-39.834l-72.533-69.632c-11.24-10.742-13.812-27.29-6.329-40.715s23.252-20.55 38.798-17.53l130.859 25.108c45.487 8.746 92.187-8.171 120.318-43.583s32.769-83.122 11.949-122.92c-2.078-3.952-1.287-8.738 1.963-11.878l9.643-9.093c11.091-10.284 15.54-25.513 11.635-39.834s-15.555-25.505-30.472-29.253c-14.918-3.748-30.781 0.522-41.494 11.17l-4.949 4.751c-4.187 3.966-10.917 3.966-15.104 0l-26.283-25.272c-7.933-7.597-18.661-11.893-29.867-11.96v0zM311.467 747.008c0-45.243-38.205-81.92-85.333-81.92s-85.333 36.677-85.333 81.92c0 45.243 38.205 81.92 85.333 81.92s85.333-36.677 85.333-81.92z" />
<glyph unicode="&#xe908;" glyph-name="settings" d="M590.657 921.72c32.779 36.278 84.838 48.006 130.007 29.29 42.659-17.677 70.456-58.898 71.318-104.553l-0.13-8.099-3.029-59.72c-0.731-14.538 4.719-28.707 15.004-39.007 8.816-8.829 20.479-14.11 32.749-14.993l6.175-0.071 59.778 3.032c48.797 2.406 93.836-26.129 112.505-71.278 17.631-42.64 8.144-91.401-23.518-124.301l-5.817-5.637-44.444-40.093c-10.837-9.788-17.021-23.709-17.021-38.312 0-12.517 4.544-24.532 12.657-33.865l4.35-4.433 44.478-40.124c36.278-32.779 48.006-84.838 29.29-130.007-17.677-42.659-58.898-70.456-104.553-71.318l-8.099 0.13-59.756 3.031c-14.571 0.75-28.776-4.711-39.093-15.028-8.843-8.843-14.118-20.543-14.972-32.896l-0.055-6.221 3.039-59.93c2.164-48.572-26.3-93.305-71.215-111.921-42.273-17.521-90.612-8.38-123.637 22.779l-6.008 6.099-40.161 44.429c-9.781 10.832-23.692 17.014-38.286 17.014-12.509 0-24.517-4.542-33.888-12.701l-4.456-4.377-40.343-44.442c-32.781-36.033-84.635-47.645-129.653-29.035-42.517 17.576-70.317 58.546-71.388 104.188l0.091 8.099 3.072 59.734c0.75 14.571-4.711 28.776-15.028 39.093-8.843 8.843-20.543 14.118-32.896 14.972l-6.221 0.055-59.686-3.027c-48.817-2.548-93.955 25.901-112.716 71.041-17.719 42.632-8.288 91.439 23.37 124.386l5.816 5.645 44.412 40.103c10.837 9.788 17.021 23.709 17.021 38.312 0 12.517-4.544 24.532-12.703 33.907l-4.377 4.458-44.407 40.312c-36.121 32.765-47.78 84.682-29.138 129.745 17.606 42.56 58.66 70.352 104.281 71.343l8.094-0.106 59.793-3.032c14.599-0.768 28.837 4.701 39.169 15.043 8.856 8.865 14.128 20.596 14.956 33.074l0.039 6.292-2.86 59.805c-2.284 48.684 26.215 93.569 71.247 112.211 42.382 17.545 90.837 8.295 123.772-22.956l5.988-6.116 40.162-44.35c9.766-10.84 23.672-17.030 38.262-17.030 12.506 0 24.509 4.547 33.911 12.759l4.475 4.407 40.271 44.187zM690.599 893.828c-16.872 4.83-35.098 0.719-48.331-10.949l-4.217-4.167-40.239-44.151c-21.902-24.312-53.089-38.193-85.813-38.193-29.996 0-58.702 11.664-80.105 32.287l-5.652 5.845-40.059 44.235c-14.636 16.090-37.792 21.271-57.889 12.951-18.422-7.626-30.645-25.094-31.77-44.666l-0.028-5.384 2.849-59.593c1.752-32.725-10.474-64.654-33.636-87.839-21.232-21.252-49.821-33.323-79.6-33.865l-8.147 0.14-59.64 3.025c-21.73 1.039-41.772-11.678-50.088-31.78-7.56-18.275-3.949-39.076 8.883-53.694l4.124-4.191 44.357-40.267c24.271-21.923 38.122-53.099 38.122-85.806 0-29.981-11.639-58.676-32.276-80.139l-5.85-5.67-44.388-40.081c-16.167-14.633-21.376-37.857-13.007-57.994 7.672-18.458 25.23-30.66 44.913-31.688h5.415l59.71 3.028c32.663 1.68 64.509-10.562 87.636-33.689 21.2-21.2 33.253-49.725 33.82-79.491l-0.132-8.144-3.063-59.555c-0.995-21.717 11.732-41.728 31.823-50.033 18.265-7.55 39.051-3.954 53.653 8.825l4.187 4.107 40.263 44.353c21.915 24.272 53.087 38.124 85.788 38.124 29.976 0 58.667-11.64 80.112-32.265l5.664-5.846 40.013-44.267c14.652-16.005 37.753-21.129 57.798-12.821 18.375 7.616 30.58 25.026 31.75 44.42l0.042 5.333-3.028 59.71c-1.68 32.663 10.562 64.509 33.689 87.636 21.2 21.2 49.725 33.253 79.474 33.821l8.139-0.131 59.74-3.030c21.792-1.11 41.925 11.612 50.278 31.771 7.594 18.326 3.958 39.193-8.915 53.814l-4.137 4.19-44.474 40.12c-24.271 21.923-38.122 53.099-38.122 85.806 0 29.981 11.639 58.676 32.285 80.147l5.852 5.672 44.437 40.087c16.176 14.62 21.413 37.832 13.082 57.981-7.637 18.47-25.164 30.71-44.771 31.797l-5.393 0.016-59.794-3.032c-32.592-1.591-64.337 10.673-87.393 33.764-21.135 21.166-33.163 49.62-33.758 79.328l0.123 8.129 3.030 59.74c1.017 19.976-9.588 38.558-26.89 47.951l-4.881 2.328-5.565 1.943zM512 671.957c123.712 0 224-100.288 224-224s-100.288-224-224-224c-123.712 0-224 100.288-224 224s100.288 224 224 224zM512 607.957c-88.366 0-160-71.634-160-160s71.634-160 160-160c88.366 0 160 71.634 160 160s-71.634 160-160 160z" />
<glyph unicode="&#xe909;" glyph-name="settings-bold" d="M960 554.667h-79.445c-7.898 27.298-18.817 53.63-32.555 78.507l56.192 56.149c12.011 12.004 18.76 28.288 18.76 45.269s-6.748 33.266-18.76 45.269l-60.373 60.288c-24.992 24.984-65.504 24.984-90.496 0l-56.235-56.192c-24.842 13.747-51.147 24.667-78.421 32.555v79.488c0 35.346-28.654 64-64 64h-85.333c-35.346 0-64-28.654-64-64v-79.488c-27.282-7.906-53.599-18.825-78.464-32.555l-56.235 56.192c-24.992 24.984-65.504 24.984-90.496 0l-60.373-60.331c-12.011-12.004-18.76-28.288-18.76-45.269s6.748-33.266 18.76-45.269l56.235-56.192c-13.756-24.838-24.676-51.143-32.555-78.421h-79.445c-35.346 0-64-28.654-64-64v-85.333c0-35.346 28.654-64 64-64h79.445c7.875-27.293 18.795-53.613 32.555-78.464l-56.277-56.277c-24.984-24.992-24.984-65.504 0-90.496l60.331-60.331c25.407-24.003 65.132-24.003 90.539 0l56.235 56.192c24.878-13.745 51.209-24.678 78.507-32.597v-79.36c0-35.346 28.654-64 64-64h85.333c35.346 0 64 28.654 64 64v79.36c27.282 7.905 53.599 18.823 78.464 32.555l56.235-56.192c24.992-24.984 65.504-24.984 90.496 0l60.331 60.331c24.984 24.992 24.984 65.504 0 90.496l-56.192 56.192c13.752 24.87 24.672 51.203 32.555 78.507h79.445c16.989 0 33.28 6.755 45.285 18.775s18.738 28.321 18.715 45.31v85.333c0 35.346-28.654 64-64 64zM512 234.667c-117.821 0-213.333 95.513-213.333 213.333s95.513 213.333 213.333 213.333c117.821 0 213.333-95.513 213.333-213.333-0.141-117.762-95.571-213.192-213.333-213.333z" />
<glyph unicode="&#xe90a;" glyph-name="home" d="M864.128 397.056l-4.342-0.292c-15.619-2.119-27.658-15.508-27.658-31.708v-320h-192v224l-0.221 6.573c-3.378 49.954-44.968 89.427-95.779 89.427h-64l-6.573-0.221c-49.954-3.378-89.427-44.968-89.427-95.779v-224h-192v320l-0.292 4.342c-2.119 15.619-15.508 27.658-31.708 27.658-17.673 0-32-14.327-32-32v-352l0.292-4.342c2.119-15.619 15.508-27.658 31.708-27.658h256l4.342 0.292c15.619 2.119 27.658 15.508 27.658 31.708v256l0.292 4.342c2.119 15.619 15.508 27.658 31.708 27.658h64l4.342-0.292c15.619-2.119 27.658-15.508 27.658-31.708v-256l0.292-4.342c2.119-15.619 15.508-27.658 31.708-27.658h256l4.342 0.292c15.619 2.119 27.658 15.508 27.658 31.708v352l-0.292 4.342c-2.119 15.619-15.508 27.658-31.708 27.658zM512.128 914.546c-25.471 0-49.899-10.123-67.904-28.14l-434.723-434.723-3.098-3.589c-9.295-12.527-8.262-30.305 3.098-41.666 12.497-12.497 32.758-12.497 45.255 0l434.731 434.731 3.847 3.285c5.433 3.942 12.002 6.102 18.795 6.102 8.49 0 16.633-3.374 22.635-9.38l434.738-434.738 3.589-3.098c12.527-9.295 30.305-8.262 41.666 3.098 12.497 12.497 12.497 32.758 0 45.255l-434.731 434.731-6.23 5.708c-17.209 14.426-39.025 22.424-61.667 22.424z" />
<glyph unicode="&#xe90b;" glyph-name="home-bold" d="M542.165 947.499c-16.661 16.656-43.669 16.656-60.331 0l-469.333-469.333c-12.199-12.202-15.847-30.551-9.245-46.492s22.156-26.336 39.41-26.34h53.333c5.891 0 10.667-4.776 10.667-10.667v-416c0-23.564 19.103-42.667 42.667-42.667h234.667c23.564 0 42.667 19.103 42.667 42.667v213.333c0 47.128 38.205 85.333 85.333 85.333s85.333-38.205 85.333-85.333v-213.333c0-23.564 19.103-42.667 42.667-42.667h234.667c23.564 0 42.667 19.103 42.667 42.667v416c0 5.891 4.776 10.667 10.667 10.667h53.333c17.254 0.004 32.808 10.399 39.41 26.34s2.954 34.29-9.245 46.492l-469.333 469.333zM863.787 505.216c2.582-2.582 3.665-6.305 2.869-9.868s-3.359-6.473-6.794-7.71c-16.842-5.85-28.060-21.81-27.861-39.637v-416c0-5.891-4.776-10.667-10.667-10.667h-128c-5.891 0-10.667 4.776-10.667 10.667v160c0 94.257-76.41 170.667-170.667 170.667s-170.667-76.41-170.667-170.667v-160c0-5.891-4.776-10.667-10.667-10.667h-128c-5.891 0-10.667 4.776-10.667 10.667v416c0.225 17.836-11.003 33.809-27.861 39.637-3.435 1.238-5.999 4.147-6.794 7.71s0.287 7.287 2.869 9.868l344.235 344.235c2.001 2.006 4.718 3.134 7.552 3.134s5.551-1.128 7.552-3.134l344.235-344.235z" />
<glyph unicode="&#xe90c;" glyph-name="flag-bold" d="M106.667 960c33.267 0 60.606-25.382 63.707-57.836l0.293-6.164v-896c0-35.346-28.654-64-64-64-33.267 0-60.606 25.382-63.707 57.836l-0.293 6.164v896c0 35.346 28.654 64 64 64zM254.131 867.827c10.626 6.885 23.671 8.648 35.613 5.016l5.040-1.888 618.667-277.333c15.141-6.786 24.975-21.733 25.222-38.324 0.203-14.747-7.202-28.414-19.343-36.338l-4.769-2.693-618.667-298.667c-13.219-6.386-28.793-5.528-41.23 2.273-10.882 6.825-18.031 18.126-19.648 30.68l-0.349 5.447v576c0 14.47 7.321 27.958 19.465 35.827z" />
<glyph unicode="&#xe90d;" glyph-name="flag" d="M176.043 929.816l-0.043-1.816c0 1.653 0.125 3.277 0.367 4.862 0.058 0.4 0.129 0.813 0.209 1.225 0.204 1.044 0.45 2.049 0.743 3.035 0.052 0.162 0.108 0.344 0.166 0.527l0.559 1.63c0.228 0.605 0.474 1.202 0.737 1.79l0.299 0.63 0.422 0.872c0.447 0.873 0.933 1.723 1.456 2.547l-1.878-3.419c0.847 1.788 1.838 3.46 2.952 5.011 0.456 0.627 0.945 1.255 1.457 1.864 0.44 0.536 0.887 1.034 1.347 1.517 0.596 0.611 1.195 1.192 1.816 1.749 0.452 0.415 0.913 0.804 1.384 1.18 0.659 0.519 1.334 1.016 2.029 1.487 0.501 0.341 1.021 0.67 1.549 0.984 0.805 0.482 1.619 0.921 2.453 1.325 0.458 0.214 0.922 0.425 1.39 0.624 2.626 1.129 5.434 1.908 8.367 2.29 0.699 0.093 1.395 0.162 2.094 0.208 0.672 0.039 1.374 0.062 2.081 0.062l0.535 0.003c0.412-0.007 0.825-0.021 1.238-0.044l-1.773 0.041c1.653 0 3.277-0.125 4.862-0.367 0.4-0.058 0.813-0.129 1.225-0.209 1.042-0.203 2.045-0.449 3.029-0.741 0.168-0.054 0.351-0.11 0.533-0.168l1.516-0.516c0.647-0.241 1.284-0.502 1.91-0.783l608.623-288.296c21.847-10.348 24.396-39.696 6.242-53.97l-3.907-2.644-592.037-342.735 0.003-301.571c0-17.673-14.327-32-32-32-16.2 0-29.589 12.039-31.708 27.658l-0.292 4.342-0.003 960.535c0.007 0.426 0.022 0.853 0.046 1.28zM239.997 877.486v-533.973l507.225 293.671-507.225 240.302z" />
<glyph unicode="&#xe90e;" glyph-name="popup-bold" d="M724.709-64.016c21.196-0.014 41.023 10.467 52.949 27.989l203.136 298.667c14.751 21.537 14.869 49.893 0.299 71.552l-0.555 0.811-183.040 248.832c-5.52 7.515-5.52 17.744 0 25.259l182.187 249.045c14.267 19.457 16.38 45.284 5.464 66.801s-33.005 35.066-57.133 35.044h-628.693c-21.196 0.014-41.023-10.467-52.949-27.989l-203.136-298.667c-14.649-21.553-14.767-49.835-0.299-71.509l0.597-0.811 182.997-248.832c5.52-7.515 5.52-17.744 0-25.259l-182.187-249.045c-14.293-19.458-16.419-45.302-5.5-66.834s33.027-35.087 57.169-35.054h628.693zM702.736 554.651c6.715 0 13.038-3.161 17.067-8.533l140.416-187.733c2.424-3.232 2.814-7.557 1.007-11.17s-5.5-5.896-9.541-5.896h-530.389c-6.715 0-13.038 3.161-17.067 8.533l-140.459 187.733c-2.424 3.232-2.814 7.557-1.007 11.17s5.5 5.896 9.541 5.896h530.432zM864.997 874.651c4.040 0 7.734-2.283 9.541-5.896s1.417-7.938-1.007-11.17l-152.747-209.067c-3.984-5.452-10.314-8.697-17.067-8.747h-532.565c-3.954-0.011-7.587 2.176-9.429 5.675-1.84 3.5-1.611 7.728 0.597 11.008l141.952 208.64c3.918 5.919 10.523 9.502 17.621 9.557h543.104zM159.077 21.318c-4.040 0-7.734 2.283-9.541 5.896s-1.417 7.938 1.007 11.17l152.832 209.067c4.029 5.372 10.352 8.533 17.067 8.533h532.437c3.954 0.011 7.587-2.176 9.429-5.675 1.84-3.5 1.611-7.728-0.597-11.008l-141.909-208.64c-3.975-5.85-10.591-9.35-17.664-9.344h-543.061z" />
<glyph unicode="&#xe90f;" glyph-name="popup" d="M955.069 287.998l0.009-0.619c-0.077-11.897-2.364-23.783-6.863-35.031v0l-102.399-255.998c-14.579-36.453-49.885-60.353-89.147-60.353v0h-612.915c-21.301-0.107-41.261 10.39-53.242 28.003s-14.415 40.033-6.504 59.771v0l100.784 252.344c3.051 7.628 3.051 16.137 0.002 23.761v0l-109.015 272.474c-4.417 11.045-6.703 22.706-6.856 34.389 0.011 0.415 0.002 0.836 0.002 1.259l-0.003 1.217c0.148 11.697 2.434 23.373 6.857 34.433v0l102.399 255.998c14.579 36.453 49.885 60.353 89.147 60.353v0h613.086c21.301 0.107 41.261-10.39 53.242-28.003s14.415-40.033 6.497-59.788v0l-100.948-252.327c-3.051-7.628-3.051-16.137-0.002-23.761v0l109.015-272.474c4.498-11.247 6.785-23.133 6.862-35.029-0.011-0.186-0.009-0.402-0.009-0.619zM880.737 895.999h-613.411c-13.093 0-24.863-7.967-29.723-20.12v0l-94.343-235.879h635.264l1.257 3.65 100.957 252.349zM880.795 320l-101.017 252.35c-0.478 1.194-0.93 2.395-1.358 3.603l-635.119 0.047 100.914-252.354c0.483-1.208 0.941-2.424 1.373-3.646l635.206-0.001zM880.752 256h-635.221l-1.31-3.636-100.793-252.366h613.241c13.093 0 24.863 7.967 29.723 20.12v0l94.36 235.882z" />
<glyph unicode="&#xe910;" glyph-name="remove-bold" d="M64 384h896c35.346 0 64 28.654 64 64s-28.654 64-64 64h-896c-35.346 0-64-28.654-64-64s28.654-64 64-64z" />
<glyph unicode="&#xe911;" glyph-name="remove" d="M992 478.379c17.673 0 32-14.327 32-32 0-16.2-12.039-29.589-27.658-31.708l-4.342-0.292h-960c-17.673 0-32 14.327-32 32 0 16.2 12.039 29.589 27.658 31.708l4.342 0.292h960z" />
<glyph unicode="&#xe912;" glyph-name="personalize-bold" d="M757.248 541.418l6.63-0.289c28.46-2.488 53.151-20.854 63.72-47.396l2.183-6.267 18.091-59.392c2.548-8.5 10.476-14.003 19.044-13.742l3.697 0.473 60.203 13.952c6.509 1.476 13.059 2.069 19.505 1.842l6.407-0.498c23.328-2.812 44.629-16.37 56.839-37.58 15.54-26.994 12.967-60.499-5.922-84.717l-4.297-5.042-42.112-45.397c-6.046-6.617-6.802-16.314-2.267-23.701l2.267-3.009 42.112-45.397c22.725-24.439 26.868-60.836 10.218-89.758-12.21-21.209-33.511-34.767-56.839-37.58l-6.407-0.498c-4.298-0.151-8.641 0.062-12.988 0.658l-6.517 1.184-60.203 13.952c-1.237 0.286-2.475 0.446-3.701 0.487l-3.623-0.224c-5.928-0.939-11.184-4.636-14.020-10.071l-1.397-3.461-18.091-59.392c-9.617-32.024-39.097-53.951-72.533-53.951-31.208 0-58.968 19.101-70.35 47.685l-2.183 6.267-18.091 59.392c-2.564 8.488-10.483 13.983-19.046 13.735l-3.696-0.466-60.203-13.952c-4.339-0.984-8.697-1.575-13.030-1.793l-6.476-0.048c-25.787 0.909-49.926 14.941-63.246 38.078-15.54 26.994-12.967 60.499 5.922 84.717l4.297 5.042 42.155 45.397c6.046 6.617 6.802 16.314 2.267 23.701l-2.267 3.009-42.155 45.397c-22.725 24.439-26.868 60.836-10.218 89.758 13.32 23.138 37.46 37.169 63.246 38.078l6.476-0.048 6.512-0.609 6.517-1.184 60.203-13.952c1.235-0.272 2.47-0.42 3.692-0.452l3.612 0.246c5.909 0.965 11.145 4.642 14.014 10.039l1.423 3.437 18.091 59.392c8.976 29.889 35.254 50.983 65.903 53.663l6.63 0.289zM236.071 607.76l9.807-0.258c94.482-4.474 179.252-66.002 210.869-158.605 1.153-3.357 0.562-7.067-1.579-9.899-3.422-4.521-6.557-9.252-9.387-14.165-31.173-53.245-23.659-120.645 18.475-165.717 2.417-2.614 4.032-5.837 4.695-9.288l0.34-3.512v-4.736c-0.014-4.755-1.828-9.328-5.077-12.8-5.885-6.476-11.129-13.506-15.659-20.992-1.452-2.372-3.752-4.047-6.376-4.733l-2.712-0.345h-68.608c-4.631-0.004-8.613-2.969-10.069-7.163l-0.555-2.65-18.901-226.645c-0.83-9.846-8.257-17.659-17.705-19.246l-3.629-0.295h-170.667c-9.881-0.035-18.314 6.68-20.722 15.953l-0.612 3.589-18.816 226.603c-0.37 4.616-3.642 8.35-7.938 9.47l-2.686 0.344h-77.227l-3.835 0.344c-8.708 1.581-15.574 8.447-17.155 17.155l-0.344 3.835v149.333c0.126 114.723 83.18 212.536 196.365 231.261 8.877 1.469 17.736 2.417 26.541 2.865l13.165 0.3zM757.248 372.011l-7.521-0.217c-67.192-3.893-120.479-59.615-120.479-127.783s53.287-123.89 120.479-127.783l7.521-0.217 7.521 0.217c67.192 3.893 120.479 59.615 120.479 127.783s-53.287 123.89-120.479 127.783l-7.521 0.217zM757.248 308.011l6.164-0.293c32.454-3.101 57.836-30.44 57.836-63.707 0-35.346-28.654-64-64-64s-64 28.654-64 64c0 33.267 25.382 60.606 57.836 63.707l6.164 0.293zM234.667 949.291l8.194-0.221c78.664-4.254 141.14-69.387 141.14-149.112 0-82.475-66.859-149.333-149.333-149.333s-149.333 66.859-149.333 149.333c0 79.725 62.476 144.859 141.14 149.112l8.194 0.221z" />
<glyph unicode="&#xe913;" glyph-name="personalize" d="M435.151 566.859c-73.62 72.124-183.312 93.067-278.326 53.141s-156.821-132.936-156.825-235.998v-96.001l0.292-4.342c2.119-15.619 15.508-27.658 31.708-27.658h67.029l29.129-291.184 0.74-4.358c3.421-14.162 16.156-24.458 31.101-24.458h192l4.411 0.302c14.433 1.995 25.945 13.644 27.431 28.517l22.229 222.549 0.141 4.35c-0.556 15.752-12.682 29.062-28.802 30.672l-4.35 0.141c-15.752-0.556-29.062-12.682-30.672-28.802l-19.401-193.73h-134.059l-29.087 291.184-0.74 4.358c-3.421 14.162-16.156 24.458-31.101 24.458h-64v64l0.222 9.237c3.53 73.575 48.987 139.013 117.397 167.76 71.261 29.945 153.529 14.237 208.744-39.856 12.624-12.368 32.885-12.16 45.252 0.465s12.16 32.885-0.465 45.252zM736.121 575.993l6.862-0.277c34.027-2.69 63.555-24.722 75.779-56.461l2.21-6.474 18.88-62.066c1.313-4.353 5.25-7.237 9.561-7.38l2.613 0.253 63.052 14.639c38.137 8.592 77.422-8.67 96.887-42.573 18.248-31.784 15.083-71.238-7.298-99.566l-4.732-5.512-43.98-47.439c-3.173-3.412-3.702-8.383-1.567-12.336l1.601-2.229 43.869-47.319c26.697-28.591 31.62-71.253 12.137-105.174-18.266-31.8-53.976-48.942-89.915-43.803l-7.186 1.327-62.825 14.544c-4.418 1.019-8.864-0.964-11.153-4.747l-1.097-2.476-18.821-61.615c-11.294-37.516-45.842-63.194-85.020-63.194-36.874 0-69.646 22.747-82.766 56.621l-2.226 6.479-18.891 62.058c-1.305 4.342-5.232 7.219-9.559 7.353l-2.627-0.259-62.985-14.581c-38.148-8.656-77.48 8.587-96.964 42.507-18.266 31.8-15.081 71.284 7.323 99.585l4.736 5.505 43.98 47.439c3.173 3.412 3.702 8.383 1.567 12.336l-1.601 2.229-43.893 47.345c-26.648 28.603-31.547 71.233-12.083 105.135 18.248 31.784 53.916 48.942 89.896 43.844l7.195-1.319 62.775-14.575c4.431-1.018 8.888 0.971 11.175 4.726l1.094 2.455 18.85 61.966c10.699 35.288 41.975 60.051 78.282 62.778l6.863 0.25zM735.995 511.993l-4.032-0.321c-7.903-1.284-14.721-6.333-18.262-13.533l-1.487-3.772-18.837-61.924c-10.675-35.385-45.524-57.239-81.555-52.163l-6.366 1.178-62.644 14.545c-10.753 2.423-21.829-2.445-27.317-12.003-4.802-8.364-4.345-18.612 0.914-26.484l2.546-3.216 43.913-47.366c25.085-26.974 26.56-67.87 4.455-96.451l-4.421-5.208-44.025-47.486c-7.518-8.052-8.905-20.066-3.418-29.618 4.801-8.358 13.881-13.121 23.182-12.569l3.988 0.567 62.871 14.555c36.043 8.315 72.339-11.132 85.734-44.827l2.121-6.091 18.887-62.046c3.153-10.474 12.799-17.643 23.737-17.643 9.571 0 18.152 5.489 22.286 13.961l1.489 3.806 18.818 61.604c10.65 35.424 45.535 57.301 81.548 52.201l6.362-1.183 62.711-14.518c10.743-2.437 21.819 2.418 27.306 11.97 4.801 8.358 4.34 18.601-0.94 26.481l-2.556 3.22-43.913 47.366c-25.085 26.974-26.56 67.87-4.455 96.451l4.421 5.208 44 47.46c7.514 8.065 8.895 20.084 3.407 29.643-4.802 8.364-13.883 13.136-23.145 12.607l-3.969-0.556-62.921-14.609c-36.022-8.275-72.28 11.154-85.7 44.841l-2.127 6.090-18.904 62.143c-2.741 9.17-10.458 15.82-19.672 17.354l-4.031 0.336zM736 352c53.019 0 96-42.981 96-96s-42.981-96-96-96c-53.019 0-96 42.981-96 96s42.981 96 96 96zM736 288c-17.673 0-32-14.327-32-32s14.327-32 32-32c17.673 0 32 14.327 32 32s-14.327 32-32 32zM256 960c88.366 0 160-71.634 160-160s-71.634-160-160-160c-88.366 0-160 71.634-160 160s71.634 160 160 160zM256 896c-53.019 0-96-42.981-96-96s42.981-96 96-96c53.019 0 96 42.981 96 96s-42.981 96-96 96z" />
<glyph unicode="&#xe914;" glyph-name="listening" d="M512 960c-17.673 0-32-14.327-32-32v-960l0.292-4.342c2.119-15.619 15.508-27.658 31.708-27.658 17.673 0 32 14.327 32 32v960l-0.292 4.342c-2.119 15.619-15.508 27.658-31.708 27.658zM320 768c-17.673 0-32-14.327-32-32v-576l0.292-4.342c2.119-15.619 15.508-27.658 31.708-27.658 17.673 0 32 14.327 32 32v576l-0.292 4.342c-2.119 15.619-15.508 27.658-31.708 27.658zM704 768c-17.673 0-32-14.327-32-32v-576l0.292-4.342c2.119-15.619 15.508-27.658 31.708-27.658 17.673 0 32 14.327 32 32v576l-0.292 4.342c-2.119 15.619-15.508 27.658-31.708 27.658zM128 576c-17.673 0-32-14.327-32-32v-199.381l0.292-4.342c2.119-15.619 15.508-27.658 31.708-27.658 17.673 0 32 14.327 32 32v199.381l-0.292 4.342c-2.119 15.619-15.508 27.658-31.708 27.658zM896 576c-17.673 0-32-14.327-32-32v-199.381l0.292-4.342c2.119-15.619 15.508-27.658 31.708-27.658 17.673 0 32 14.327 32 32v199.381l-0.292 4.342c-2.119 15.619-15.508 27.658-31.708 27.658z" />
<glyph unicode="&#xe915;" glyph-name="listening-bold" d="M512 960c-23.564 0-42.667-19.103-42.667-42.667v-938.667l0.287-4.976c2.465-21.22 20.499-37.691 42.38-37.691 23.564 0 42.667 19.103 42.667 42.667v938.667l-0.287 4.976c-2.465 21.22-20.499 37.691-42.38 37.691zM341.333 874.667c-23.564 0-42.667-19.103-42.667-42.667v-768l0.287-4.976c2.465-21.22 20.499-37.691 42.38-37.691 23.564 0 42.667 19.103 42.667 42.667v768l-0.287 4.976c-2.465 21.22-20.499 37.691-42.38 37.691zM682.667 874.667c-23.564 0-42.667-19.103-42.667-42.667v-768l0.287-4.976c2.465-21.22 20.499-37.691 42.38-37.691 23.564 0 42.667 19.103 42.667 42.667v768l-0.287 4.976c-2.465 21.22-20.499 37.691-42.38 37.691zM170.667 704c-23.564 0-42.667-19.103-42.667-42.667v-426.667l0.287-4.976c2.465-21.22 20.499-37.691 42.38-37.691 23.564 0 42.667 19.103 42.667 42.667v426.667l-0.287 4.976c-2.465 21.22-20.499 37.691-42.38 37.691zM853.333 704c-23.564 0-42.667-19.103-42.667-42.667v-426.667l0.287-4.976c2.465-21.22 20.499-37.691 42.38-37.691 23.564 0 42.667 19.103 42.667 42.667v426.667l-0.287 4.976c-2.465 21.22-20.499 37.691-42.38 37.691zM42.667 533.333c-23.564 0-42.667-19.103-42.667-42.667v-85.333l0.287-4.976c2.465-21.22 20.499-37.691 42.38-37.691 23.564 0 42.667 19.103 42.667 42.667v85.333l-0.287 4.976c-2.465 21.22-20.499 37.691-42.38 37.691zM981.333 533.333c-23.564 0-42.667-19.103-42.667-42.667v-85.333l0.287-4.976c2.465-21.22 20.499-37.691 42.38-37.691 23.564 0 42.667 19.103 42.667 42.667v85.333l-0.287 4.976c-2.465 21.22-20.499 37.691-42.38 37.691z" />
<glyph unicode="&#xe916;" glyph-name="achievement-bold" d="M138.24 320.005c-3.678-0.14-7.036-2.132-8.917-5.296l-102.4-176.64-2.428-4.889c-5.586-13.326-4.078-28.738 4.302-40.812 9.427-13.584 25.854-20.498 42.158-17.744l102.016 17.28 35.541-97.621 2.184-4.989c6.611-12.811 19.349-21.544 33.947-22.907 16.423-1.533 32.259 6.538 40.669 20.728l84.224 142.507 0.972 2.151c0.724 2.232 0.698 4.664-0.113 6.912-1.082 2.998-3.447 5.354-6.448 6.425-88.529 31.972-164.429 91.567-216.491 169.984-2.007 3.13-5.499 4.989-9.216 4.912zM885.113 321.041c-3.693 0.104-7.177-1.71-9.209-4.795-51.936-78.6-127.755-138.43-216.277-170.667-2.984-1.067-5.333-3.416-6.4-6.4-1.072-2.992-0.759-6.306 0.853-9.045l84.523-143.061 3.076-4.496c8.885-11.357 23.034-17.564 37.634-16.177 16.426 1.56 30.48 12.452 36.090 27.968l35.499 97.579 102.059-17.28 5.431-0.561c14.442-0.564 28.352 6.252 36.725 18.336 9.419 13.595 10.134 31.408 1.833 45.543l-102.912 177.749-1.658 2.163c-1.905 1.918-4.497 3.067-7.267 3.145zM511.317 929.92c206.186 0 373.333-167.147 373.333-373.333-0.259-206.079-167.254-373.075-373.333-373.333-206.186 0-373.333 167.147-373.333 373.333s167.147 373.333 373.333 373.333zM511.083 759.312c-8.277 0-15.951-3.993-20.718-10.561l-2.13-3.492-46.933-96.768c-1.426-2.944-4.098-5.028-7.203-5.744l-2.397-0.272h-90.368c-9.999 0.293-19.114-5.694-22.816-14.987-3.173-7.965-1.788-16.902 3.371-23.489l2.891-3.082 79.019-77.909c2.502-2.486 3.586-5.992 3.031-9.37l-0.727-2.491-43.776-100.651c-3.966-10.052-1.194-21.511 6.928-28.638 7.107-6.236 16.97-7.98 25.657-4.809l3.639 1.661 107.52 60.587c2.444 1.374 5.293 1.718 7.939 1.031l2.557-1.031 107.52-60.587c9.451-5.239 21.174-3.979 29.296 3.148 7.107 6.236 10.118 15.789 8.102 24.814l-1.174 3.824-43.947 100.651c-1.409 3.24-1.105 6.906 0.686 9.828l1.618 2.034 79.189 77.952c7.497 6.687 9.99 17.36 6.231 26.676-3.289 8.151-10.745 13.729-19.283 14.736l-3.716 0.146h-90.368c-3.271 0-6.311 1.495-8.31 3.977l-1.29 2.039-47.189 96.725c-4.356 8.619-13.191 14.053-22.848 14.053z" />
<glyph unicode="&#xe917;" glyph-name="achievement" d="M512 960c212.077 0 384-171.923 384-384 0-60.493-13.988-117.718-38.905-168.619l159.671-195.116c14.329-17.511 6.341-43.419-14.214-50.489l-4.276-1.155-141.828-28.355-58.090-174.386c-8.039-24.117-39.061-29.229-54.689-10.696l-2.741 3.753-156.225 247.935c-23.541-4.511-47.846-6.873-72.703-6.873-24.848 0-49.145 2.36-72.679 6.868l-156.249-247.93c-13.554-21.507-44.901-19.079-55.663 2.644l-1.767 4.298-58.133 174.386-141.785 28.355c-22.188 4.437-32.458 29.528-21.061 48.037l2.571 3.606 159.671 195.116c-24.918 50.901-38.905 108.126-38.905 168.619 0 212.077 171.923 384 384 384zM202.040 349.283l-111.586-136.334 107.822-21.571c9.853-1.971 18.121-8.428 22.467-17.31l1.616-3.949 42.602-127.837 110.238 174.801c-65.096 24.826-121.7 66.852-164.256 120.522l-8.902 11.677zM821.96 349.283c-43.407-59.244-103.389-105.581-173.116-132.183l110.153-174.817 42.645 127.837c3.177 9.532 10.611 16.935 19.963 20.146l4.119 1.113 107.78 21.571-111.544 136.334zM512 896c-176.731 0-320-143.269-320-320s143.269-320 320-320c21.848 0 43.185 2.19 63.803 6.361l15.609 3.558c138.302 35.313 240.587 160.752 240.587 310.081 0 176.731-143.269 320-320 320zM512.021 822.515c19.411 0 37.375-9.762 48.155-26.068l3.013-5.085 44.342-87.362 70.344-0.010c19.501 0.476 37.583-9.052 48.303-24.735l2.989-4.886 2.512-5.232c8.292-19.79 4.684-42.385-8.802-58.429l-3.921-4.206-67.649-66.385 37.577-86.277c7.905-18.865 5.033-40.18-6.815-56.136l-3.822-4.618-4.35-4.25c-16.904-14.849-40.77-18.279-60.687-9.421l-5.326 2.721-95.884 53.959-95.504-53.742c-17.688-10.271-39.196-10.171-56.546-0.478l-5.072 3.195-4.775 3.766c-16.904 14.849-23.382 38.074-16.903 59.591l2.090 5.819 37.361 85.871-67.44 66.394c-13.875 13.431-19.786 32.748-16.35 51.22l1.493 6.117 1.968 5.46c8.292 19.79 26.929 33.064 47.401 34.706l5.622 0.156h71.083l44.667 87.653c8.061 15.256 22.407 25.897 38.883 29.419l6.271 0.982 5.774 0.289zM512 750.805l-47.385-93.15c-4.778-9.388-13.812-15.734-24.061-17.174l-4.458-0.311-73.856 0.043 71-69.907c7.081-6.968 10.392-16.668 9.375-26.206l-0.872-4.742-1.609-4.635-37.915-86.937 94.092 52.893c6.958 3.914 15.015 5.032 22.601 3.355l4.483-1.342 4.294-2.013 94.007-52.893-37.83 86.937c-3.97 9.117-3.414 19.361 1.102 27.833l2.586 4.075 3.23 3.699 70.934 69.67h-73.813c-9.037 0-17.5 3.807-23.468 10.244l-2.767 3.432-2.298 3.837-47.371 93.292z" />
<glyph unicode="&#xe918;" glyph-name="micoff-bold" d="M149.333 576c-23.564 0-42.667-19.103-42.667-42.667v-106.667l0.175-11.494c5.802-198.619 155.039-364.634 353.19-390.511 5.33-0.669 9.322-5.21 9.301-10.581v-35.413l0.287-4.976c2.465-21.22 20.499-37.691 42.38-37.691 23.564 0 42.667 19.103 42.667 42.667v35.413l0.312 2.602c1.036 4.175 4.548 7.422 8.989 7.979 58.603 7.583 114.818 27.977 164.651 59.733 2.737 1.733 4.538 4.617 4.895 7.837s-0.769 6.428-3.060 8.718l-46.549 46.549-2.236 1.703c-3.214 1.834-7.231 1.901-10.564 0.003-48.375-27.915-103.253-42.587-159.104-42.539-176.653 0.188-319.812 143.347-320 320v106.667l-0.287 4.976c-2.465 21.22-20.499 37.691-42.38 37.691zM548.448 957.279c-125.965 18.119-246.115-59.043-282.038-181.13-1.083-3.599-3.974-6.368-7.617-7.294s-7.505 0.126-10.175 2.771l-175.787 175.573-4.041 3.484c-16.801 12.776-40.796 11.614-56.289-3.484-16.656-16.661-16.656-43.669 0-60.331l943.035-942.177c16.843-11.712 40.034-9.83 54.759 5.157 15.952 16.236 16.35 42.135 1.203 58.683l-168.619 168.619-1.835 2.435c-1.922 3.512-1.732 7.923 0.726 11.303 49.284 68.726 75.717 151.206 75.563 235.776v106.667l-0.287 4.976c-2.465 21.22-20.499 37.691-42.38 37.691-23.564 0-42.667-19.103-42.667-42.667v-106.667l-0.286-13.919c-2.359-55.562-19.243-109.626-49.079-156.748-1.738-2.733-4.629-4.524-7.851-4.864-3.156-0.332-6.293 0.781-8.533 3.029l-31.061 31.019-1.688 2.243c-1.815 3.22-1.87 7.229 0.024 10.557 22.717 39.071 34.617 83.488 34.475 128.683v277.333l-0.208 10.275c-4.927 122.754-96.783 225.375-219.344 243.004zM272.224 558.5c-2.86 1.746-6.432 2.071-9.622 0.756-3.987-1.643-6.592-5.526-6.602-9.838v-122.752l0.23-10.834c3.506-82.794 46.951-159.059 116.953-204.237 73.046-47.142 165.024-53.991 244.247-18.188 3.119 1.459 5.342 4.335 5.969 7.721s-0.421 6.867-2.811 9.345l-346.368 346.453-1.995 1.572z" />
<glyph unicode="&#xe919;" glyph-name="micoff" d="M192 576c16.2 0 29.589-12.039 31.708-27.658l0.292-4.342-0.010-108.685c3.871-155.167 132.241-278.128 288.057-275.315 41.487-0.060 82.525 8.585 120.462 25.379 16.161 7.154 35.060-0.148 42.214-16.308s-0.148-35.060-16.308-42.214c-36.415-16.119-75.18-26.065-114.4-29.499l-0.014-129.357c0-17.673-14.327-32-32-32-16.2 0-29.589 12.039-31.708 27.658l-0.292 4.342 0.023 128.925c-171.995 12.894-310.019 151.855-319.602 327.016l-0.421 10.576v109.483c0 17.673 14.327 32 32 32zM147.559 889.332l3.525-3.171 768-800c12.239-12.749 11.826-33.006-0.923-45.245-11.59-11.127-29.385-11.796-41.72-2.248l-3.525 3.171-768 800c-12.239 12.749-11.826 33.006 0.923 45.245 11.59 11.127 29.385 11.796 41.72 2.248zM320 512c16.2 0 29.589-12.039 31.708-27.658l0.292-4.342v-32c0-88.366 71.634-160 160-160 6.685 0 13.369 0.416 20.011 1.246 17.537 2.191 33.53-10.248 35.721-27.785s-10.248-33.53-27.785-35.721c-9.273-1.159-18.607-1.74-27.947-1.74-120.619 0-218.971 95.336-223.813 214.767l-0.187 9.233v32c0 17.673 14.327 32 32 32zM832 576c16.2 0 29.589-12.039 31.708-27.658l0.292-4.342v-109.468c0.020-44.215-9.001-87.968-26.509-128.569-6.998-16.229-25.827-23.711-42.056-16.713s-23.711 25.827-16.713 42.056c12.296 28.515 19.377 58.967 20.944 89.92l0.333 13.292v109.483c0 17.673 14.327 32 32 32zM512 960c120.619 0 218.971-95.336 223.813-214.767l0.187-9.233v-288c0-17.673-14.327-32-32-32-16.2 0-29.589 12.039-31.708 27.658l-0.292 4.342v288c0 88.366-71.634 160-160.007 160-58.154 0.012-111.736-31.529-139.947-82.382-8.573-15.454-28.052-21.032-43.506-12.459s-21.032 28.052-12.459 43.506c39.496 71.194 114.51 115.353 195.918 115.335z" />
<glyph unicode="&#xe91a;" glyph-name="chat" d="M992 576c17.673 0 32-14.327 32-32v0-384c0-17.673-14.327-32-32-32v0h-96v-160c0-27.008-30.936-41.244-51.333-25.527v0l-3.295 2.9-182.642 182.627h-178.731c-16.2 0-29.589 12.039-31.708 27.658v0l-0.292 4.342v384c0 17.673 14.327 32 32 32v0zM960 512h-448v-320h160c6.79 0 13.357-2.158 18.784-6.093v0l3.843-3.279 137.373-137.358v114.731c0 16.2 12.039 29.589 27.658 31.708v0l4.342 0.292h96v320zM800 960l-710.573-0.221c-49.954-3.378-89.427-44.968-89.427-95.779v-512l0.221-6.573c3.378-49.954 44.968-89.427 95.779-89.427h96v-160l0.305-4.532c3.206-23.501 31.041-35.959 50.895-21.068l128 96 3.575 3.115c10.973 11.087 12.465 28.832 2.825 41.685l-3.115 3.575c-11.087 10.973-28.832 12.465-41.685 2.825l-76.8-57.6v128l-0.292 4.342c-2.119 15.619-15.508 27.658-31.708 27.658h-128l-4.342 0.292c-15.619 2.119-27.658 15.508-27.658 31.708v512l0.292 4.342c2.119 15.619 15.508 27.658 31.708 27.658l708.342-0.292c15.619-2.119 27.658-15.508 27.658-31.708v-192l0.292-4.342c2.119-15.619 15.508-27.658 31.708-27.658 17.673 0 32 14.327 32 32v192l-0.221 6.573c-3.378 49.954-44.968 89.427-95.779 89.427zM864 320h-256l-4.342-0.292c-15.619-2.119-27.658-15.508-27.658-31.708 0-17.673 14.327-32 32-32h256l4.342 0.292c15.619 2.119 27.658 15.508 27.658 31.708 0 17.673-14.327 32-32 32zM864 448h-256l-4.342-0.292c-15.619-2.119-27.658-15.508-27.658-31.708 0-17.673 14.327-32 32-32h256l4.342 0.292c15.619 2.119 27.658 15.508 27.658 31.708 0 17.673-14.327 32-32 32zM352 576h-128l-4.342-0.292c-15.619-2.119-27.658-15.508-27.658-31.708 0-17.673 14.327-32 32-32h128l4.342 0.292c15.619 2.119 27.658 15.508 27.658 31.708 0 17.673-14.327 32-32 32zM672 768l-452.342-0.292c-15.619-2.119-27.658-15.508-27.658-31.708 0-17.673 14.327-32 32-32l452.342 0.292c15.619 2.119 27.658 15.508 27.658 31.708 0 17.673-14.327 32-32 32z" />
<glyph unicode="&#xe91b;" glyph-name="chat-bold" d="M938.667 512c47.128 0 85.333-38.205 85.333-85.333v0-277.333c0-47.128-38.205-85.333-85.333-85.333v0h-42.667v-85.333c0-16.161-9.131-30.935-23.586-38.162s-31.752-5.668-44.681 4.029v0l-159.275 119.467h-135.125c-47.128 0-85.333 38.205-85.333 85.333v0 277.333c0 47.128 38.205 85.333 85.333 85.333v0zM832 960c47.128 0 85.333-38.205 85.333-85.333v0-256c0-23.564-19.103-42.667-42.667-42.667s-42.667 19.103-42.667 42.667v0 234.667c0 11.782-9.551 21.333-21.333 21.333v0h-704c-11.782 0-21.333-9.551-21.333-21.333v0-576c0-11.782 9.551-21.333 21.333-21.333v0h106.667c23.564 0 42.667-19.103 42.667-42.667v0-67.627l55.168 55.168c16.741 16.127 43.353 15.896 59.811-0.562s16.689-43.069 0.52-59.811v0l-128-128c-12.202-12.199-30.551-15.847-46.492-9.245s-26.336 22.156-26.34 39.41v0 128h-85.333c-47.128 0-85.333 38.205-85.333 85.333v0 618.667c0 47.128 38.205 85.333 85.333 85.333v0zM917.333 426.667h-362.667c-11.782 0-21.333-9.551-21.333-21.333v0-234.667c0-11.782 9.551-21.333 21.333-21.333v0h128c9.232 0 18.215-2.994 25.6-8.533v0l102.4-76.8v42.667c0 23.564 19.103 42.667 42.667 42.667v0h64c11.782 0 21.333 9.551 21.333 21.333v0 234.667c0 11.782-9.551 21.333-21.333 21.333v0zM341.333 501.333c17.673 0 32-14.327 32-32s-14.327-32-32-32v0h-128c-17.673 0-32 14.327-32 32s14.327 32 32 32v0zM661.333 714.667c17.673 0 32-14.327 32-32s-14.327-32-32-32v0h-448c-17.673 0-32 14.327-32 32s14.327 32 32 32v0z" />
<glyph unicode="&#xe91c;" glyph-name="delete-bold" d="M17.981 81.818c-23.99-24.002-23.981-62.906 0.020-86.897s62.906-23.981 86.897 0.020l379.372 379.331c1.921 1.926 4.53 3.008 7.25 3.008s5.329-1.082 7.25-3.008l379.372-379.412c15.519-15.526 38.142-21.594 59.348-15.917s37.772 22.235 43.459 43.438c5.687 21.203-0.37 43.829-15.889 59.355l-379.331 379.494c-1.926 1.921-3.008 4.53-3.008 7.25s1.082 5.329 3.008 7.25l379.412 379.372c23.99 24.024 23.963 62.947-0.061 86.938s-62.947 23.963-86.938-0.061l-379.372-379.29c-1.921-1.926-4.53-3.008-7.25-3.008s-5.329 1.082-7.25 3.008l-379.372 379.29c-23.99 24.001-62.895 24.011-86.897 0.020s-24.011-62.895-0.020-86.897l379.331-379.372c1.926-1.921 3.008-4.53 3.008-7.25s-1.082-5.329-3.008-7.25l-379.331-379.412z" />
<glyph unicode="&#xe91d;" glyph-name="delete" d="M51.038 953.768l3.589-3.098 457.373-457.358 457.373 457.358c12.497 12.497 32.758 12.497 45.255 0 11.361-11.361 12.393-29.138 3.098-41.666l-3.098-3.589-457.358-457.373 457.358-457.373c12.497-12.497 12.497-32.758 0-45.255-11.361-11.361-29.138-12.393-41.666-3.098l-3.589 3.098-457.373 457.358-457.373-457.358c-12.497-12.497-32.758-12.497-45.255 0-11.361 11.361-12.393 29.138-3.098 41.666l3.098 3.589 457.358 457.373-457.358 457.373c-12.497 12.497-12.497 32.758 0 45.255 11.361 11.361 29.138 12.393 41.666 3.098z" />
<glyph unicode="&#xe91e;" glyph-name="cardattachment-bold" d="M288 916.096c76.583 0 138.667-62.083 138.667-138.667v0-360.021c-1.205-62.467-52.188-112.476-114.667-112.476s-113.462 50.009-114.667 112.476v0 168.021c0 23.564 19.103 42.667 42.667 42.667s42.667-19.103 42.667-42.667v0-168.021c0.601-15.765 13.557-28.236 29.333-28.236s28.732 12.47 29.333 28.236v0 360.021c0 29.455-23.878 53.333-53.333 53.333s-53.333-23.878-53.333-53.333v0-18.688c0-5.891 4.776-10.667 10.667-10.667v0h21.333c5.891 0 10.667-4.776 10.667-10.667v0-64c0-5.891-4.776-10.667-10.667-10.667v0h-160c-11.782 0-21.333-9.551-21.333-21.333v0-554.667c0-11.782 9.551-21.333 21.333-21.333v0h810.667c11.782 0 21.333 9.551 21.333 21.333v0 554.667c0 11.782-9.551 21.333-21.333 21.333v0h-416c-5.891 0-10.667 4.776-10.667 10.667v0 64c0 5.891 4.776 10.667 10.667 10.667v0h437.333c47.128 0 85.333-38.205 85.333-85.333v0-597.333c0-47.128-38.205-85.333-85.333-85.333v0h-853.333c-47.128 0-85.333 38.205-85.333 85.333v0 597.333c0 47.128 38.205 85.333 85.333 85.333v0h53.333c5.891 0 10.667 4.776 10.667 10.667v0 18.688c0 76.583 62.083 138.667 138.667 138.667zM778.667 236.075c17.673 0 32-14.327 32-32s-14.327-32-32-32v0h-448c-17.673 0-32 14.327-32 32s14.327 32 32 32v0zM778.667 417.408c17.673 0 32-14.327 32-32s-14.327-32-32-32v0h-213.333c-17.673 0-32 14.327-32 32s14.327 32 32 32v0z" />
<glyph unicode="&#xe91f;" glyph-name="cardattachment" d="M256 912.085c68.168 0 123.89-53.287 127.783-120.479l0.217-7.521v-288c0-53.019-42.981-96-96-96-50.81 0-92.401 39.474-95.779 89.427l-0.221 6.573v96c0 17.673 14.327 32 32 32 16.2 0 29.589-12.039 31.708-27.658l0.292-4.342v-96c0-17.673 14.327-32 32-32 16.2 0 29.589 12.039 31.708 27.658l0.292 4.342v288c0 35.346-28.654 64-64 64-33.267 0-60.606-25.382-63.707-57.836l-0.293-6.164v-31.957l32-0.043c17.673 0 32-14.327 32-32 0-16.2-12.039-29.589-27.658-31.708l-4.342-0.292h-150.305c-4.442 0.005-8.191-2.982-9.336-6.948l-0.359-2.481-0.001-620.955c0.032-4.438 3.045-8.161 7.15-9.275l2.579-0.34h876.578c4.438-0.005 8.186 2.978 9.333 6.921l0.361 2.465 0.001 620.987c-0.027 4.441-3.041 8.169-7.148 9.285l-2.581 0.341h-470.272c-17.673 0-32 14.327-32 32 0 16.2 12.039 29.589 27.658 31.708l4.342 0.292h470.239c38.414 0.040 70.021-29.331 73.454-67.066l0.308-6.363v-621.413c-0.276-38.386-29.864-69.738-67.402-72.896l-6.326-0.262h-876.51c-38.387-0.040-69.981 29.289-73.448 67.023l-0.314 6.363v621.381c0.236 38.414 29.834 69.808 67.397 72.971l6.331 0.262 54.272 0.043v31.957c0 70.692 57.308 128 128 128zM864 272.085c17.673 0 32-14.327 32-32 0-16.2-12.039-29.589-27.658-31.708l-4.342-0.292h-576c-17.673 0-32 14.327-32 32 0 16.2 12.039 29.589 27.658 31.708l4.342 0.292h576zM864 464.085c17.673 0 32-14.327 32-32 0-16.2-12.039-29.589-27.658-31.708l-4.342-0.292h-352c-17.673 0-32 14.327-32 32 0 16.2 12.039 29.589 27.658 31.708l4.342 0.292h352z" />
<glyph unicode="&#xe920;" glyph-name="photoslot-bold" d="M898.698 674.58c-21.355-0.533-39.375-16.362-41.333-37.283-2.109-22.531 15.207-42.437 38.677-44.462l21.333-1.802 3.325-0.545c4.339-1.055 8.253-3.403 11.154-6.747 3.626-4.18 5.371-9.574 4.849-14.99l-46.549-489.39-0.694-3.631c-2.708-9.344-12.057-15.789-22.474-14.883l-578.71 50.443c-13.649 0.025-26.62-6.244-34.711-17.043-9.102-12.148-10.579-28.095-3.852-41.595s20.588-22.402 36.152-23.222l602.322-52.524c19.968-0.060 39.42 6.611 54.885 18.978 17.397 13.913 28.322 33.893 30.367 55.541l50.219 530.309 0.347 7.203c0.043 19.162-6.92 37.822-19.808 52.652-14.499 16.684-35.309 27.156-57.851 29.11l-42.667 3.727-4.982 0.153zM725.333 960c44.986 0 81.842-33.418 85.099-75.806l0.234-6.114v-614.4c0-43.187-34.811-78.568-78.965-81.695l-6.369-0.225h-640c-44.986 0-81.842 33.418-85.099 75.806l-0.234 6.114v614.4c0 43.187 34.811 78.568 78.965 81.695l6.369 0.225h640zM704 878.080h-597.333c-10.473 0-19.183-7.245-20.99-16.799l-0.344-3.681v-573.44c0-10.054 7.547-18.416 17.499-20.15l3.835-0.33h597.333c10.473 0 19.183 7.245 20.99 16.799l0.344 3.681v573.44c0 10.054-7.547 18.416-17.499 20.15l-3.835 0.33zM397.025 770.395c-27.579-0.908-53.833-12.134-73.023-31.463-21.109-21.262-31.607-50.249-28.792-79.496-4.82-47.278 11.62-94.282 45.184-129.188 10.411-11.018 14.293-69.919-9.259-78.275-86.955-30.966-156.245-53.248-172.843-84.91-2.901-5.53-5.419-11.182-7.68-16.712-2.293-5.709-1.508-12.136 2.1-17.18s9.574-8.056 15.948-8.051l477.104 0.351c4.906 0.93 9.302 3.665 12.188 7.7 3.608 5.044 4.394 11.471 2.1 17.18-2.261 5.53-4.779 11.182-7.68 16.712-12.825 24.624-57.114 43.403-116.704 64.955l-56.139 19.955c-23.552 8.192-19.669 67.256-9.259 78.275 33.564 34.906 50.004 81.91 45.184 129.188 2.816 29.247-7.683 58.234-28.792 79.496s-50.765 32.72-81.331 31.424l-8.308 0.040z" />
<glyph unicode="&#xe921;" glyph-name="photoslot" d="M806.118 725.598l4.212-1.096 169.91-56.622c16.104-5.373 29.413-16.925 36.999-32.112 6.638-13.289 8.417-28.409 5.16-42.758l-1.705-6.094-202.371-607.156c-5.373-16.104-16.925-29.413-32.112-36.999-13.289-6.638-28.409-8.417-42.756-5.16l-6.094 1.705-267.477 89.131c-16.767 5.587-25.83 23.708-20.242 40.475 5.122 15.369 20.775 24.266 36.263 21.338l4.212-1.096 267.497-89.137 202.37 607.154-169.887 56.615c-16.767 5.587-25.829 23.709-20.242 40.476 5.122 15.369 20.776 24.265 36.264 21.337zM640 960c33.267 0 60.606-25.382 63.707-57.836l0.293-6.164v-704c0-33.267-25.382-60.606-57.836-63.707l-6.164-0.293h-576c-33.267 0-60.606 25.382-63.707 57.836l-0.293 6.164v704c0 33.267 25.382 60.606 57.836 63.707l6.164 0.293h576zM640 320h-576v-128h576v128zM640 896h-576v-512l66.267-0.008c12.011 83.989 70.613 152.95 148.785 179.862-42.516 24.989-71.053 71.235-71.053 124.146 0 79.529 64.471 144 144 144s144-64.471 144-144c0-52.911-28.537-99.157-71.059-124.186 78.18-26.872 136.782-95.832 148.792-179.822l66.267 0.008v512zM352 512c-74.113 0-136.457-50.39-154.64-118.779l-2.16-9.221h313.557l-2.118 9.221c-16.755 63.018-71.008 110.754-137.414 117.862l-8.728 0.695-8.497 0.222zM352 768c-44.183 0-80-35.817-80-80s35.817-80 80-80c44.183 0 80 35.817 80 80s-35.817 80-80 80z" />
<glyph unicode="&#xe922;" glyph-name="mail" d="M928 800c50.81 0 92.401-39.474 95.779-89.427l0.221-6.573v-512c0-50.81-39.474-92.401-89.427-95.779l-6.573-0.221h-832c-50.81 0-92.401 39.474-95.779 89.427l-0.221 6.573v512c0 50.81 39.474 92.401 89.427 95.779l6.573 0.221h832zM960 696.064l-239.616-165.291 133.339-123.276c12.977-11.997 13.772-32.243 1.775-45.22-10.906-11.798-28.63-13.527-41.512-4.73l-3.708 2.955-143.909 133.023-77.861-53.683c-43.491-30.028-100.241-31.696-145.193-5.013l-7.805 5.003-77.877 53.736-143.909-133.065c-12.977-11.997-33.223-11.202-45.22 1.775-10.906 11.798-11.241 29.602-1.462 41.755l3.237 3.465 133.339 123.319-239.616 165.205v-504.021c0-16.2 12.039-29.589 27.658-31.708l4.342-0.292h832c16.2 0 29.589 12.039 31.708 27.658l0.292 4.342v504.064zM905.216 736h-786.432l353.072-243.491c22.304-15.399 51.254-16.584 74.593-3.546l5.711 3.556 353.057 243.48z" />
<glyph unicode="&#xe923;" glyph-name="mail-bold" d="M1016.972 711.746l2.249-0.578c2.176-0.897 3.783-2.715 4.445-4.892l0.334-2.276v-512c0-44.986-34.811-81.842-78.965-85.099l-6.369-0.234h-853.333c-44.986 0-81.842 34.811-85.099 78.965l-0.234 6.369v512c0.034 3.104 1.913 5.889 4.779 7.083 2.186 0.948 4.641 0.813 6.671-0.27l1.863-1.394 264.533-264.533c3.462-3.481 4.039-8.748 1.731-12.825l-1.731-2.279-215.168-215.168c-12.133-12.55-11.969-32.509 0.369-44.859 11.216-11.227 28.73-12.398 41.26-3.412l3.598 3.001 215.168 215.168c3.481 3.462 8.748 4.039 12.825 1.731l2.279-1.731 90.923-90.752c43.907-43.883 113.933-45.711 160.017-5.485l5.871 5.485 90.837 90.837c2.001 2.006 4.718 3.134 7.552 3.134 1.889 0 3.726-0.501 5.334-1.43l2.218-1.704 215.168-215.168c8.038-8.315 19.938-11.645 31.124-8.711s19.92 11.675 22.843 22.865c2.506 9.591 0.408 19.701-5.483 27.451l-3.258 3.665-215.168 215.168c-3.462 3.481-4.039 8.748-1.731 12.825l1.731 2.279 264.533 264.533c1.679 1.683 3.998 2.474 6.284 2.242zM938.667 789.333c4.098 0 8.191-0.299 12.245-0.896 7.994-1.162 14.646-6.739 17.185-14.408 2.115-6.391 1.071-13.321-2.647-18.753l-2.548-3.063-413.269-413.269c-19.459-19.402-50.145-20.695-71.101-3.88l-4.334 3.88-413.184 413.269c-5.723 5.702-7.734 14.147-5.195 21.816s9.191 13.247 17.185 14.408l6.149 0.675 6.182 0.221h853.333z" />
<glyph unicode="&#xe924;" glyph-name="camera-bold" d="M708.923 810.889c49.768 0 75.091-45.62 97.571-93.974l6.68-14.545c2.558-7.075 8.414-12.186 15.379-13.699l3.565-0.449h51.83c80.248 0 99.337-45.967 100.598-86.426l0.069-429.224c1.851-27.686-8.413-54.763-27.942-73.713-17.754-17.227-41.446-26.071-65.502-24.692l-7.222 0.722h-743.897c-26.481-3.785-53.196 5.020-72.725 23.97-17.754 17.227-27.85 41.172-28.149 66.183l0.207 7.53v424.754c0 39.926 15.85 87.245 89.577 90.695l8.766 0.201h236.308c11.839 0 17.043 9.34 28.99 26.917l17.065 24.451c30.626 43.278 51.654 68.075 85.057 71.005l6.852 0.294h196.923zM620.308 637.111c-125.071 0-226.462-105.263-226.462-235.111s101.39-235.111 226.462-235.111c125.071 0 226.462 105.263 226.462 235.111-0.13 129.792-101.444 234.976-226.462 235.111zM620.308 555.333c-81.568 0-147.692-68.65-147.692-153.333s66.124-153.333 147.692-153.333c81.568 0 147.692 68.65 147.692 153.333s-66.124 153.333-147.692 153.333zM187.077 586c-27.189 0-49.231-22.883-49.231-51.111s22.041-51.111 49.231-51.111c27.189 0 49.231 22.883 49.231 51.111s-22.041 51.111-49.231 51.111zM216.615 821.111h-39.385l-5.69-0.281c-29.958-2.972-53.387-29.172-53.387-61.053v-9.568l0.317-3.675c1.667-9.537 9.708-16.77 19.375-16.77l118.154-0.654 3.54 0.329c9.186 1.731 16.153 10.078 16.153 20.115v10.222l-0.27 5.907c-2.863 31.102-28.098 55.427-58.806 55.427z" />
<glyph unicode="&#xe925;" glyph-name="camera" d="M728.448 864c33.942 0 65.165-17.888 82.407-46.721l3.476-6.344 37.424-74.892 76.245-0.043c48.501 0 88.601-35.967 95.084-82.683l0.695-6.744 0.221-6.573v-512c0-50.81-39.474-92.401-89.427-95.779l-6.573-0.221h-832c-50.81 0-92.401 39.474-95.779 89.427l-0.221 6.573v512c0 50.81 39.474 92.401 89.427 95.779l6.573 0.221h96v32c0 17.673 14.327 32 32 32 16.2 0 29.589-12.039 31.708-27.658l0.292-4.342v-31.957h108.203l37.471 74.901c14.097 28.185 40.949 47.367 71.531 51.981l7.12 0.804 7.227 0.271h240.896zM728.448 800h-240.896c-10.616 0-20.43-5.242-26.346-13.807l-2.288-3.869-46.293-92.629c-4.742-9.488-13.819-15.919-24.136-17.379l-4.488-0.316h-288c-16.2 0-29.589-12.039-31.708-27.658l-0.292-4.342v-512c0-16.2 12.039-29.589 27.658-31.708l4.342-0.292h832c16.2 0 29.589 12.039 31.708 27.658l0.292 4.342v512c0 16.2-12.039 29.589-27.658 31.708l-4.342 0.292h-96c-10.607 0-20.418 5.245-26.336 13.821l-2.289 3.874-46.289 92.62c-4.744 9.484-13.823 15.911-24.147 17.37l-4.492 0.315zM608 672c141.385 0 256-114.615 256-256s-114.615-256-256-256c-141.385 0-256 114.615-256 256s114.615 256 256 256zM608 608c-106.039 0-192-85.961-192-192s85.961-192 192-192c106.039 0 192 85.961 192 192s-85.961 192-192 192zM176 608l5.23-0.282c24.049-2.606 42.77-22.976 42.77-47.718 0-26.51-21.49-48-48-48s-48 21.49-48 48c0 24.742 18.72 45.112 42.77 47.718l5.23 0.282z" />
<glyph unicode="&#xe926;" glyph-name="addressbook-bold" d="M868.65 787.627c-10.173 2.025-17.486 10.741-17.504 20.864v66.176c0 47.128-39.185 85.333-87.521 85.333h-547.009c-72.505 0-131.282-57.308-131.282-128v-768c0-70.692 58.777-128 131.282-128h634.53c48.337 0 87.521 38.205 87.521 85.333v682.667c0 40.556-29.261 75.515-70.017 83.627zM172.855 832c0 23.564 19.592 42.667 43.761 42.667h536.068c6.042 0 10.94-4.776 10.94-10.667v-64c0-5.891-4.898-10.667-10.94-10.667h-536.068c-24.168 0-43.761 19.103-43.761 42.667zM766.862 107.349c-4.155-4.864-10.311-7.68-16.804-7.68h-476.116c-6.483-0.010-12.637 2.783-16.802 7.627s-5.913 11.239-4.772 17.461c3.929 22.211 11.091 43.762 21.268 64 19.561 38.229 68.792 61.696 158.764 94.208 3.782 10.355 3.658 21.684-0.35 31.957-35.216 43.127-52.62 97.534-48.793 152.533-2.483 46.408 21.498 90.365 62.355 114.296s91.922 23.931 132.778 0c40.857-23.931 64.838-67.888 62.355-114.296 3.797-55.442-13.88-110.254-49.537-153.6-3.565-10.267-3.16-21.449 1.138-31.445 89.228-32.043 138.459-55.467 158.020-93.867 10.177-20.238 17.339-41.789 21.268-64 1.058-6.136-0.684-12.415-4.77-17.195z" />
<glyph unicode="&#xe927;" glyph-name="addressbook" d="M873.026 960c36.253 0 65.641-28.654 65.641-64v0-704c0-35.346-29.388-64-65.641-64v0l-0.023-128h32.843c18.126 0 32.821-14.327 32.821-32 0-16.2-12.347-29.589-28.367-31.708l-4.454-0.292h-689.231c-72.505 0-131.282 57.308-131.282 128v736c0 88.366 73.471 160 164.103 160v0zM807.381 128h-590.766c-36.253 0-65.641-28.654-65.641-64v0c0-33.267 26.033-60.606 59.319-63.707l6.322-0.293h590.766v128zM873.026 896h-623.59c-54.379 0-98.462-42.981-98.462-96v0-625.152l1.476 0.848c16.864 9.229 36.032 14.933 56.451 16.087v0l7.714 0.217h656.41v704zM512 768c90.631 0 164.103-71.634 164.103-160 0-48.66-22.279-92.247-57.435-121.592 73.165-37.422 123.076-112.232 123.076-198.408 0-17.673-14.694-32-32.821-32v0h-393.846c-18.126 0-32.821 14.327-32.821 32 0 86.176 49.911 160.986 123.085 198.449-35.165 29.304-57.444 72.891-57.444 121.551 0 88.366 73.471 160 164.103 160zM512 448c-78.937 0-144.857-54.341-160.554-126.748v0l-0.267-1.252h321.597l-2.172 9.221c-17.932 65.758-77.74 114.876-149.89 118.557v0zM512 704c-54.379 0-98.462-42.981-98.462-96s44.083-96 98.462-96c54.379 0 98.462 42.981 98.462 96s-44.083 96-98.462 96z" />
<glyph unicode="&#xe928;" glyph-name="favorites-bold" d="M842.998 448c-41.587 0.554-81.542-16.161-110.346-46.162l-8.643-8.643-2.122-1.634c-1.539-0.89-3.298-1.371-5.107-1.371-2.714 0-5.315 1.081-7.229 3.005l-8.643 8.643-6.837 6.685c-28.106 25.783-65.091 39.986-103.468 39.477-57.509-1.788-108.479-37.522-129.765-90.977s-8.832-114.444 31.706-155.275l209.428-218.481 2.487-2.211c3.527-2.656 7.846-4.12 12.32-4.12 5.593 0 10.943 2.288 14.807 6.331l215.2 224.625c38.879 43.879 47.511 107.323 21.017 160.276-23.619 47.66-71.634 78.372-124.805 79.831zM302.367 960h-220.447l-6.402-0.246c-42.251-3.266-75.518-38.585-75.518-81.674v-593.92l0.246-6.402c3.266-42.251 38.585-75.518 81.674-75.518h317.645l2.567 0.354c2.481 0.673 4.65 2.274 6.019 4.525 1.826 3.001 1.971 6.733 0.385 9.867-8.572 18.492-14.316 38.168-17.039 58.368-0.442 4.953-4.571 8.763-9.544 8.806h-279.552l-3.681 0.33c-9.554 1.734-16.799 10.096-16.799 20.15v552.96l0.33 3.681c1.734 9.554 10.096 16.799 20.15 16.799h187.31l3.806-0.356c6.206-1.173 11.609-5.174 14.503-10.949l33.178-66.519 3.202-5.767c14.794-24.288 41.281-39.317 70.034-39.289l367.488-0.33c9.554-1.734 16.799-10.096 16.799-20.15v-218.399l0.356-2.771c0.489-1.788 1.466-3.426 2.849-4.714 2.074-1.933 4.866-2.904 7.691-2.673 20.101 1.155 40.257 0.977 60.334-0.532 2.802-0.184 5.553 0.815 7.584 2.753s3.158 4.639 3.11 7.446v239.37l-0.248 6.402c-3.266 42.251-38.587 75.518-81.675 75.518l-375.436 0.356c-6.206 1.173-11.609 5.174-14.503 10.949l-33.178 66.314-3.191 5.784c-14.75 24.362-41.249 39.469-70.046 39.477z" />
<glyph unicode="&#xe929;" glyph-name="favorites" d="M748.999 400.782c36.616 36.616 88.6 53.399 139.715 45.109 44.41-7.203 83.593-32.606 108.723-70.475l5.167-8.304 4.407-8.184c29.656-59.319 19.819-130.424-23.587-178.969l-224.324-234.103c-11.452-11.947-29.855-13.033-42.57-3.258l-3.631 3.258-223.829 233.591c-39.266 43.823-51.428 105.649-31.582 161.773l3.4 8.811 4.103 8.903c23.166 46.312 67.18 78.666 118.294 86.957 47.92 7.772 96.604-6.493 132.673-38.477l7.042-6.632 12.999-12.985 12.999 12.985zM878.468 382.717c-28.242 4.581-56.925-3.538-78.509-21.923l-5.705-5.267-35.627-35.627c-11.361-11.361-29.138-12.393-41.666-3.098l-3.589 3.098-35.627 35.627c-22.071 22.070-53.404 32.187-84.214 27.189-28.242-4.581-52.888-21.349-67.195-44.863l-3.64-6.576-3.204-6.942c-14.157-33.825-7.948-72.628 16.006-100.717l5.404-5.849 195.054-203.52 195.616 204.007c25.856 25.849 34.699 63.638 24.307 97.107l-2.522 7.1-3.116 6.932-3.431 6.379c-14.598 25.044-39.664 42.29-68.343 46.942zM288 960c50.81 0 92.401-39.474 95.779-89.427l0.221-6.573v-32h416c50.81 0 92.401-39.474 95.779-89.427l0.221-6.573v-96h31.989c27.34 0.009 53.26-11.63 71.393-31.782l4.747-5.705c18.179-23.645 24.335-54.396 16.66-83.217-4.548-17.078-22.079-27.236-39.157-22.688-15.655 4.169-25.495 19.247-23.523 34.886l0.835 4.271c2.558 9.607 0.506 19.857-5.553 27.739-5.050 6.568-12.404 10.869-20.475 12.119l-4.916 0.377h-591.847c-12.677 0.007-23.998-7.444-29.134-18.717l-1.626-4.399-100.258-347.726c-1.281-4.543-2.848-8.938-4.677-13.169l151.542 0.011c17.673 0 32-14.327 32-32 0-16.2-12.039-29.589-27.658-31.708l-4.342-0.292h-247.595c-3.362 0-6.602 0.518-9.646 1.48l-3.84 0.412c-49.141 6.452-86.652 46.401-90.587 95.559l-0.331 7.083v631.467c0 50.81 39.474 92.401 89.427 95.779l6.573 0.221h192zM288 896h-192c-16.2 0-29.589-12.039-31.708-27.658l-0.295-4.342v-631.025c0.278-20.132 15.291-37.007 35.253-39.628 18.299-2.403 35.671 7.841 42.689 24.628l1.65 4.736 100.312 347.913c11.168 38.689 45.164 66.027 84.78 69.089l7.49 0.287h495.829v96c0 16.2-12.039 29.589-27.658 31.708l-4.342 0.292h-448c-16.2 0-29.589 12.039-31.708 27.658l-0.292 4.342v64c0 16.2-12.039 29.589-27.658 31.708l-4.342 0.292z" />
<glyph unicode="&#xe92a;" glyph-name="reminder" d="M480 959.531c85.515 0 155.361-67.087 159.778-151.503l0.222-8.497v-287.957l32-0.043c155.674 0 282.499-123.513 287.826-277.889l0.174-10.111v-256c0-17.673-14.327-32-32-32-16.2 0-29.589 12.039-31.708 27.658l-0.292 4.342v256c0 120.619-95.336 218.971-214.767 223.813l-9.233 0.187h-64c-16.2 0-29.589 12.039-31.708 27.658l-0.292 4.342-0.024 128.469h-192l0.024-320.469c0-27.013-30.945-41.247-51.341-25.521l-3.294 2.901-62.47 62.519c-31.833 30.816-82.498 30.404-113.827-0.924-29.588-29.588-31.599-76.424-6.076-108.043l4.79-5.415 222.848-222.891c12.496-12.498 12.494-32.759-0.004-45.255-11.362-11.36-29.14-12.391-41.666-3.094l-3.589 3.099-223.21 223.259c-55.118 56.938-54.383 147.56 1.653 203.596 53.96 53.96 139.993 56.641 197.472 7.215l6.502-5.934 8.213-8.198-0.024 222.933-145.666-72.867c-15.807-7.904-35.029-1.496-42.933 14.311-7.245 14.49-2.465 31.849 10.558 40.729l3.753 2.203 134.759 67.378-134.759 67.378c-14.49 7.245-21.081 24-15.991 38.918l1.681 4.014c7.245 14.49 24 21.081 38.918 15.991l4.014-1.681 145.666-72.867 0.024 108.245c0 85.515 67.087 155.361 151.503 159.778l8.497 0.222zM480 895.531c-50.81 0-92.401-39.474-95.779-89.427l-0.221-6.573-0.024-127.531h192l0.024 127.531c0 53.019-42.981 96-96 96z" />
<glyph unicode="&#xe92b;" glyph-name="reminder-bold" d="M506.112 640h-128l-3.835-0.344c-9.952-1.806-17.499-10.517-17.499-20.99v-301.995l-0.343-2.708c-0.906-3.48-3.536-6.342-7.078-7.474-4.428-1.414-9.262 0.202-11.949 3.995l-71.296 100.139-4.176 5.304c-20.343 23.831-52.375 34.662-83.293 27.669-33.127-7.493-58.602-34.005-64.766-67.405-4.116-22.297 0.979-45.311 14.123-63.787l253.909-358.4 3.24-4.032c8.071-8.883 19.586-14.021 31.747-13.973l376.922 0.307c16.847 2.031 31.104 13.959 35.878 30.583l64.768 225.792 4.476 17.246c8.278 34.642 12.508 70.148 12.591 105.805v110.933l-0.276 7.505c-2.868 39.755-27.892 74.829-65.090 90.287-6.588 2.773-14.127 2.063-20.081-1.892s-9.532-10.629-9.529-17.777v-78.123l-0.344-3.835c-1.806-9.952-10.517-17.499-20.99-17.499-11.782 0-21.333 9.551-21.333 21.333v117.589l-3.291 5.13c-11.716 16.465-30.701 26.463-51.152 26.614h-9.557l-3.835-0.344c-9.952-1.806-17.499-10.517-17.499-20.99v-85.333l-0.344-3.835c-1.806-9.952-10.517-17.499-20.99-17.499-11.782 0-21.333 9.551-21.333 21.333v117.589l-3.291 5.13c-11.716 16.465-30.701 26.463-51.152 26.614-11.782 0-21.333-9.551-21.333-21.333v-128l-0.344-3.835c-1.806-9.952-10.517-17.499-20.99-17.499-11.782 0-21.333 9.551-21.333 21.333v149.333l-0.344 3.835c-1.806 9.952-10.517 17.499-20.99 17.499zM238.080 858.667c-14.716-18.415-11.717-45.274 6.699-59.989l54.613-43.477 1.699-1.701c1.487-1.87 2.319-4.205 2.319-6.641 0-3.247-1.479-6.317-4.018-8.341l-54.613-43.819-3.975-3.602c-14.797-15.196-16.307-39.388-2.724-56.387 14.716-18.415 41.574-21.414 59.989-6.699l89.173 71.339 2.995 1.999c3.142 1.733 6.689 2.654 10.317 2.652h105.557l3.835 0.344c9.952 1.806 17.499 10.517 17.499 20.99v42.667l-0.344 3.835c-1.806 9.952-10.517 17.499-20.99 17.499h-105.557l-3.588 0.301c-3.538 0.601-6.887 2.089-9.724 4.349l-89.173 71.381-4.39 3.083c-18.085 11.081-42.015 7.218-55.599-9.781zM442.112 960c-47.128 0-85.333-38.205-85.333-85.333 0-11.782 9.551-21.333 21.333-21.333h128l3.835 0.344c9.952 1.806 17.499 10.517 17.499 20.99 0 47.128-38.205 85.333-85.333 85.333z" />
<glyph unicode="&#xe92c;" glyph-name="rewards" d="M512 960c282.77 0 512-229.23 512-512s-229.23-512-512-512c-282.77 0-512 229.23-512 512s229.23 512 512 512zM512 896c-247.424 0-448-200.576-448-448s200.576-448 448-448c247.424 0 448 200.576 448 448s-200.576 448-448 448zM512 626.763c14.856 0 29.179-5.169 40.553-14.498l4.687-4.25 85.106-85.091 85.632 68.449c15.711 12.59 36.19 16.898 55.268 12.217l6.299-1.894 6.145-2.566c20.339-9.761 33.9-29.42 36.019-51.586l0.291-6.102v-189.44c0-50.81-39.474-92.401-89.427-95.779l-6.573-0.221h-448c-50.81 0-92.401 39.474-95.779 89.427l-0.221 6.573v189.44c0 24.612 14.122 47.040 36.31 57.688 20.168 9.679 43.757 8.066 62.292-3.856l5.4-3.885 85.609-68.507 85.132 85.118c8.998 9.011 20.406 15.061 32.71 17.522l6.22 0.929 6.327 0.314zM512 562.773l-105.373-105.401c-10.377-10.377-26.283-12.238-38.643-5.080l-3.976 2.721-108.009 86.384v-189.397c0-14.728 9.949-27.131 23.493-30.857l4.165-0.851 4.342-0.292h448c16.2 0 29.589 12.039 31.708 27.658l0.292 4.342v189.43l-108.009-86.417c-11.459-9.168-27.474-9.262-38.967-0.784l-3.651 3.143-105.373 105.401z" />
<glyph unicode="&#xe92d;" glyph-name="rewards-bold" d="M1024 448c0 282.77-229.23 512-512 512s-512-229.23-512-512c0-282.77 229.23-512 512-512 135.791 0 266.020 53.943 362.039 149.961s149.961 226.248 149.961 362.039zM277.333 298.667c-23.564 0-42.667 19.103-42.667 42.667v225.835c0 8.633 5.206 16.413 13.184 19.711s17.157 1.462 23.253-4.65l96.597-96.597c4.201-4.2 9.962-6.459 15.898-6.232s11.508 2.918 15.376 7.426l96.811 112.939c4.053 4.74 9.977 7.468 16.213 7.468s12.16-2.729 16.213-7.468l97.749-114.048c3.706-4.327 8.989-6.991 14.671-7.4s11.292 1.472 15.579 5.224l119.083 104.149c6.287 5.494 15.2 6.815 22.811 3.382s12.518-10.99 12.56-19.339v-230.4c0-23.564-19.103-42.667-42.667-42.667h-490.667z" />
<glyph unicode="&#xe92e;" glyph-name="playsmall-bold" d="M789.261 482.642l-519.845 259.955c-12.016 5.974-26.265 5.315-37.678-1.742s-18.37-19.511-18.396-32.93v-519.885c0.021-13.421 6.978-25.877 18.395-32.931s25.668-7.703 37.679-1.717l519.845 259.93c13.125 6.566 21.415 19.983 21.415 34.66s-8.29 28.094-21.415 34.66z" />
<glyph unicode="&#xe92f;" glyph-name="playsmall" d="M244.732 737.992c-19.477-11.038-31.399-30.953-31.399-52.447v-475.089c0-21.495 11.921-41.41 31.399-52.447s43.648-11.576 63.652-1.416l468.23 237.54c20.969 10.645 34.052 31.344 34.052 53.868s-13.083 43.222-34.047 53.865l-468.245 237.547c-18.457 9.374-40.471 9.637-59.069 0.94l-4.574-2.361zM301.649 680.465l434.491-216.132c6.479-3.225 10.526-9.503 10.526-16.333s-4.047-13.109-10.531-16.337l-434.478-216.125c-6.196-3.086-13.672-2.922-19.696 0.425s-9.712 9.388-9.712 15.909v432.255c0 6.521 3.688 12.561 9.712 15.909s13.5 3.511 19.688 0.429z" />
<glyph unicode="&#xe930;" glyph-name="signout-bold" d="M533.333 938.667c44.986 0 81.842-34.811 85.099-78.965l0.234-6.369v-128c0-23.564-19.103-42.667-42.667-42.667-21.881 0-39.915 16.471-42.38 37.691l-0.287 4.976v106.667c0 10.473-7.547 19.183-17.499 20.99l-3.835 0.344h-405.333c-10.473 0-19.183-7.547-20.99-17.499l-0.344-3.835v-768c0-10.473 7.547-19.183 17.499-20.99l3.835-0.344h405.333c10.473 0 19.183 7.547 20.99 17.499l0.344 3.835v106.667c0 23.564 19.103 42.667 42.667 42.667 21.881 0 39.915-16.471 42.38-37.691l0.287-4.976v-128c0-44.986-34.811-81.842-78.965-85.099l-6.369-0.234h-448c-44.986 0-81.842 34.811-85.099 78.965l-0.234 6.369v810.667c0 44.986 34.811 81.842 78.965 85.099l6.369 0.234h448zM743.944 635.692l5.070-2.903 256-170.667c11.868-7.871 18.996-21.192 18.996-35.456 0-12.481-5.458-24.24-14.773-32.286l-4.224-3.212-256-170.667c-7.012-4.676-15.252-7.168-23.68-7.168-21.756 0.298-39.62 16.63-42.318 37.72l-0.348 4.946v106.667h-384c-22.865 0-43.993 12.198-55.426 32s-11.432 44.198 0 64c10.393 18.002 28.799 29.719 49.239 31.701l6.187 0.299h384v106.667c0.013 15.732 8.682 30.179 22.557 37.594 12.14 6.488 26.542 6.67 38.72 0.765z" />
<glyph unicode="&#xe931;" glyph-name="signout" d="M615.396 927.96l-525.241 0.040-6.822-0.568c-47.189-5.566-82.24-44.074-83.371-90.251l-0.025-779.643c1.241-47.088 39.558-87.018 88.602-89.497l525.263-0.041 6.821 0.568c49.435 5.829 85.558 47.794 83.344 96.874l0.033 190.557-0.292 4.342c-2.119 15.619-15.508 27.658-31.708 27.658-17.673 0-32-14.327-32-32v-192l-0.079-4.304c-1.259-15.447-12.939-26.999-27.711-27.736l-525.948 0.563c-12.749 2.756-22.956 15.387-22.295 30.033l0.109 773.749c1.247 15.452 12.914 26.998 27.671 27.734l525.955-0.561c12.773-2.75 22.991-15.384 22.329-30.037l-0.033-193.443 0.292-4.342c2.119-15.619 15.508-27.658 31.708-27.658 17.673 0 32 14.327 32 32l0.064 198.466c-1.246 47.111-39.599 87.049-88.668 89.494zM851.038 633.555c-12.527 9.295-30.305 8.262-41.666-3.098l-3.098-3.589c-9.295-12.527-8.262-30.305 3.098-41.666l105.338-105.373-599.052-0.292c-15.619-2.119-27.658-15.508-27.658-31.708 0-17.673 14.327-32 32-32h594.71l-105.338-105.373-3.098-3.589c-9.295-12.527-8.262-30.305 3.098-41.666 12.497-12.497 32.758-12.497 45.255 0l160 160 2.705 3.073 1.869 2.691 1.344 2.381 1.5 3.445 0.975 3.148 0.355 1.579 0.534 3.876 0.091 2.434c0 1.518-0.106 3.011-0.309 4.447l-0.136 0.885-1.127 4.595-1.737 4.263-2.199 3.77c-1.118 1.645-2.406 3.209-3.865 4.668l3.168-3.687c-0.962 1.309-2.022 2.541-3.168 3.687l-160 160-3.589 3.098z" />
<glyph unicode="&#xe932;" glyph-name="rewind-bold" d="M917.333 900.907l-323.499-292.139c-3.125-2.835-7.627-3.562-11.485-1.855s-6.347 5.529-6.35 9.748v235.776c0.306 25.378-14.413 48.538-37.519 59.037s-50.233 6.353-69.148-10.568l-447.787-404.395c-13.601-12.455-21.346-30.049-21.346-48.491s7.745-36.036 21.346-48.491l447.787-404.395c18.915-16.921 46.042-21.067 69.148-10.568s37.825 33.66 37.519 59.037v235.733c0.002 4.219 2.491 8.041 6.35 9.748s8.36 0.98 11.485-1.855l323.499-292.096c18.915-16.921 46.042-21.067 69.148-10.568s37.825 33.66 37.524 59.037v808.832c0.301 25.378-14.418 48.538-37.524 59.037s-50.233 6.353-69.148-10.568z" />
<glyph unicode="&#xe933;" glyph-name="rewind" d="M640 681.557v123.605c0.001 23.768-13.171 45.58-34.208 56.645s-46.474 9.559-66.059-3.911l-512.175-357.284c-17.187-11.817-27.561-31.54-27.561-52.613s10.374-40.796 27.738-52.736l511.823-357.040c19.76-13.591 45.196-15.096 66.233-4.032l5.538 3.278c17.785 11.769 28.671 31.76 28.67 53.369l-0.043 123.646 285.016-177.193c18.345-12.658 43.781-14.164 64.819-3.099s34.208 32.876 34.208 56.645v714.325c0 23.769-13.171 45.58-34.208 56.645-19.125 10.059-41.885 9.729-60.58-0.534l-289.212-179.716zM575.957 90.88l-511.938 357.105 511.98 357.178v-181.163c0-25.099 27.577-40.428 48.893-27.177l335.107 208.34-0.043-714.283-338.884 210.343c-20.645 9.368-45.074-5.6-45.074-29.223l-0.043-181.12z" />
<glyph unicode="&#xe934;" glyph-name="trash" d="M960 800c17.673 0 32-14.327 32-32 0-16.2-12.039-29.589-27.658-31.708l-4.342-0.292h-66.56l-56.643-679.936c-3.941-47.511-42.027-84.559-88.921-87.829l-6.756-0.235h-458.197c-47.675 0-87.749 34.889-94.884 81.339l-0.792 6.712-56.729 679.949h-66.517c-17.673 0-32 14.327-32 32 0 16.2 12.039 29.589 27.658 31.708l4.342 0.292h256v32c0 50.81 39.474 92.401 89.427 95.779l6.573 0.221h192c50.81 0 92.401-39.474 95.779-89.427l0.221-6.573v-32h256zM829.184 736h-634.411l56.253-674.645c1.126-13.574 10.614-24.587 23.148-28.143l4.283-0.902 4.465-0.31h458.197c15.138 0 27.975 10.549 31.219 24.94l0.678 4.426 56.167 674.634zM416 576c-17.673 0-32-14.327-32-32v-320l0.292-4.342c2.119-15.619 15.508-27.658 31.708-27.658 17.673 0 32 14.327 32 32v320l-0.292 4.342c-2.119 15.619-15.508 27.658-31.708 27.658zM608 576c-17.673 0-32-14.327-32-32v-320l0.292-4.342c2.119-15.619 15.508-27.658 31.708-27.658 17.673 0 32 14.327 32 32v320l-0.292 4.342c-2.119 15.619-15.508 27.658-31.708 27.658zM608 864h-192c-16.2 0-29.589-12.039-31.708-27.658l-0.292-4.342v-32h256v32c0 14.728-9.949 27.131-23.493 30.857l-4.165 0.851-4.342 0.292z" />
<glyph unicode="&#xe935;" glyph-name="trash-bold" d="M829.952 640c5.992 0 11.706-2.529 15.744-6.955 3.233-3.536 5.158-8.028 5.525-12.737l-0.021-3.561-54.827-603.136c-3.795-41.76-37.249-74.219-78.429-77.361l-6.563-0.249h-398.805c-41.932 0-77.293 30.371-84.15 71.097l-0.842 6.514-54.912 603.136c-0.541 5.983 1.466 11.916 5.527 16.342 3.249 3.541 7.571 5.855 12.246 6.627l3.561 0.285h635.947zM405.419 501.333c-16.2 0-29.589-12.039-31.708-27.658l-0.292-4.342v-384c0-17.673 14.327-32 32-32 16.2 0 29.589 12.039 31.708 27.658l0.292 4.342v384c0 17.673-14.327 32-32 32zM618.752 501.333c-16.2 0-29.589-12.039-31.708-27.658l-0.292-4.342v-384c0-17.673 14.327-32 32-32 16.2 0 29.589 12.039 31.708 27.658l0.292 4.342v384c0 17.673-14.327 32-32 32zM618.667 960c56.554 0 102.828-44.012 106.44-99.653l0.227-7.013v-53.333c0-5.049 3.509-9.279 8.221-10.385l2.446-0.282h202.667c23.564 0 42.667-19.103 42.667-42.667 0-21.881-16.471-39.915-37.691-42.38l-4.976-0.287h-853.333c-23.564 0-42.667 19.103-42.667 42.667 0 21.881 16.471 39.915 37.691 42.38l4.976 0.287h202.667c2.829 0 5.542 1.124 7.542 3.124 1.334 1.334 2.278 2.984 2.759 4.774l0.365 2.768v53.333c0 56.554 44.012 102.828 99.653 106.44l7.013 0.227h213.333zM618.667 874.667h-213.333c-10.473 0-19.183-7.547-20.99-17.499l-0.344-3.835v-53.333c0-5.049 3.509-9.279 8.221-10.385l2.446-0.282h234.667c5.049 0 9.279 3.509 10.385 8.221l0.282 2.446v53.333c0 10.473-7.547 19.183-17.499 20.99l-3.835 0.344z" />
<glyph unicode="&#xe936;" glyph-name="minicard" d="M618.667 960c50.81 0 92.401-39.474 95.779-89.427l0.1-3.373 153.166-41.591c24.603-6.624 45.563-22.757 58.264-44.845 11.289-19.634 15.229-42.541 11.288-64.686l-1.849-8.261-117.432-432.431c-13.357-48.89-62.187-78.587-111.114-68.905l-6.669 1.566-178.999 48.495c0.553-5.089 0.951-10.206 1.191-15.345l0.274-11.693-0.036-101.504h32.036c16.2 0 29.589-12.039 31.708-27.658l0.292-4.342v-128c0-17.673-14.327-32-32-32-16.2 0-29.589 12.039-31.708 27.658l-0.292 4.342v96h-320v-96c0-16.2-12.039-29.589-27.658-31.708l-4.342-0.292c-16.2 0-29.589 12.039-31.708 27.658l-0.292 4.342v128c0 16.2 12.039 29.589 27.658 31.708l4.342 0.292h15.665l-92.344 217.897c-17.668 39.686-23.36 83.576-16.362 126.979l2.224 11.821 71.432 292.139c12.941 60.402 61.022 105.818 120.045 116.676 11.746 36.566 44.923 63.572 84.768 66.266l6.573 0.221h256zM296.51 384.066l2.157-0.066c-5.891 0-11.41 1.592-16.151 4.369l-0.317 0.194-3.086 2.105c-0.135 0.105-0.27 0.21-0.403 0.317l3.489-2.422c-1.776 1.066-3.411 2.277-4.9 3.609-0.615 0.559-1.228 1.153-1.816 1.771-0.495 0.508-0.965 1.036-1.416 1.578-0.458 0.562-0.913 1.146-1.347 1.747-0.411 0.56-0.795 1.131-1.159 1.712-0.408 0.653-0.803 1.333-1.172 2.029-0.301 0.573-0.575 1.131-0.832 1.697-0.423 0.91-0.812 1.879-1.153 2.87-0.107 0.335-0.214 0.664-0.316 0.994-0.322 1.017-0.585 2.054-0.797 3.109-0.083 0.444-0.161 0.875-0.23 1.308-0.037 0.208-0.071 0.439-0.102 0.671l-0.292 4.342-0.009 409.869c-24.285-9.693-43.488-30.2-51.298-56.636l-1.705-6.698-71.436-292.158c-6.396-29.765-4.132-60.666 6.581-89.46l3.884-9.516 103.146-243.401h202.837v101.5c-0.005 46.165-17.123 90.563-47.84 124.715l-6.789 7.158c-7.919 7.92-11.042 19.303-8.514 29.987l1.432 4.524 42.631 106.578c2.261 5.703 2.075 12.085-0.515 17.646s-7.355 9.811-13.193 11.756c-8.673 2.895-18.086 0.174-23.911-6.575l-2.264-3.134-73.217-121.979c-0.819-1.437-1.746-2.804-2.769-4.090l2.386 3.445c-0.778-1.297-1.634-2.519-2.558-3.663-0.783-0.962-1.614-1.874-2.495-2.736-0.542-0.543-1.123-1.072-1.722-1.578-0.469-0.386-0.947-0.768-1.435-1.136-0.511-0.392-1.032-0.759-1.562-1.11-0.631-0.415-1.291-0.819-1.967-1.2-0.472-0.265-0.939-0.512-1.41-0.746-0.743-0.376-1.531-0.731-2.335-1.055-0.439-0.169-0.847-0.322-1.258-0.468-0.9-0.328-1.848-0.617-2.814-0.862-0.237-0.052-0.478-0.111-0.719-0.166-0.922-0.218-1.865-0.39-2.821-0.52l-0.613-0.076c-0.085-0.010-0.17-0.020-0.255-0.029-1.122-0.123-2.291-0.187-3.475-0.187-0.966 0.003-1.562 0.026-2.157 0.066zM714.631 800.853l0.036-384.853c0-50.81-39.474-92.401-89.427-95.779l-6.573-0.221h-87.033l185.338-50.19c15.622-4.253 31.694 3.833 37.84 18.297l1.422 4.098 117.41 432.352c2.217 8.199 1.084 16.942-3.149 24.305-3.387 5.89-8.536 10.51-14.69 13.261l-4.792 1.704-136.38 37.027zM618.667 896h-256c-16.2 0-29.589-12.039-31.708-27.658l-0.292-4.342-0.036-332.501 14.183 23.567c20.796 34.724 62.936 50.322 101.311 37.513 22.513-7.5 40.946-23.938 50.964-45.45 8.905-19.121 10.463-40.752 4.531-60.877l-2.576-7.469-35.258-88.041 1.223-1.367 4.245-5.374h149.412c16.2 0 29.589 12.039 31.708 27.658l0.292 4.342v448c0 16.2-12.039 29.589-27.658 31.708l-4.342 0.292z" />
<glyph unicode="&#xe937;" glyph-name="minicard-bold" d="M1019.264 631.467c5.596 23.197 1.707 47.668-10.803 67.988s-32.61 34.81-55.842 40.258l-160 38.059c-4.809 1.131-8.204 5.428-8.192 10.368v47.872c-0.071 49.614-40.285 89.809-89.899 89.856h-359.637c-49.614-0.047-89.828-40.242-89.899-89.856v-202.325c-0.003-2.515-0.895-4.948-2.517-6.869-56.619-66.901-154.752-129.749-154.752-199.808v-204.8l-84.864-237.867c-1.142-3.244-0.65-6.839 1.322-9.657s5.181-4.512 8.62-4.551h255.147c2.832-0.011 5.552 1.109 7.555 3.112s3.123 4.723 3.112 7.555v89.856c-0.014 2.883 1.159 5.645 3.243 7.637 12.843 12.544 59.477 60.843 59.477 98.688v65.792c-0.012 2.803 1.076 5.499 3.029 7.509l112.64 114.347c24.114 26.654 23.147 67.519-2.2 93.002s-66.207 26.67-92.989 2.699c-4.267-3.84-15.147-9.259-10.88-6.699-3.298-1.966-7.398-2.007-10.735-0.109s-5.397 5.443-5.393 9.283v362.667c0 5.891 4.776 10.667 10.667 10.667h338.304c5.891 0 10.667-4.776 10.667-10.667v-518.272c0-5.891-4.776-10.667-10.667-10.667h-225.365c-16.389 0.505-31.754-7.95-40.098-22.065s-8.344-31.653 0-45.768c8.344-14.115 23.709-22.57 40.098-22.065h236.117c49.63 0.047 89.852 40.269 89.899 89.899v377.259c0.002 3.263 1.498 6.345 4.060 8.367s5.908 2.758 9.082 2.001l123.733-29.44c5.703-1.371 9.229-7.089 7.893-12.8l-119.595-504.107c-1.371-5.703-7.089-9.229-12.8-7.893l-164.651 39.125c-24.165 5.75-48.416-9.179-54.165-33.344s9.179-48.416 33.344-54.165l174.933-41.557c23.207-5.555 47.67-1.624 67.968 10.923 20.347 12.45 34.855 32.536 40.277 55.765l124.757 524.8z" />
<glyph unicode="&#xe938;" glyph-name="qrcode" d="M276.48 256c16.2 0 29.589-12.039 31.708-27.658l0.292-4.342v-256c0-16.2-12.039-29.589-27.658-31.708l-4.342-0.292h-245.76c-16.2 0-29.589 12.039-31.708 27.658l-0.292 4.342v256c0 16.2 12.039 29.589 27.658 31.708l4.342 0.292h245.76zM952.32 256h-122.88l-4.342-0.292c-15.619-2.119-27.658-15.508-27.658-31.708l0.292-4.342c2.119-15.619 15.508-27.658 31.708-27.658h90.88v-64h-90.88l-4.342-0.292c-15.619-2.119-27.658-15.508-27.658-31.708v-128l0.292-4.342c2.119-15.619 15.508-27.658 31.708-27.658h122.88l4.342 0.292c15.619 2.119 27.658 15.508 27.658 31.708l-0.292 4.342c-2.119 15.619-15.508 27.658-31.708 27.658h-90.88v64h90.88l4.342 0.292c15.619 2.119 27.658 15.508 27.658 31.708v128l-0.292 4.342c-2.119 15.619-15.508 27.658-31.708 27.658zM399.36 256c-17.673 0-32-14.327-32-32v-256l0.292-4.342c2.119-15.619 15.508-27.658 31.708-27.658h184.32l4.342 0.292c15.619 2.119 27.658 15.508 27.658 31.708l-0.292 4.342c-2.119 15.619-15.508 27.658-31.708 27.658h-152.32v224l-0.292 4.342c-2.119 15.619-15.508 27.658-31.708 27.658zM706.56 256c-17.673 0-32-14.327-32-32v-256l0.292-4.342c2.119-15.619 15.508-27.658 31.708-27.658 17.673 0 32 14.327 32 32v256l-0.292 4.342c-2.119 15.619-15.508 27.658-31.708 27.658zM244.437 192h-181.717v-192h181.717v192zM583.68 256h-61.44l-4.342-0.292c-15.619-2.119-27.658-15.508-27.658-31.708l0.292-4.342c2.119-15.619 15.508-27.658 31.708-27.658h29.44v-64h-29.44l-4.342-0.292c-15.619-2.119-27.658-15.508-27.658-31.708 0-17.673 14.327-32 32-32h61.44l4.342 0.292c15.619 2.119 27.658 15.508 27.658 31.708v128l-0.292 4.342c-2.119 15.619-15.508 27.658-31.708 27.658zM30.72 448c-17.673 0-32-14.327-32-32v-64l0.292-4.342c2.119-15.619 15.508-27.658 31.708-27.658h61.44l4.342 0.292c15.619 2.119 27.658 15.508 27.658 31.708l-0.292 4.342c-2.119 15.619-15.508 27.658-31.708 27.658h-29.44v32l-0.292 4.342c-2.119 15.619-15.508 27.658-31.708 27.658zM276.48 384h-61.44l-4.342-0.292c-15.619-2.119-27.658-15.508-27.658-31.708 0-17.673 14.327-32 32-32h61.44l4.342 0.292c15.619 2.119 27.658 15.508 27.658 31.708 0 17.673-14.327 32-32 32zM399.36 448c-17.673 0-32-14.327-32-32v-64l0.292-4.342c2.119-15.619 15.508-27.658 31.708-27.658h61.44l4.342 0.292c15.619 2.119 27.658 15.508 27.658 31.708l-0.292 4.342c-2.119 15.619-15.508 27.658-31.708 27.658h-29.44v32l-0.292 4.342c-2.119 15.619-15.508 27.658-31.708 27.658zM645.12 512c-17.673 0-32-14.327-32-32v-96h-29.44l-4.342-0.292c-15.619-2.119-27.658-15.508-27.658-31.708 0-17.673 14.327-32 32-32h122.88l4.342 0.292c15.619 2.119 27.658 15.508 27.658 31.708 0 17.673-14.327 32-32 32h-29.44v96l-0.292 4.342c-2.119 15.619-15.508 27.658-31.708 27.658zM952.32 416c-17.673 0-32-14.327-32-32v-32l0.292-4.342c2.119-15.619 15.508-27.658 31.708-27.658 17.673 0 32 14.327 32 32v32l-0.292 4.342c-2.119 15.619-15.508 27.658-31.708 27.658zM768 576c-17.673 0-32-14.327-32-32v-64l0.292-4.342c2.119-15.619 15.508-27.658 31.708-27.658h29.397l0.043-64 0.292-4.342c2.119-15.619 15.508-27.658 31.708-27.658 17.673 0 32 14.327 32 32v96l-0.292 4.342c-2.119 15.619-15.508 27.658-31.708 27.658h-29.44v32l-0.292 4.342c-2.119 15.619-15.508 27.658-31.708 27.658zM276.48 576h-245.76l-4.342-0.292c-15.619-2.119-27.658-15.508-27.658-31.708l0.292-4.342c2.119-15.619 15.508-27.658 31.708-27.658h213.717l0.043-32 0.292-4.342c2.119-15.619 15.508-27.658 31.708-27.658 17.673 0 32 14.327 32 32v64l-0.292 4.342c-2.119 15.619-15.508 27.658-31.708 27.658zM522.24 576h-122.88l-4.342-0.292c-15.619-2.119-27.658-15.508-27.658-31.708l0.292-4.342c2.119-15.619 15.508-27.658 31.708-27.658h90.88v-32l0.292-4.342c2.119-15.619 15.508-27.658 31.708-27.658 17.673 0 32 14.327 32 32v64l-0.292 4.342c-2.119 15.619-15.508 27.658-31.708 27.658zM952.32 576c-17.673 0-32-14.327-32-32v-64l0.292-4.342c2.119-15.619 15.508-27.658 31.708-27.658 17.673 0 32 14.327 32 32v64l-0.292 4.342c-2.119 15.619-15.508 27.658-31.708 27.658zM276.48 960c16.2 0 29.589-12.039 31.708-27.658l0.292-4.342v-256c0-16.2-12.039-29.589-27.658-31.708l-4.342-0.292h-245.76c-16.2 0-29.589 12.039-31.708 27.658l-0.292 4.342v256c0 16.2 12.039 29.589 27.658 31.708l4.342 0.292h245.76zM952.32 960c16.2 0 29.589-12.039 31.708-27.658l0.292-4.342v-256c0-16.2-12.039-29.589-27.658-31.708l-4.342-0.292h-245.76c-16.2 0-29.589 12.039-31.708 27.658l-0.292 4.342v256c0 16.2 12.039 29.589 27.658 31.708l4.342 0.292h245.76zM583.68 832l-4.342-0.292c-15.619-2.119-27.658-15.508-27.658-31.708v-96h-152.32l-4.342-0.292c-15.619-2.119-27.658-15.508-27.658-31.708 0-17.673 14.327-32 32-32h184.32l4.342 0.292c15.619 2.119 27.658 15.508 27.658 31.708v128l-0.292 4.342c-2.119 15.619-15.508 27.658-31.708 27.658zM244.437 896h-181.717v-192h181.717v192zM920.32 896h-181.76v-192h181.76v192zM399.36 960c-17.673 0-32-14.327-32-32v-128l0.292-4.342c2.119-15.619 15.508-27.658 31.708-27.658h92.16l4.342 0.292c15.619 2.119 27.658 15.508 27.658 31.708l-0.292 4.342c-2.119 15.619-15.508 27.658-31.708 27.658h-60.16v96l-0.292 4.342c-2.119 15.619-15.508 27.658-31.708 27.658zM583.68 960h-92.16l-4.342-0.292c-15.619-2.119-27.658-15.508-27.658-31.708 0-17.673 14.327-32 32-32h92.16l4.342 0.292c15.619 2.119 27.658 15.508 27.658 31.708 0 17.673-14.327 32-32 32z" />
<glyph unicode="&#xe939;" glyph-name="qrcode-bold" d="M298.667 277.333c21.881 0 39.915-16.471 42.38-37.691l0.287-4.976v-256c0-21.881-16.471-39.915-37.691-42.38l-4.976-0.287h-256c-21.881 0-39.915 16.471-42.38 37.691l-0.287 4.976v256c0 21.881 16.471 39.915 37.691 42.38l4.976 0.287h256zM576 138.667c-17.673 0-32-14.327-32-32v-128l0.292-4.342c2.119-15.619 15.508-27.658 31.708-27.658l409.675 0.292c15.619 2.119 27.658 15.508 27.658 31.708 0 17.673-14.327 32-32 32l-365.113 0.282c-4.712 1.106-8.221 5.335-8.221 10.385v85.333l-0.292 4.342c-2.119 15.619-15.508 27.658-31.708 27.658zM245.333 192h-149.333c-5.049 0-9.279-3.509-10.385-8.221l-0.282-2.446v-149.333c0-5.049 3.509-9.279 8.221-10.385l2.446-0.282h149.333c5.049 0 9.279 3.509 10.385 8.221l0.282 2.446v149.333c0 5.049-3.509 9.279-8.221 10.385l-2.446 0.282zM554.667 266.667h-128l-4.342-0.292c-15.619-2.119-27.658-15.508-27.658-31.708v-170.667l0.292-4.342c2.119-15.619 15.508-27.658 31.708-27.658 17.673 0 32 14.327 32 32v128l0.282 2.446c1.106 4.712 5.335 8.221 10.385 8.221h85.333l4.342 0.292c15.619 2.119 27.658 15.508 27.658 31.708 0 17.673-14.327 32-32 32zM960 416c-17.673 0-32-14.327-32-32v-277.333l0.292-4.342c2.119-15.619 15.508-27.658 31.708-27.658 17.673 0 32 14.327 32 32v277.333l-0.292 4.342c-2.119 15.619-15.508 27.658-31.708 27.658zM832 288c16.2 0 29.589-12.039 31.708-27.658l0.292-4.342v-128c0-16.2-12.039-29.589-27.658-31.708l-4.342-0.292h-128c-16.2 0-29.589 12.039-31.708 27.658l-0.292 4.342v128c0 16.2 12.039 29.589 27.658 31.708l4.342 0.292h128zM789.333 224h-42.667c-5.049 0-9.279-3.509-10.385-8.221l-0.282-2.446v-42.667c0-5.049 3.509-9.279 8.221-10.385l2.446-0.282h42.667c5.049 0 9.279 3.509 10.385 8.221l0.282 2.446v42.667c0 5.049-3.509 9.279-8.221 10.385l-2.446 0.282zM128 544c-17.673 0-32-14.327-32-32v-106.667l-0.282-2.446c-1.106-4.712-5.335-8.221-10.385-8.221h-42.667l-4.342-0.292c-15.619-2.119-27.658-15.508-27.658-31.708 0-17.673 14.327-32 32-32l559.009 0.292c15.619 2.119 27.658 15.508 27.658 31.708v128l-0.292 4.342c-2.119 15.619-15.508 27.658-31.708 27.658-17.673 0-32-14.327-32-32v-85.333l-0.282-2.446c-1.106-4.712-5.335-8.221-10.385-8.221l-386.446 0.282c-4.712 1.106-8.221 5.335-8.221 10.385v106.667l-0.292 4.342c-2.119 15.619-15.508 27.658-31.708 27.658zM960 565.333h-234.667l-4.342-0.292c-15.619-2.119-27.658-15.508-27.658-31.708v-128l0.292-4.342c2.119-15.619 15.508-27.658 31.708-27.658 17.673 0 32 14.327 32 32v85.333l0.282 2.446c1.106 4.712 5.335 8.221 10.385 8.221h192l4.342 0.292c15.619 2.119 27.658 15.508 27.658 31.708 0 17.673-14.327 32-32 32zM426.667 714.667c-17.673 0-32-14.327-32-32v-128l-0.282-2.446c-1.106-4.712-5.335-8.221-10.385-8.221h-106.667l-4.342-0.292c-15.619-2.119-27.658-15.508-27.658-31.708 0-17.673 14.327-32 32-32h149.333l4.342 0.292c15.619 2.119 27.658 15.508 27.658 31.708v170.667l-0.292 4.342c-2.119 15.619-15.508 27.658-31.708 27.658zM597.333 949.333h-42.667l-4.342-0.292c-15.619-2.119-27.658-15.508-27.658-31.708 0-17.673 14.327-32 32-32l2.446-0.282c4.712-1.106 8.221-5.335 8.221-10.385v-234.667l0.292-4.342c2.119-15.619 15.508-27.658 31.708-27.658 17.673 0 32 14.327 32 32v277.333l-0.292 4.342c-2.119 15.619-15.508 27.658-31.708 27.658zM298.667 960c21.881 0 39.915-16.471 42.38-37.691l0.287-4.976v-256c0-21.881-16.471-39.915-37.691-42.38l-4.976-0.287h-256c-21.881 0-39.915 16.471-42.38 37.691l-0.287 4.976v256c0 21.881 16.471 39.915 37.691 42.38l4.976 0.287h256zM981.333 960c21.881 0 39.915-16.471 42.38-37.691l0.287-4.976v-256c0-21.881-16.471-39.915-37.691-42.38l-4.976-0.287h-256c-21.881 0-39.915 16.471-42.38 37.691l-0.287 4.976v256c0 21.881 16.471 39.915 37.691 42.38l4.976 0.287h256zM245.333 874.667h-149.333c-5.049 0-9.279-3.509-10.385-8.221l-0.282-2.446v-149.333c0-5.049 3.509-9.279 8.221-10.385l2.446-0.282h149.333c5.049 0 9.279 3.509 10.385 8.221l0.282 2.446v149.333c0 5.049-3.509 9.279-8.221 10.385l-2.446 0.282zM928 874.667h-149.333c-5.049 0-9.279-3.509-10.385-8.221l-0.282-2.446v-149.333c0-5.049 3.509-9.279 8.221-10.385l2.446-0.282h149.333c5.049 0 9.279 3.509 10.385 8.221l0.282 2.446v149.333c0 5.049-3.509 9.279-8.221 10.385l-2.446 0.282zM426.667 949.333c-17.673 0-32-14.327-32-32v-106.667l0.292-4.342c2.119-15.619 15.508-27.658 31.708-27.658h42.667l4.342 0.292c15.619 2.119 27.658 15.508 27.658 31.708 0 17.673-14.327 32-32 32-5.891 0-10.667 4.776-10.667 10.667v64l-0.292 4.342c-2.119 15.619-15.508 27.658-31.708 27.658z" />
<glyph unicode="&#xe93a;" glyph-name="gift" d="M160-64c-53.019 0-96 42.981-96 96v0 416c-35.346 0-64 28.654-64 64v0 96c0 53.019 42.981 96 96 96v0l189.941-0.057c-74.683 53.467-125.941 135.113-125.941 224.057 0 17.673 14.327 32 32 32 152.736 0 298.296-115.072 317.791-256.021h4.418c19.495 140.949 165.055 256.021 317.791 256.021 17.673 0 32-14.327 32-32 0-88.945-51.258-170.59-125.941-224.057l189.941 0.057c53.019 0 96-42.981 96-96v0-96c0-35.346-28.654-64-64-64v0-416c0-53.019-42.981-96-96-96v0zM384 448h-256v-416c0-16.2 12.039-29.589 27.658-31.708v0l4.342-0.292h224v448zM576 448h-128v-448h128v448zM896 448h-256v-448h224c16.2 0 29.589 12.039 31.708 27.658l0.292 4.342v416zM384 640h-288c-17.673 0-32-14.327-32-32v0-96h320v128zM576 640h-128v-128h128v128zM928 640h-288v-128h320v96c0 17.673-14.327 32-32 32v0zM227.639 893.4l1.48-6.677c22.189-89.543 113.531-165.359 215.242-180.124-19.176 92.448-112.506 171.672-216.721 186.8zM796.394 893.364l-1.523-0.185c-103.613-15.664-196.147-94.572-215.264-186.543 104.248 15.092 197.578 94.316 216.787 186.728z" />
<glyph unicode="&#xe93b;" glyph-name="gift-bold" d="M117.333 345.6v0c-11.782 0-21.333-9.169-21.333-20.48v-317.44c0.070-39.56 33.459-71.612 74.667-71.68h298.667c11.782 0 21.333 9.169 21.333 20.48v368.64c0 11.311-9.551 20.48-21.333 20.48zM576 345.6v0c-11.782 0-21.333-9.169-21.333-20.48v-368.64c0-11.311 9.551-20.48 21.333-20.48h277.333c41.208 0.068 74.596 32.12 74.667 71.68v317.44c0 11.311-9.551 20.48-21.333 20.48zM576 632.32v0c-11.782 0-21.333-9.169-21.333-20.48v-184.32c0-11.311 9.551-20.48 21.333-20.48h362.667c41.208 0.068 74.596 32.12 74.667 71.68v81.92c-0.047 39.569-33.449 71.635-74.667 71.68zM469.333 632.32c11.782 0 21.333-9.169 21.333-20.48v0-184.32c0-11.311-9.551-20.48-21.333-20.48v0h-384c-41.208 0.068-74.596 32.12-74.667 71.68v0 81.92c0.047 39.569 33.449 71.635 74.667 71.68v0zM627.2 883.61c49.261 47.358 129.186 47.413 178.517 0.123s49.389-124.018 0.128-171.377c-37.12-35.635-158.592-66.97-209.067-78.807-14.464-3.403-29.73 0.68-40.277 10.772-10.254 10.237-14.525 24.704-11.392 38.584 18.987 74.67 49.792 169.697 82.091 200.704zM239.659 883.692c49.308 47.29 129.214 47.254 178.475-0.082 32.213-31.048 63.019-126.116 81.963-200.54 3.249-13.898-0.945-28.435-11.179-38.748-10.547-10.093-25.813-14.176-40.277-10.772-50.56 11.837-172.032 43.172-209.067 78.807-49.261 47.336-49.223 124.045 0.085 171.336zM727.474 836.603c-14.351 3.572-29.591-0.605-39.815-10.911-17.693-29.281-31.062-60.78-39.723-93.594 34.157 8.364 66.949 21.21 97.451 38.175 10.736 9.815 15.086 24.446 11.365 38.223s-14.927 24.535-29.278 28.107zM357.632 825.692c-10.312 9.892-25.338 13.752-39.418 10.125s-25.075-14.19-28.843-27.709c-3.768-13.519 0.264-27.942 10.576-37.834v0l15.422-8.155c26.010-13.008 53.521-23.086 81.986-30.020-8.641 32.82-22.011 64.322-39.723 93.594z" />
<glyph unicode="&#xe93c;" glyph-name="question-bold" d="M512 960c-282.77 0-512-229.23-512-512s229.23-512 512-512c282.77 0 512 229.23 512 512-0.306 282.643-229.357 511.694-512 512zM512 149.333c-35.346 0-64 28.654-64 64s28.654 64 64 64c35.346 0 64-28.654 64-64s-28.654-64-64-64zM580.267 408.747c-15.556-6.789-25.608-22.153-25.6-39.125 0-23.564-19.103-42.667-42.667-42.667s-42.667 19.103-42.667 42.667c-0.008 50.903 30.147 96.972 76.8 117.333 39.066 17.050 59.56 60.313 48.005 101.342s-51.613 67.239-93.836 61.395c-42.223-5.843-73.658-41.947-73.636-84.572 0-23.564-19.103-42.667-42.667-42.667s-42.667 19.103-42.667 42.667c0 85.239 62.889 157.409 147.328 169.066s164.53-40.775 187.623-122.826c23.093-82.051-17.894-168.56-96.017-202.656v0.043z" />
<glyph unicode="&#xe93d;" glyph-name="question" d="M512 960c282.77 0 512-229.23 512-512s-229.23-512-512-512c-282.77 0-512 229.23-512 512s229.23 512 512 512zM512 896c-247.424 0-448-200.576-448-448s200.576-448 448-448c247.424 0 448 200.576 448 448s-200.576 448-448 448zM512 256l-5.23-0.282c-24.049-2.606-42.77-22.976-42.77-47.718 0-26.51 21.49-48 48-48s48 21.49 48 48c0 24.742-18.72 45.112-42.77 47.718l-5.23 0.282zM667.914 611.906c-18.271 79.286-93.136 132.234-173.979 123.047s-141.919-77.582-141.934-158.946c-0.003-17.673 14.321-32.003 31.994-32.006s32.003 14.321 32.006 31.994l0.248 6.918c3.278 45.728 38.716 83.2 84.913 88.45 48.506 5.512 93.425-26.257 104.388-73.828s-15.522-95.795-61.548-112.068l-6.637-2.626c-34.665-15.226-57.383-49.626-57.363-87.934v-42.906l0.292-4.342c2.119-15.619 15.508-27.658 31.708-27.658 17.673 0 32 14.327 32 32v42.923l0.309 4.465c1.636 11.714 9.655 21.719 21.025 25.739 76.711 27.121 120.851 107.494 102.58 186.779z" />
<glyph unicode="&#xe93e;" glyph-name="search" d="M271.529 887.304c190.975 81.162 411.586-7.858 492.748-198.833 57.258-134.728 29.817-284.205-58.367-389.065l244.815-244.91c12.496-12.498 12.494-32.759-0.003-45.255-11.362-11.36-29.139-12.391-41.666-3.095l-3.589 3.099-244.864 244.828c-27.936-23.515-59.8-43.322-95.159-58.35-190.975-81.162-411.586 7.858-492.748 198.833s7.858 411.586 198.833 492.748zM705.375 663.439c-67.337 158.444-250.37 232.301-408.814 164.964s-232.301-250.37-164.964-408.814c67.337-158.444 250.37-232.301 408.814-164.964 37.587 15.974 70.414 38.459 97.725 65.583l0.752 0.911 0.869 0.711c86.571 87.259 116.664 221.499 65.618 341.61z" />
<glyph unicode="&#xe93f;" glyph-name="search-bold" d="M997.717 37.589l-278.571 278.571c126.172 165.858 102.258 401.112-54.707 538.189s-393.297 129.094-540.654-18.263c-147.357-147.357-155.34-383.689-18.263-540.654s372.332-180.878 538.189-54.707l278.571-278.571c20.981-20.465 54.454-20.465 75.435 0 20.811 20.839 20.811 54.596 0 75.435zM117.333 554.667c0 159.058 128.942 288 288 288s288-128.942 288-288c0-159.058-128.942-288-288-288-158.98 0.188-287.812 129.020-288 288z" />
<glyph unicode="&#xe940;" glyph-name="diecut-bold" d="M252.715 296.954c-2.837 0-5.556-1.135-7.552-3.152l-226.133-226.645c-9.679-9.707-12.1-24.502-6.019-36.788s19.311-19.335 32.899-17.527l261.035 34.816c22.585 2.946 43.621 13.090 59.989 28.928l48.256 46.549c2.041 2.004 3.206 4.734 3.244 7.595 0.041 2.863-1.083 5.62-3.116 7.637l-54.101 54.101c-2.022 2.024-4.776 3.147-7.637 3.115-2.848 0.007-5.576-1.149-7.552-3.2l-55.467-56.875c-12.336-12.666-32.604-12.933-45.269-0.597s-12.933 32.604-0.597 45.269l56.192 57.813c4.066 4.148 4.066 10.786 0 14.933l-40.619 40.875c-1.996 2.017-4.715 3.152-7.552 3.152zM375.893 420.395c-2.83 0-5.545-1.12-7.552-3.115l-62.933-63.147c-4.15-4.163-4.15-10.898 0-15.061l156.075-156.629c4.148-4.066 10.786-4.066 14.933 0l64 61.867c2.041 2.004 3.206 4.734 3.243 7.595 0.023 2.86-1.099 5.609-3.115 7.637l-157.099 157.739c-1.996 2.011-4.718 3.134-7.552 3.115zM413.568 462.549v0c-4.15-4.163-4.15-10.898 0-15.061l158.165-158.677c4.138-4.088 10.795-4.088 14.933 0l402.859 388.523c42.24 42.069 26.453 124.331-15.104 165.803-30.976 31.019-116.395 64.64-165.931 15.061z" />
<glyph unicode="&#xe941;" glyph-name="diecut" d="M863.893 904.57c38.817 0 76.279-14.111 106.212-40.356v0l6.931-6.512c30.012-30.007 46.872-70.707 46.872-113.147s-16.861-83.14-46.528-112.796v0l-502.279-517.857-94.381-94.338c-18.012-18.001-42.439-28.108-67.89-28.096v0h-248.988c-25.822 0.126-49.038 15.757-58.869 39.634s-4.35 51.323 13.454 69.139v0l230.046 239.651 85.821 88.511c1.006 1.401 2.139 2.74 3.398 3.999l2.923 2.495 410.129 422.802c27.698 27.703 64.509 44.201 103.388 46.575zM271.872 271.872l-207.716-216.406h248.691c8.488-0.003 16.631 3.365 22.633 9.364v0l71.689 71.746-45.217 45.221-45.222-45.192c-12.497-12.497-32.758-12.497-45.255 0-11.361 11.361-12.393 29.138-3.098 41.666l3.098 3.589 45.208 45.207-44.81 44.806zM360.884 363.941l-44.554-45.989 67.714-67.657c0.191-0.182 0.379-0.366 0.567-0.553l0.465-0.532 67.020-67.023 44.511 45.989-135.723 135.765zM863.893 840.57c-25.464 0-49.884-10.116-67.548-27.778v0l-390.874-402.899 135.723-135.765 390.591 402.539c14.005 14.003 23.238 31.888 26.649 51.126l1.103 8.32 0.372 8.442c0 25.464-10.116 49.884-27.368 67.157v0l-5.392 5.072c-17.487 15.32-39.966 23.787-63.256 23.787z" />
<glyph unicode="&#xe942;" glyph-name="menuclose-bold" d="M240.471 810.039l271.522-271.493 271.536 271.493c16.662 16.662 43.677 16.662 60.34 0l30.17-30.17c16.662-16.662 16.662-43.677 0-60.34l-271.55-271.522 271.55-271.536c16.662-16.662 16.662-43.677 0-60.34l-30.17-30.17c-16.662-16.662-43.677-16.662-60.34 0l-271.536 271.55-271.522-271.55c-16.662-16.662-43.677-16.662-60.34 0l-30.17 30.17c-16.662 16.662-16.662 43.677 0 60.34l271.493 271.536-271.493 271.522c-16.662 16.662-16.662 43.677 0 60.34l30.17 30.17c16.662 16.662 43.677 16.662 60.34 0z" />
<glyph unicode="&#xe943;" glyph-name="menuclose" d="M828.784 764.656c11.455-11.455 12.41-29.435 2.864-41.978l-2.864-3.277-271.57-271.517 271.57-271.541c12.497-12.497 12.497-32.758 0-45.255-11.455-11.455-29.435-12.41-41.978-2.864l-3.277 2.864-271.541 271.57-271.517-271.57c-12.497-12.497-32.758-12.497-45.255 0-11.455 11.455-12.41 29.435-2.864 41.978l2.864 3.277 271.502 271.541-271.502 271.517c-12.497 12.497-12.497 32.758 0 45.255 11.455 11.455 29.435 12.41 41.978 2.864l3.277-2.864 271.517-271.502 271.541 271.502c12.497 12.497 32.758 12.497 45.255 0z" />
<glyph unicode="&#xe944;" glyph-name="info" d="M512 960c282.77 0 512-229.23 512-512s-229.23-512-512-512c-282.77 0-512 229.23-512 512s229.23 512 512 512zM512 896c-247.424 0-448-200.576-448-448s200.576-448 448-448c247.424 0 448 200.576 448 448s-200.576 448-448 448zM480 544h-32l-4.342-0.292c-15.619-2.119-27.658-15.508-27.658-31.708 0-17.673 14.327-32 32-32h32v-160l0.221-6.573c3.378-49.954 44.968-89.427 95.779-89.427h32l4.342 0.292c15.619 2.119 27.658 15.508 27.658 31.708 0 17.673-14.327 32-32 32h-32l-4.342 0.292c-15.619 2.119-27.658 15.508-27.658 31.708v160l-0.293 6.164c-3.101 32.454-30.44 57.836-63.707 57.836zM496 704l-5.23-0.282c-24.049-2.606-42.77-22.976-42.77-47.718 0-26.51 21.49-48 48-48s48 21.49 48 48c0 24.742-18.72 45.112-42.77 47.718l-5.23 0.282z" />
<glyph unicode="&#xe945;" glyph-name="info-bold" d="M512 960c-282.77 0-512-229.23-512-512s229.23-512 512-512c282.77 0 512 229.23 512 512-0.306 282.643-229.357 511.694-512 512zM522.667 746.667c35.346 0 64-28.654 64-64s-28.654-64-64-64c-35.346 0-64 28.654-64 64s28.654 64 64 64zM618.667 170.667h-170.667c-23.564 0-42.667 19.103-42.667 42.667s19.103 42.667 42.667 42.667h32c5.891 0 10.667 4.776 10.667 10.667v192c0 5.891-4.776 10.667-10.667 10.667h-32c-23.564 0-42.667 19.103-42.667 42.667s19.103 42.667 42.667 42.667h42.667c47.128 0 85.333-38.205 85.333-85.333v-202.667c0-5.891 4.776-10.667 10.667-10.667h32c23.564 0 42.667-19.103 42.667-42.667s-19.103-42.667-42.667-42.667z" />
</font>
</defs>
</svg>
